{
.appVersion = "1147";
copyright = "Copyright (c) 2010, Sebastian Kosch (sebastian@aldusleaf.org),\012with Reserved Font Name \"Crimson Text\".\012This Font Software is licensed under the SIL Open Font License, Version 1.1.\012This license is available with a FAQ at: http://scripts.sil.org/OFL";
customParameters = (
{
name = glyphOrder;
value = (
A,
Aogonek,
AE,
B,
C,
D,
Eth,
E,
Eogonek,
F,
G,
H,
Hbar,
I,
Iogonek,
I_J.loclNLD,
J,
K,
L,
Lcaron,
Ldot,
Lslash,
M,
N,
Eng,
O,
Oslash,
Ohorn,
Oogonek,
OE,
P,
Thorn,
Q,
R,
S,
Germandbls,
Schwa,
T,
Tbar,
U,
Uogonek,
Uhorn,
V,
W,
X,
Y,
Z,
a,
aogonek,
ae,
b,
c,
d,
dcaron,
dcroat,
eth,
e,
eogonek,
f,
g,
h,
hbar,
i,
idotless,
iogonek,
i_j.loclNLD,
j,
jdotless,
k,
kgreenlandic,
l,
ldot,
lcaron,
lslash,
m,
n,
eng,
o,
oogonek,
oslash,
ohorn,
oe,
p,
thorn,
q,
r,
s,
germandbls,
schwa,
t,
tbar,
tcaron,
u,
uogonek,
uhorn,
v,
w,
x,
y,
z
);
}
);
date = "2018-06-05 09:44:50 +0000";
familyName = "Crimson Text New";
featurePrefixes = (
{
automatic = 1;
code = "languagesystem DFLT dflt;\012";
name = Languagesystems;
}
);
features = (
{
automatic = 1;
code = "feature ss01;\012";
name = aalt;
},
{
automatic = 1;
code = "sub a by a.ss01;\012sub h by h.ss01;\012sub n by n.ss01;\012sub s by s.ss01;\012";
name = ss01;
}
);
fontMaster = (
{
alignmentZones = (
"{688, 15}",
"{660, 15}",
"{430, 15}",
"{0, -15}"
);
ascender = 688;
capHeight = 660;
custom = Italic;
descender = -307;
id = "720C727D-0ED9-429E-914E-55EB9E513E33";
italicAngle = 11;
weightValue = 400;
widthValue = 5;
xHeight = 430;
},
{
alignmentZones = (
"{695, 2}",
"{662, 5}",
"{641, 1}",
"{449, 0}",
"{0, -11}",
"{-218, -2}"
);
ascender = 742;
capHeight = 658;
descender = -282;
horizontalStems = (
37,
43,
50,
74,
86
);
id = "DEDDD934-E4FE-4A27-B966-8C21F8A9BC34";
italicAngle = 11;
verticalStems = (
122,
126,
144
);
weight = Bold;
weightValue = 700;
xHeight = 429;
}
);
glyphs = (
{
color = 3;
glyphname = A;
lastChange = "2018-06-05 09:43:46 +0000";
layers = (
{
background = {
paths = (
{
closed = 1;
nodes = (
"454 59 OFFCURVE",
"447 44 QCURVE",
"442 36 OFFCURVE",
"406 24 OFFCURVE",
"396 24 QCURVE SMOOTH",
"389 24 OFFCURVE",
"389 3 QCURVE SMOOTH",
"389 -2 OFFCURVE",
"390 -3 QCURVE",
"405 -2 OFFCURVE",
"445 0 OFFCURVE",
"478 2 OFFCURVE",
"497 2 QCURVE SMOOTH",
"508 2 OFFCURVE",
"601 -3 QCURVE",
"606 7 OFFCURVE",
"606 19 QCURVE SMOOTH",
"606 24 OFFCURVE",
"604 24 QCURVE SMOOTH",
"594 24 OFFCURVE",
"549 45 OFFCURVE",
"546 60 QCURVE SMOOTH",
"544 69 OFFCURVE",
"534 132 QCURVE SMOOTH",
"451 660 LINE",
"447 662 OFFCURVE",
"443 662 QCURVE SMOOTH",
"419 662 OFFCURVE",
"404 635 QCURVE SMOOTH",
"128 139 LINE SMOOTH",
"89 69 OFFCURVE",
"67 45 QCURVE SMOOTH",
"59 36 OFFCURVE",
"20 24 OFFCURVE",
"9 24 QCURVE SMOOTH",
"2 24 OFFCURVE",
"2 5 QCURVE SMOOTH",
"2 -1 OFFCURVE",
"4 -3 QCURVE",
"20 -2 OFFCURVE",
"54 0 OFFCURVE",
"83 2 OFFCURVE",
"102 2 QCURVE SMOOTH",
"104 2 OFFCURVE",
"197 -3 QCURVE",
"202 7 OFFCURVE",
"202 18 QCURVE SMOOTH",
"202 24 OFFCURVE",
"200 24 QCURVE SMOOTH",
"196 24 OFFCURVE",
"173 28 OFFCURVE",
"145 44 OFFCURVE",
"145 55 QCURVE SMOOTH",
"145 70 OFFCURVE",
"191 164 OFFCURVE",
"239 244 OFFCURVE",
"242 244 QCURVE",
"314 249 OFFCURVE",
"335 249 QCURVE SMOOTH",
"354 249 OFFCURVE",
"383 249 OFFCURVE",
"404 248 OFFCURVE",
"419 247 OFFCURVE",
"428 246 OFFCURVE",
"433 245 OFFCURVE",
"436 242 OFFCURVE",
"436 241 OFFCURVE",
"436 239 QCURVE",
"454 108 OFFCURVE",
"454 91 QCURVE SMOOTH"
);
},
{
closed = 1;
nodes = (
"271 299 OFFCURVE",
"271 303 OFFCURVE",
"394 526 QCURVE",
"397 505 OFFCURVE",
"414 393 OFFCURVE",
"427 309 OFFCURVE",
"427 304 QCURVE SMOOTH",
"427 300 OFFCURVE",
"423 300 QCURVE",
"394 298 OFFCURVE",
"348 298 QCURVE SMOOTH",
"295 298 OFFCURVE",
"272 299 QCURVE"
);
}
);
};
layerId = "720C727D-0ED9-429E-914E-55EB9E513E33";
paths = (
{
closed = 1;
nodes = (
"20.245 -1.985 OFFCURVE",
"83.429 2 OFFCURVE",
"102 2 CURVE SMOOTH",
"103.333 2 OFFCURVE",
"135 0.333 OFFCURVE",
"197 -3 CURVE",
"200.333 3.667 OFFCURVE",
"202 10.667 OFFCURVE",
"202 18 CURVE SMOOTH",
"202 22 OFFCURVE",
"201.333 24 OFFCURVE",
"200 24 CURVE SMOOTH",
"186.675 24 OFFCURVE",
"145 34.622 OFFCURVE",
"145 55 CURVE SMOOTH",
"145 69.642 OFFCURVE",
"227.6 244 OFFCURVE",
"242 244 CURVE",
"290 247.333 OFFCURVE",
"321 249 OFFCURVE",
"335 249 CURVE SMOOTH",
"366.848 249 OFFCURVE",
"413.258 247.638 OFFCURVE",
"423.5 246.5 CURVE SMOOTH",
"432.374 245.514 OFFCURVE",
"436 244.775 OFFCURVE",
"436 239 CURVE",
"448 151.667 OFFCURVE",
"454 102.333 OFFCURVE",
"454 91 CURVE SMOOTH",
"454 69.667 OFFCURVE",
"451.667 54 OFFCURVE",
"447 44 CURVE",
"440.333 33.333 OFFCURVE",
"409.333 24 OFFCURVE",
"396 24 CURVE SMOOTH",
"391.333 24 OFFCURVE",
"389 17 OFFCURVE",
"389 3 CURVE SMOOTH",
"389 -0.333 OFFCURVE",
"389.333 -2.333 OFFCURVE",
"390 -3 CURVE",
"407.723 -1.818 OFFCURVE",
"476.59 2 OFFCURVE",
"497 2 CURVE SMOOTH",
"504.333 2 OFFCURVE",
"539 0.333 OFFCURVE",
"601 -3 CURVE",
"604.333 3.667 OFFCURVE",
"606 11 OFFCURVE",
"606 19 CURVE SMOOTH",
"606 22.333 OFFCURVE",
"605.333 24 OFFCURVE",
"604 24 CURVE SMOOTH",
"590.667 24 OFFCURVE",
"550 40 OFFCURVE",
"546 60 CURVE SMOOTH",
"544.667 66 OFFCURVE",
"540.667 90 OFFCURVE",
"534 132 CURVE SMOOTH",
"451 660 LINE",
"448.333 661.333 OFFCURVE",
"445.667 662 OFFCURVE",
"443 662 CURVE SMOOTH",
"427 662 OFFCURVE",
"414 653 OFFCURVE",
"404 635 CURVE SMOOTH",
"128 139 LINE SMOOTH",
"102 92.333 OFFCURVE",
"81.667 61 OFFCURVE",
"67 45 CURVE SMOOTH",
"56.333 33 OFFCURVE",
"23.667 24 OFFCURVE",
"9 24 CURVE SMOOTH",
"4.333 24 OFFCURVE",
"2 17.667 OFFCURVE",
"2 5 CURVE SMOOTH",
"2 1 OFFCURVE",
"2.667 -1.667 OFFCURVE",
"4 -3 CURVE"
);
},
{
closed = 1;
nodes = (
"312.667 298 OFFCURVE",
"287.333 298.333 OFFCURVE",
"272 299 CURVE",
"271.333 299 OFFCURVE",
"271 299.667 OFFCURVE",
"271 301 CURVE SMOOTH",
"271 302.333 OFFCURVE",
"312 377.333 OFFCURVE",
"394 526 CURVE",
"400.404 481.174 OFFCURVE",
"427 351.774 OFFCURVE",
"427 304 CURVE SMOOTH",
"427 301.333 OFFCURVE",
"425.667 300 OFFCURVE",
"423 300 CURVE",
"403.667 298.667 OFFCURVE",
"378.667 298 OFFCURVE",
"348 298 CURVE SMOOTH"
);
}
);
width = 606;
},
{
associatedMasterId = "720C727D-0ED9-429E-914E-55EB9E513E33";
background = {
paths = (
{
closed = 1;
nodes = (
"454 59 OFFCURVE",
"447 44 QCURVE",
"442 36 OFFCURVE",
"406 24 OFFCURVE",
"396 24 QCURVE SMOOTH",
"389 24 OFFCURVE",
"389 3 QCURVE SMOOTH",
"389 -2 OFFCURVE",
"390 -3 QCURVE",
"405 -2 OFFCURVE",
"445 0 OFFCURVE",
"478 2 OFFCURVE",
"497 2 QCURVE SMOOTH",
"508 2 OFFCURVE",
"601 -3 QCURVE",
"606 7 OFFCURVE",
"606 19 QCURVE SMOOTH",
"606 24 OFFCURVE",
"604 24 QCURVE SMOOTH",
"594 24 OFFCURVE",
"549 45 OFFCURVE",
"546 60 QCURVE SMOOTH",
"544 69 OFFCURVE",
"534 132 QCURVE SMOOTH",
"451 660 LINE",
"447 662 OFFCURVE",
"443 662 QCURVE SMOOTH",
"419 662 OFFCURVE",
"404 635 QCURVE SMOOTH",
"128 139 LINE SMOOTH",
"89 69 OFFCURVE",
"67 45 QCURVE SMOOTH",
"59 36 OFFCURVE",
"20 24 OFFCURVE",
"9 24 QCURVE SMOOTH",
"2 24 OFFCURVE",
"2 5 QCURVE SMOOTH",
"2 -1 OFFCURVE",
"4 -3 QCURVE",
"20 -2 OFFCURVE",
"54 0 OFFCURVE",
"83 2 OFFCURVE",
"102 2 QCURVE SMOOTH",
"104 2 OFFCURVE",
"197 -3 QCURVE",
"202 7 OFFCURVE",
"202 18 QCURVE SMOOTH",
"202 24 OFFCURVE",
"200 24 QCURVE SMOOTH",
"196 24 OFFCURVE",
"173 28 OFFCURVE",
"145 44 OFFCURVE",
"145 55 QCURVE SMOOTH",
"145 70 OFFCURVE",
"191 164 OFFCURVE",
"239 244 OFFCURVE",
"242 244 QCURVE",
"314 249 OFFCURVE",
"335 249 QCURVE SMOOTH",
"354 249 OFFCURVE",
"383 249 OFFCURVE",
"404 248 OFFCURVE",
"419 247 OFFCURVE",
"428 246 OFFCURVE",
"433 245 OFFCURVE",
"436 242 OFFCURVE",
"436 241 OFFCURVE",
"436 239 QCURVE",
"454 108 OFFCURVE",
"454 91 QCURVE SMOOTH"
);
},
{
closed = 1;
nodes = (
"271 299 OFFCURVE",
"271 303 OFFCURVE",
"394 526 QCURVE",
"397 505 OFFCURVE",
"414 393 OFFCURVE",
"427 309 OFFCURVE",
"427 304 QCURVE SMOOTH",
"427 300 OFFCURVE",
"423 300 QCURVE",
"394 298 OFFCURVE",
"348 298 QCURVE SMOOTH",
"295 298 OFFCURVE",
"272 299 QCURVE"
);
}
);
};
layerId = "DB3BCD12-2258-4346-A3D7-C4305ADE7088";
name = "Mar 12 18, 15:56";
paths = (
{
closed = 1;
nodes = (
"454 69.667 OFFCURVE",
"451.667 54 OFFCURVE",
"447 44 CURVE",
"440.333 33.333 OFFCURVE",
"409.333 24 OFFCURVE",
"396 24 CURVE SMOOTH",
"391.333 24 OFFCURVE",
"389 17 OFFCURVE",
"389 3 CURVE SMOOTH",
"389 -0.333 OFFCURVE",
"389.333 -2.333 OFFCURVE",
"390 -3 CURVE",
"407.723 -1.818 OFFCURVE",
"476.59 2 OFFCURVE",
"497 2 CURVE SMOOTH",
"504.333 2 OFFCURVE",
"539 0.333 OFFCURVE",
"601 -3 CURVE",
"604.333 3.667 OFFCURVE",
"606 11 OFFCURVE",
"606 19 CURVE SMOOTH",
"606 22.333 OFFCURVE",
"605.333 24 OFFCURVE",
"604 24 CURVE SMOOTH",
"590.667 24 OFFCURVE",
"550 40 OFFCURVE",
"546 60 CURVE SMOOTH",
"544.667 66 OFFCURVE",
"540.667 90 OFFCURVE",
"534 132 CURVE SMOOTH",
"451 660 LINE",
"448.333 661.333 OFFCURVE",
"445.667 662 OFFCURVE",
"443 662 CURVE SMOOTH",
"427 662 OFFCURVE",
"414 653 OFFCURVE",
"404 635 CURVE SMOOTH",
"128 139 LINE SMOOTH",
"102 92.333 OFFCURVE",
"81.667 61 OFFCURVE",
"67 45 CURVE SMOOTH",
"56.333 33 OFFCURVE",
"23.667 24 OFFCURVE",
"9 24 CURVE SMOOTH",
"4.333 24 OFFCURVE",
"2 17.667 OFFCURVE",
"2 5 CURVE SMOOTH",
"2 1 OFFCURVE",
"2.667 -1.667 OFFCURVE",
"4 -3 CURVE",
"20.245 -1.985 OFFCURVE",
"83.429 2 OFFCURVE",
"102 2 CURVE SMOOTH",
"103.333 2 OFFCURVE",
"135 0.333 OFFCURVE",
"197 -3 CURVE",
"200.333 3.667 OFFCURVE",
"202 10.667 OFFCURVE",
"202 18 CURVE SMOOTH",
"202 22 OFFCURVE",
"201.333 24 OFFCURVE",
"200 24 CURVE SMOOTH",
"186.675 24 OFFCURVE",
"145 34.622 OFFCURVE",
"145 55 CURVE SMOOTH",
"145 69.642 OFFCURVE",
"227.6 244 OFFCURVE",
"242 244 CURVE",
"290 247.333 OFFCURVE",
"321 249 OFFCURVE",
"335 249 CURVE SMOOTH",
"366.848 249 OFFCURVE",
"413.258 247.638 OFFCURVE",
"423.5 246.5 CURVE SMOOTH",
"432.374 245.514 OFFCURVE",
"436 244.775 OFFCURVE",
"436 239 CURVE",
"448 151.667 OFFCURVE",
"454 102.333 OFFCURVE",
"454 91 CURVE SMOOTH"
);
},
{
closed = 1;
nodes = (
"271.333 299 OFFCURVE",
"271 299.667 OFFCURVE",
"271 301 CURVE SMOOTH",
"271 302.333 OFFCURVE",
"312 377.333 OFFCURVE",
"394 526 CURVE",
"400.404 481.174 OFFCURVE",
"427 351.774 OFFCURVE",
"427 304 CURVE SMOOTH",
"427 301.333 OFFCURVE",
"425.667 300 OFFCURVE",
"423 300 CURVE",
"403.667 298.667 OFFCURVE",
"378.667 298 OFFCURVE",
"348 298 CURVE SMOOTH",
"312.667 298 OFFCURVE",
"287.333 298.333 OFFCURVE",
"272 299 CURVE"
);
}
);
width = 606;
},
{
associatedMasterId = "720C727D-0ED9-429E-914E-55EB9E513E33";
layerId = "224EBB09-B0C1-4BEB-A9D0-6C532A36BC10";
name = "Mar 12 18, 16:00";
paths = (
{
closed = 1;
nodes = (
"351 -3 OFFCURVE",
"389 1 OFFCURVE",
"420 2 OFFCURVE",
"439 2 QCURVE SMOOTH",
"456 2 OFFCURVE",
"548 -3 QCURVE",
"550 0 OFFCURVE",
"553 20 OFFCURVE",
"551 26 QCURVE",
"547 26 OFFCURVE",
"531 28 OFFCURVE",
"508 34 OFFCURVE",
"490 48 OFFCURVE",
"488 58 QCURVE SMOOTH",
"487 65 OFFCURVE",
"477 126 QCURVE SMOOTH",
"391 660 LINE",
"389 663 OFFCURVE",
"386 663 QCURVE SMOOTH",
"379 663 OFFCURVE",
"352 645 OFFCURVE",
"346 634 QCURVE SMOOTH",
"70 139 LINE SMOOTH",
"32 71 OFFCURVE",
"8 45 QCURVE SMOOTH",
"-1 37 OFFCURVE",
"-38 26 OFFCURVE",
"-50 26 QCURVE",
"-53 21 OFFCURVE",
"-57 -1 OFFCURVE",
"-56 -3 QCURVE",
"-40 -3 OFFCURVE",
"-5 1 OFFCURVE",
"24 2 OFFCURVE",
"43 2 QCURVE SMOOTH",
"61 2 OFFCURVE",
"88 1 OFFCURVE",
"118 -3 OFFCURVE",
"132 -3 QCURVE",
"134 2 OFFCURVE",
"137 24 OFFCURVE",
"136 26 QCURVE",
"131 26 OFFCURVE",
"115 28 OFFCURVE",
"91 32 OFFCURVE",
"74 43 OFFCURVE",
"74 50 QCURVE SMOOTH",
"74 70 OFFCURVE",
"103 125 QCURVE SMOOTH",
"124 165 OFFCURVE",
"174 256 QCURVE",
"373 256 LINE",
"395 106 LINE SMOOTH",
"398 87 OFFCURVE",
"398 57 QCURVE SMOOTH",
"398 42 OFFCURVE",
"368 26 OFFCURVE",
"341 26 QCURVE",
"337 22 OFFCURVE",
"332 1 OFFCURVE",
"335 -3 QCURVE"
);
},
{
closed = 1;
nodes = (
"368 289 LINE",
"192 289 LINE",
"329 535 LINE"
);
}
);
width = 586;
},
{
layerId = "DEDDD934-E4FE-4A27-B966-8C21F8A9BC34";
paths = (
{
closed = 1;
nodes = (
"61 134 CURVE SMOOTH",
"355 624 LINE SMOOTH",
"363 637 OFFCURVE",
"386 662 OFFCURVE",
"396 662 CURVE SMOOTH",
"404 662 OFFCURVE",
"413 658 OFFCURVE",
"414 655 CURVE",
"507 148 LINE SMOOTH",
"513 117 OFFCURVE",
"515 97 OFFCURVE",
"519 76 CURVE SMOOTH",
"527 35 OFFCURVE",
"577 33 OFFCURVE",
"584 33 CURVE",
"587 24 OFFCURVE",
"582 0 OFFCURVE",
"578 -4 CURVE",
"541 -2 OFFCURVE",
"496 4 OFFCURVE",
"455 4 CURVE SMOOTH",
"412 4 OFFCURVE",
"347 -2 OFFCURVE",
"313 -4 CURVE",
"309 1 OFFCURVE",
"316 33 OFFCURVE",
"321 33 CURVE",
"337 33 OFFCURVE",
"364 39 OFFCURVE",
"379 51 CURVE SMOOTH",
"386 56 OFFCURVE",
"390 61 OFFCURVE",
"391 68 CURVE SMOOTH",
"393 77 OFFCURVE",
"364 220 OFFCURVE",
"364 220 CURVE",
"364 220 OFFCURVE",
"362 224 OFFCURVE",
"359 224 CURVE SMOOTH",
"324 226 OFFCURVE",
"293 225 OFFCURVE",
"270 225 CURVE SMOOTH",
"232 225 OFFCURVE",
"206 225 OFFCURVE",
"173 224 CURVE SMOOTH",
"170 224 OFFCURVE",
"166 221 OFFCURVE",
"165 219 CURVE",
"165 219 OFFCURVE",
"131 163 OFFCURVE",
"115 135 CURVE SMOOTH",
"101 110 OFFCURVE",
"83 74 OFFCURVE",
"82 67 CURVE SMOOTH",
"77 41 OFFCURVE",
"140 33 OFFCURVE",
"147 33 CURVE",
"151 26 OFFCURVE",
"144 0 OFFCURVE",
"140 -4 CURVE",
"108 0 OFFCURVE",
"82 4 OFFCURVE",
"41 4 CURVE SMOOTH",
"-2 4 OFFCURVE",
"-28 0 OFFCURVE",
"-61 -4 CURVE",
"-64 0 OFFCURVE",
"-62 21 OFFCURVE",
"-56 32 CURVE",
"-45 32 OFFCURVE",
"3 48 OFFCURVE",
"15 64 CURVE SMOOTH",
"36 92 OFFCURVE",
"44 106 OFFCURVE"
);
},
{
closed = 1;
nodes = (
"315 476 LINE",
"197 280 LINE",
"197 280 OFFCURVE",
"197 276 OFFCURVE",
"199 276 CURVE SMOOTH",
"217 274 OFFCURVE",
"254 273 OFFCURVE",
"275 273 CURVE SMOOTH",
"304 273 OFFCURVE",
"321 273 OFFCURVE",
"350 275 CURVE SMOOTH",
"352 275 OFFCURVE",
"354 280 OFFCURVE",
"354 280 CURVE"
);
}
);
width = 620;
}
);
note = A;
unicode = 0041;
},
{
color = 3;
glyphname = Aogonek;
lastChange = "2018-06-05 09:43:46 +0000";
layers = (
{
layerId = "720C727D-0ED9-429E-914E-55EB9E513E33";
paths = (
{
closed = 1;
nodes = (
"378 -230 OFFCURVE",
"415 -208 OFFCURVE",
"455 -163 CURVE",
"459 -159 OFFCURVE",
"468 -134 OFFCURVE",
"461 -133 CURVE",
"454 -133 OFFCURVE",
"402 -171 OFFCURVE",
"378 -171 CURVE SMOOTH",
"357 -171 OFFCURVE",
"347 -160 OFFCURVE",
"347 -139 CURVE SMOOTH",
"347 -87 OFFCURVE",
"452 1 OFFCURVE",
"519 1 CURVE SMOOTH",
"528 1 OFFCURVE",
"576 -3 OFFCURVE",
"596 -3 CURVE",
"599 4 OFFCURVE",
"601 11 OFFCURVE",
"601 19 CURVE SMOOTH",
"601 22 OFFCURVE",
"600 24 OFFCURVE",
"599 24 CURVE SMOOTH",
"586 24 OFFCURVE",
"545 40 OFFCURVE",
"541 60 CURVE SMOOTH",
"529 132 LINE",
"446 660 LINE",
"443 661 OFFCURVE",
"441 662 OFFCURVE",
"438 662 CURVE SMOOTH",
"422 662 OFFCURVE",
"409 653 OFFCURVE",
"399 635 CURVE SMOOTH",
"123 139 LINE SMOOTH",
"97 92 OFFCURVE",
"77 61 OFFCURVE",
"62 45 CURVE SMOOTH",
"51 33 OFFCURVE",
"19 24 OFFCURVE",
"4 24 CURVE SMOOTH",
"-1 24 OFFCURVE",
"-3 18 OFFCURVE",
"-3 5 CURVE SMOOTH",
"-3 1 OFFCURVE",
"-2 -2 OFFCURVE",
"-1 -3 CURVE",
"15 -2 OFFCURVE",
"78 2 OFFCURVE",
"97 2 CURVE",
"192 -3 LINE",
"195 4 OFFCURVE",
"197 11 OFFCURVE",
"197 18 CURVE SMOOTH",
"197 22 OFFCURVE",
"196 24 OFFCURVE",
"195 24 CURVE SMOOTH",
"182 24 OFFCURVE",
"140 35 OFFCURVE",
"140 55 CURVE SMOOTH",
"140 77 OFFCURVE",
"220 227 OFFCURVE",
"237 244 CURVE",
"240 246 LINE",
"276 248 OFFCURVE",
"306 249 OFFCURVE",
"330 249 CURVE SMOOTH",
"392 249 OFFCURVE",
"425 247 OFFCURVE",
"428 244 CURVE SMOOTH",
"430 242 OFFCURVE",
"431 240 OFFCURVE",
"431 239 CURVE",
"446 128 OFFCURVE",
"454 69 OFFCURVE",
"454 63 CURVE SMOOTH",
"454 36 OFFCURVE",
"444 25 OFFCURVE",
"401 -11 CURVE SMOOTH",
"345 -58 OFFCURVE",
"293 -127 OFFCURVE",
"293 -178 CURVE SMOOTH",
"293 -206 OFFCURVE",
"315 -230 OFFCURVE",
"344 -230 CURVE SMOOTH"
);
},
{
closed = 1;
nodes = (
"308 298 OFFCURVE",
"282 298 OFFCURVE",
"267 299 CURVE",
"266 299 OFFCURVE",
"266 300 OFFCURVE",
"266 301 CURVE SMOOTH",
"266 302 OFFCURVE",
"307 377 OFFCURVE",
"389 526 CURVE",
"395 481 OFFCURVE",
"422 352 OFFCURVE",
"422 304 CURVE SMOOTH",
"422 301 OFFCURVE",
"421 300 OFFCURVE",
"418 300 CURVE",
"399 299 OFFCURVE",
"374 298 OFFCURVE",
"343 298 CURVE SMOOTH"
);
}
);
width = 642;
},
{
layerId = "DEDDD934-E4FE-4A27-B966-8C21F8A9BC34";
paths = (
{
closed = 1;
nodes = (
"455 4 CURVE SMOOTH",
"392 4 OFFCURVE",
"309 -59 OFFCURVE",
"309 -122 CURVE SMOOTH",
"309 -146 OFFCURVE",
"320 -156 OFFCURVE",
"345 -156 CURVE SMOOTH",
"387 -156 OFFCURVE",
"412 -125 OFFCURVE",
"419 -120 CURVE",
"426 -122 OFFCURVE",
"424 -142 OFFCURVE",
"422 -146 CURVE SMOOTH",
"399 -185 OFFCURVE",
"350 -218 OFFCURVE",
"308 -218 CURVE SMOOTH",
"269 -218 OFFCURVE",
"248 -187 OFFCURVE",
"248 -160 CURVE SMOOTH",
"248 -94 OFFCURVE",
"291 -54 OFFCURVE",
"334 -7 CURVE SMOOTH",
"362 23 OFFCURVE",
"390 41 OFFCURVE",
"390 81 CURVE SMOOTH",
"390 90 OFFCURVE",
"364 220 OFFCURVE",
"364 220 CURVE",
"364 220 OFFCURVE",
"362 224 OFFCURVE",
"359 224 CURVE SMOOTH",
"324 226 OFFCURVE",
"293 225 OFFCURVE",
"270 225 CURVE SMOOTH",
"232 225 OFFCURVE",
"206 225 OFFCURVE",
"173 224 CURVE SMOOTH",
"170 224 OFFCURVE",
"166 221 OFFCURVE",
"165 219 CURVE",
"165 219 OFFCURVE",
"131 163 OFFCURVE",
"115 135 CURVE SMOOTH",
"101 110 OFFCURVE",
"83 74 OFFCURVE",
"82 67 CURVE SMOOTH",
"77 41 OFFCURVE",
"140 33 OFFCURVE",
"147 33 CURVE",
"151 26 OFFCURVE",
"144 0 OFFCURVE",
"140 -4 CURVE",
"108 0 OFFCURVE",
"82 4 OFFCURVE",
"41 4 CURVE SMOOTH",
"-2 4 OFFCURVE",
"-28 0 OFFCURVE",
"-61 -4 CURVE",
"-64 0 OFFCURVE",
"-62 21 OFFCURVE",
"-56 32 CURVE",
"-45 32 OFFCURVE",
"3 48 OFFCURVE",
"15 64 CURVE SMOOTH",
"36 92 OFFCURVE",
"44 106 OFFCURVE",
"61 134 CURVE SMOOTH",
"355 624 LINE SMOOTH",
"363 637 OFFCURVE",
"386 662 OFFCURVE",
"396 662 CURVE SMOOTH",
"404 662 OFFCURVE",
"413 658 OFFCURVE",
"414 655 CURVE",
"507 148 LINE SMOOTH",
"513 117 OFFCURVE",
"515 97 OFFCURVE",
"519 76 CURVE SMOOTH",
"527 35 OFFCURVE",
"577 33 OFFCURVE",
"584 33 CURVE",
"587 24 OFFCURVE",
"582 0 OFFCURVE",
"578 -4 CURVE",
"541 -2 OFFCURVE",
"496 4 OFFCURVE"
);
},
{
closed = 1;
nodes = (
"315 476 LINE",
"197 280 LINE",
"197 280 OFFCURVE",
"197 276 OFFCURVE",
"199 276 CURVE SMOOTH",
"217 274 OFFCURVE",
"254 273 OFFCURVE",
"275 273 CURVE SMOOTH",
"304 273 OFFCURVE",
"321 273 OFFCURVE",
"350 275 CURVE SMOOTH",
"352 275 OFFCURVE",
"354 280 OFFCURVE",
"354 280 CURVE"
);
}
);
width = 620;
}
);
note = Aogonek;
unicode = 0104;
},
{
color = 3;
glyphname = AE;
lastChange = "2018-06-05 09:43:46 +0000";
layers = (
{
layerId = "720C727D-0ED9-429E-914E-55EB9E513E33";
paths = (
{
closed = 1;
nodes = (
"810 41 OFFCURVE",
"835 97 OFFCURVE",
"869 162 CURVE",
"866 166 OFFCURVE",
"859 168 OFFCURVE",
"848 168 CURVE SMOOTH",
"840 168 OFFCURVE",
"835 166 OFFCURVE",
"833 162 CURVE SMOOTH",
"806 105 OFFCURVE",
"782 71 OFFCURVE",
"763 61 CURVE",
"740 50 OFFCURVE",
"703 44 OFFCURVE",
"651 44 CURVE SMOOTH",
"636 44 LINE SMOOTH",
"602 44 OFFCURVE",
"575 45 OFFCURVE",
"575 63 CURVE SMOOTH",
"575 66 OFFCURVE",
"577 82 OFFCURVE",
"580 111 CURVE SMOOTH",
"584 154 LINE",
"596 286 LINE",
"597 293 OFFCURVE",
"610 296 OFFCURVE",
"637 296 CURVE SMOOTH",
"697 296 OFFCURVE",
"730 293 OFFCURVE",
"737 288 CURVE",
"749 278 OFFCURVE",
"753 261 OFFCURVE",
"754 224 CURVE",
"755 219 OFFCURVE",
"759 217 OFFCURVE",
"767 217 CURVE SMOOTH",
"773 217 OFFCURVE",
"778 218 OFFCURVE",
"782 221 CURVE",
"789 308 OFFCURVE",
"797 372 OFFCURVE",
"808 413 CURVE",
"806 416 OFFCURVE",
"801 418 OFFCURVE",
"793 418 CURVE SMOOTH",
"785 418 OFFCURVE",
"780 416 OFFCURVE",
"778 411 CURVE",
"774 402 LINE SMOOTH",
"747 342 OFFCURVE",
"745 340 OFFCURVE",
"665 340 CURVE SMOOTH",
"632 340 LINE SMOOTH",
"611 340 OFFCURVE",
"601 342 OFFCURVE",
"601 346 CURVE SMOOTH",
"601 347 LINE",
"616 505 LINE SMOOTH",
"621 554 OFFCURVE",
"626 586 OFFCURVE",
"631 603 CURVE",
"634 612 OFFCURVE",
"661 616 OFFCURVE",
"713 616 CURVE SMOOTH",
"772 616 LINE SMOOTH",
"818 616 OFFCURVE",
"852 599 OFFCURVE",
"854 532 CURVE SMOOTH",
"854 527 OFFCURVE",
"858 525 OFFCURVE",
"866 525 CURVE SMOOTH",
"874 525 OFFCURVE",
"880 527 OFFCURVE",
"883 530 CURVE",
"884 546 OFFCURVE",
"885 569 OFFCURVE",
"888 599 CURVE",
"892 664 LINE",
"857 664 OFFCURVE",
"806 663 OFFCURVE",
"737 660 CURVE SMOOTH",
"668 657 OFFCURVE",
"620 656 OFFCURVE",
"592 656 CURVE SMOOTH",
"505 656 LINE",
"498 649 OFFCURVE",
"495 641 OFFCURVE",
"495 630 CURVE SMOOTH",
"495 627 OFFCURVE",
"496 625 OFFCURVE",
"498 625 CURVE SMOOTH",
"518 625 OFFCURVE",
"528 617 OFFCURVE",
"528 601 CURVE SMOOTH",
"528 596 OFFCURVE",
"526 591 OFFCURVE",
"523 586 CURVE",
"211 139 LINE SMOOTH",
"184 100 OFFCURVE",
"158 68 OFFCURVE",
"132 45 CURVE",
"120 33 OFFCURVE",
"85 24 OFFCURVE",
"72 24 CURVE SMOOTH",
"68 24 OFFCURVE",
"63 11 OFFCURVE",
"63 3 CURVE SMOOTH",
"63 0 OFFCURVE",
"63 -2 OFFCURVE",
"64 -3 CURVE",
"80 -2 OFFCURVE",
"142 2 OFFCURVE",
"160 2 CURVE",
"254 -3 LINE",
"260 7 OFFCURVE",
"263 15 OFFCURVE",
"263 22 CURVE SMOOTH",
"263 23 OFFCURVE",
"263 24 OFFCURVE",
"262 24 CURVE SMOOTH",
"247 24 OFFCURVE",
"211 37 OFFCURVE",
"211 50 CURVE SMOOTH",
"211 61 OFFCURVE",
"226 88 OFFCURVE",
"256 131 CURVE SMOOTH",
"365 290 LINE",
"367 292 OFFCURVE",
"369 293 OFFCURVE",
"371 293 CURVE",
"388 294 OFFCURVE",
"411 294 OFFCURVE",
"438 294 CURVE SMOOTH",
"506 293 LINE SMOOTH",
"510 293 OFFCURVE",
"512 290 OFFCURVE",
"512 285 CURVE",
"509 252 OFFCURVE",
"501 157 OFFCURVE",
"497 126 CURVE SMOOTH",
"485 34 OFFCURVE",
"482 46 OFFCURVE",
"404 31 CURVE",
"400 31 OFFCURVE",
"395 14 OFFCURVE",
"395 3 CURVE SMOOTH",
"395 0 OFFCURVE",
"395 -2 OFFCURVE",
"396 -3 CURVE",
"522 2 LINE",
"549 2 OFFCURVE",
"592 1 OFFCURVE",
"652 -1 CURVE SMOOTH",
"712 -3 OFFCURVE",
"760 -4 OFFCURVE",
"795 -4 CURVE"
);
},
{
closed = 1;
nodes = (
"431 339 OFFCURVE",
"414 339 OFFCURVE",
"401 340 CURVE",
"400 340 OFFCURVE",
"399 343 OFFCURVE",
"400 344 CURVE",
"540 547 LINE",
"519 346 LINE",
"513 341 LINE",
"500 340 OFFCURVE",
"480 339 OFFCURVE",
"454 339 CURVE SMOOTH"
);
}
);
width = 847;
},
{
layerId = "DEDDD934-E4FE-4A27-B966-8C21F8A9BC34";
paths = (
{
closed = 1;
nodes = (
"507 657 CURVE SMOOTH",
"546 657 OFFCURVE",
"756 663 OFFCURVE",
"811 664 CURVE",
"813 614 OFFCURVE",
"818 561 OFFCURVE",
"822 516 CURVE",
"819 513 OFFCURVE",
"807 511 OFFCURVE",
"800 511 CURVE SMOOTH",
"793 511 OFFCURVE",
"787 514 OFFCURVE",
"786 519 CURVE SMOOTH",
"772 574 OFFCURVE",
"753 620 OFFCURVE",
"696 620 CURVE SMOOTH",
"619 620 LINE SMOOTH",
"598 620 OFFCURVE",
"577 619 OFFCURVE",
"571 608 CURVE SMOOTH",
"565 596 OFFCURVE",
"563 576 OFFCURVE",
"560 547 CURVE SMOOTH",
"542 360 LINE SMOOTH",
"542 354 OFFCURVE",
"561 349 OFFCURVE",
"581 349 CURVE SMOOTH",
"630 349 LINE SMOOTH",
"685 349 OFFCURVE",
"699 361 OFFCURVE",
"720 419 CURVE SMOOTH",
"722 424 OFFCURVE",
"724 427 OFFCURVE",
"731 427 CURVE SMOOTH",
"738 427 OFFCURVE",
"746 425 OFFCURVE",
"748 422 CURVE",
"729 230 LINE",
"727 228 OFFCURVE",
"719 226 OFFCURVE",
"712 226 CURVE SMOOTH",
"705 226 OFFCURVE",
"700 229 OFFCURVE",
"700 234 CURVE SMOOTH",
"694 282 OFFCURVE",
"681 291 OFFCURVE",
"673 295 CURVE SMOOTH",
"663 300 OFFCURVE",
"639 302 OFFCURVE",
"604 302 CURVE SMOOTH",
"578 302 OFFCURVE",
"536 300 OFFCURVE",
"535 288 CURVE SMOOTH",
"519 141 LINE SMOOTH",
"518 135 OFFCURVE",
"513 82 OFFCURVE",
"519 62 CURVE SMOOTH",
"523 48 OFFCURVE",
"553 42 OFFCURVE",
"577 42 CURVE SMOOTH",
"639 42 LINE SMOOTH",
"674 42 OFFCURVE",
"705 52 OFFCURVE",
"729 75 CURVE SMOOTH",
"751 96 OFFCURVE",
"767 125 OFFCURVE",
"788 170 CURVE SMOOTH",
"790 174 OFFCURVE",
"795 176 OFFCURVE",
"802 176 CURVE SMOOTH",
"811 176 OFFCURVE",
"827 173 OFFCURVE",
"829 170 CURVE",
"806 116 OFFCURVE",
"773 42 OFFCURVE",
"762 -2 CURVE",
"736 -2 OFFCURVE",
"562 -2 OFFCURVE",
"436 -2 CURVE SMOOTH",
"372 -2 OFFCURVE",
"320 -3 OFFCURVE",
"308 -3 CURVE",
"304 3 OFFCURVE",
"306 27 OFFCURVE",
"311 34 CURVE",
"323 35 OFFCURVE",
"367 38 OFFCURVE",
"373 51 CURVE SMOOTH",
"382 71 OFFCURVE",
"385 102 OFFCURVE",
"389 145 CURVE SMOOTH",
"401 265 LINE SMOOTH",
"400 266 OFFCURVE",
"399 269 OFFCURVE",
"397 269 CURVE SMOOTH",
"362 271 OFFCURVE",
"340 270 OFFCURVE",
"317 270 CURVE SMOOTH",
"279 270 OFFCURVE",
"264 270 OFFCURVE",
"231 269 CURVE SMOOTH",
"228 269 OFFCURVE",
"223 266 OFFCURVE",
"222 264 CURVE SMOOTH",
"222 264 OFFCURVE",
"151 163 OFFCURVE",
"132 135 CURVE SMOOTH",
"116 110 OFFCURVE",
"95 74 OFFCURVE",
"93 67 CURVE SMOOTH",
"86 41 OFFCURVE",
"148 33 OFFCURVE",
"155 33 CURVE",
"158 26 OFFCURVE",
"156 0 OFFCURVE",
"152 -4 CURVE",
"120 0 OFFCURVE",
"81 4 OFFCURVE",
"40 4 CURVE SMOOTH",
"-3 4 OFFCURVE",
"-29 0 OFFCURVE",
"-62 -4 CURVE",
"-65 0 OFFCURVE",
"-68 21 OFFCURVE",
"-61 32 CURVE",
"-50 32 OFFCURVE",
"0 48 OFFCURVE",
"13 64 CURVE SMOOTH",
"37 92 OFFCURVE",
"45 106 OFFCURVE",
"65 134 CURVE SMOOTH",
"381 590 LINE SMOOTH",
"381 590 OFFCURVE",
"389 603 OFFCURVE",
"389 608 CURVE SMOOTH",
"389 618 OFFCURVE",
"370 623 OFFCURVE",
"364 623 CURVE",
"360 630 OFFCURVE",
"365 654 OFFCURVE",
"369 660 CURVE",
"410 657 OFFCURVE",
"468 657 OFFCURVE"
);
},
{
closed = 1;
nodes = (
"431 567 CURVE",
"260 325 LINE",
"260 325 OFFCURVE",
"260 321 OFFCURVE",
"262 321 CURVE SMOOTH",
"280 319 OFFCURVE",
"305 318 OFFCURVE",
"326 318 CURVE SMOOTH",
"355 318 OFFCURVE",
"373 318 OFFCURVE",
"402 320 CURVE SMOOTH",
"404 320 OFFCURVE",
"407 325 OFFCURVE",
"407 325 CURVE",
"427 513 LINE SMOOTH",
"429 534 OFFCURVE",
"430 552 OFFCURVE"
);
}
);
width = 864;
}
);
note = AE;
unicode = 00C6;
},
{
color = 3;
glyphname = B;
lastChange = "2018-06-05 09:43:46 +0000";
layers = (
{
background = {
paths = (
{
closed = 1;
nodes = (
"322 41 OFFCURVE",
"252 41 QCURVE SMOOTH",
"220 41 OFFCURVE",
"192 50 OFFCURVE",
"192 86 OFFCURVE",
"197 116 QCURVE SMOOTH",
"235 316 LINE SMOOTH",
"238 331 OFFCURVE",
"309 331 QCURVE SMOOTH",
"382 331 OFFCURVE",
"448 264 OFFCURVE",
"448 211 QCURVE SMOOTH",
"448 157 OFFCURVE",
"390 73 OFFCURVE",
"349 54 QCURVE SMOOTH"
);
},
{
closed = 1;
nodes = (
"438 364 LINE",
"445 367 OFFCURVE",
"468 380 OFFCURVE",
"494 399 OFFCURVE",
"522 427 OFFCURVE",
"544 459 OFFCURVE",
"558 504 OFFCURVE",
"558 528 QCURVE SMOOTH",
"558 563 OFFCURVE",
"526 616 OFFCURVE",
"475 644 OFFCURVE",
"420 657 OFFCURVE",
"392 657 QCURVE SMOOTH",
"368 657 OFFCURVE",
"308 656 OFFCURVE",
"261 656 QCURVE SMOOTH",
"200 656 OFFCURVE",
"154 658 QCURVE",
"147 651 OFFCURVE",
"147 635 QCURVE SMOOTH",
"147 631 OFFCURVE",
"149 631 QCURVE SMOOTH",
"160 631 OFFCURVE",
"205 614 OFFCURVE",
"205 607 QCURVE SMOOTH",
"205 571 OFFCURVE",
"194 514 QCURVE SMOOTH",
"122 142 LINE SMOOTH",
"110 78 OFFCURVE",
"96 49 QCURVE SMOOTH",
"92 40 OFFCURVE",
"43 26 OFFCURVE",
"31 26 QCURVE SMOOTH",
"24 26 OFFCURVE",
"24 6 QCURVE SMOOTH",
"24 -2 OFFCURVE",
"25 -3 QCURVE",
"135 0 LINE",
"262 0 LINE SMOOTH",
"389 0 OFFCURVE",
"538 133 OFFCURVE",
"538 215 QCURVE SMOOTH",
"538 272 OFFCURVE",
"462 356 OFFCURVE",
"432 361 QCURVE"
);
},
{
closed = 1;
nodes = (
"296 373 OFFCURVE",
"276 374 OFFCURVE",
"258 377 OFFCURVE",
"249 382 OFFCURVE",
"250 386 QCURVE",
"295 603 LINE",
"297 616 OFFCURVE",
"370 616 QCURVE SMOOTH",
"473 616 OFFCURVE",
"473 516 QCURVE SMOOTH",
"473 469 OFFCURVE",
"443 407 OFFCURVE",
"387 381 OFFCURVE",
"341 373 OFFCURVE",
"309 373 QCURVE SMOOTH"
);
}
);
};
layerId = "720C727D-0ED9-429E-914E-55EB9E513E33";
paths = (
{
closed = 1;
nodes = (
"135 0 LINE",
"262 0 LINE SMOOTH",
"431.333 0 OFFCURVE",
"538 105.667 OFFCURVE",
"538 215 CURVE SMOOTH",
"538 291 OFFCURVE",
"472 354.333 OFFCURVE",
"432 361 CURVE",
"438 364 LINE",
"453.357 370.582 OFFCURVE",
"486.269 391.269 OFFCURVE",
"508 413 CURVE SMOOTH",
"535.938 440.938 OFFCURVE",
"558 479.144 OFFCURVE",
"558 528 CURVE SMOOTH",
"558 618.91 OFFCURVE",
"473.749 657 OFFCURVE",
"392 657 CURVE SMOOTH",
"376 657 OFFCURVE",
"358 656.833 OFFCURVE",
"338 656.5 CURVE SMOOTH",
"318 656.167 OFFCURVE",
"292.333 656 OFFCURVE",
"261 656 CURVE SMOOTH",
"220.333 656 OFFCURVE",
"184.667 656.667 OFFCURVE",
"154 658 CURVE",
"149.333 653.333 OFFCURVE",
"147 645.667 OFFCURVE",
"147 635 CURVE SMOOTH",
"147 632.333 OFFCURVE",
"147.667 631 OFFCURVE",
"149 631 CURVE SMOOTH",
"163.667 631 OFFCURVE",
"205 616.333 OFFCURVE",
"205 607 CURVE SMOOTH",
"205 583 OFFCURVE",
"201.333 552 OFFCURVE",
"194 514 CURVE SMOOTH",
"122 142 LINE SMOOTH",
"114 99.333 OFFCURVE",
"105.333 68.333 OFFCURVE",
"96 49 CURVE SMOOTH",
"90.667 37 OFFCURVE",
"47 26 OFFCURVE",
"31 26 CURVE SMOOTH",
"26.333 26 OFFCURVE",
"24 19.333 OFFCURVE",
"24 6 CURVE SMOOTH",
"24 0.667 OFFCURVE",
"24.333 -2.333 OFFCURVE",
"25 -3 CURVE"
);
},
{
closed = 1;
nodes = (
"185.755 41 OFFCURVE",
"186.157 50.941 OFFCURVE",
"197 116 CURVE SMOOTH",
"235 316 LINE SMOOTH",
"237 326 OFFCURVE",
"261.667 331 OFFCURVE",
"309 331 CURVE SMOOTH",
"406.333 331 OFFCURVE",
"448 281.667 OFFCURVE",
"448 211 CURVE SMOOTH",
"448 139 OFFCURVE",
"403.667 79.333 OFFCURVE",
"349 54 CURVE SMOOTH",
"331 45.333 OFFCURVE",
"298.667 41 OFFCURVE",
"252 41 CURVE SMOOTH"
);
},
{
closed = 1;
nodes = (
"286.754 373 OFFCURVE",
"246.957 373.827 OFFCURVE",
"250 386 CURVE",
"295 603 LINE",
"296.333 611.667 OFFCURVE",
"321.333 616 OFFCURVE",
"370 616 CURVE SMOOTH",
"438.667 616 OFFCURVE",
"473 582.667 OFFCURVE",
"473 516 CURVE SMOOTH",
"473 397.089 OFFCURVE",
"399.35 373 OFFCURVE",
"309 373 CURVE SMOOTH"
);
}
);
width = 528;
},
{
associatedMasterId = "720C727D-0ED9-429E-914E-55EB9E513E33";
background = {
paths = (
{
closed = 1;
nodes = (
"322 41 OFFCURVE",
"252 41 QCURVE SMOOTH",
"220 41 OFFCURVE",
"192 50 OFFCURVE",
"192 86 OFFCURVE",
"197 116 QCURVE SMOOTH",
"235 316 LINE SMOOTH",
"238 331 OFFCURVE",
"309 331 QCURVE SMOOTH",
"382 331 OFFCURVE",
"448 264 OFFCURVE",
"448 211 QCURVE SMOOTH",
"448 157 OFFCURVE",
"390 73 OFFCURVE",
"349 54 QCURVE SMOOTH"
);
},
{
closed = 1;
nodes = (
"438 364 LINE",
"445 367 OFFCURVE",
"468 380 OFFCURVE",
"494 399 OFFCURVE",
"522 427 OFFCURVE",
"544 459 OFFCURVE",
"558 504 OFFCURVE",
"558 528 QCURVE SMOOTH",
"558 563 OFFCURVE",
"526 616 OFFCURVE",
"475 644 OFFCURVE",
"420 657 OFFCURVE",
"392 657 QCURVE SMOOTH",
"368 657 OFFCURVE",
"308 656 OFFCURVE",
"261 656 QCURVE SMOOTH",
"200 656 OFFCURVE",
"154 658 QCURVE",
"147 651 OFFCURVE",
"147 635 QCURVE SMOOTH",
"147 631 OFFCURVE",
"149 631 QCURVE SMOOTH",
"160 631 OFFCURVE",
"205 614 OFFCURVE",
"205 607 QCURVE SMOOTH",
"205 571 OFFCURVE",
"194 514 QCURVE SMOOTH",
"122 142 LINE SMOOTH",
"110 78 OFFCURVE",
"96 49 QCURVE SMOOTH",
"92 40 OFFCURVE",
"43 26 OFFCURVE",
"31 26 QCURVE SMOOTH",
"24 26 OFFCURVE",
"24 6 QCURVE SMOOTH",
"24 -2 OFFCURVE",
"25 -3 QCURVE",
"135 0 LINE",
"262 0 LINE SMOOTH",
"389 0 OFFCURVE",
"538 133 OFFCURVE",
"538 215 QCURVE SMOOTH",
"538 272 OFFCURVE",
"462 356 OFFCURVE",
"432 361 QCURVE"
);
},
{
closed = 1;
nodes = (
"296 373 OFFCURVE",
"276 374 OFFCURVE",
"258 377 OFFCURVE",
"249 382 OFFCURVE",
"250 386 QCURVE",
"295 603 LINE",
"297 616 OFFCURVE",
"370 616 QCURVE SMOOTH",
"473 616 OFFCURVE",
"473 516 QCURVE SMOOTH",
"473 469 OFFCURVE",
"443 407 OFFCURVE",
"387 381 OFFCURVE",
"341 373 OFFCURVE",
"309 373 QCURVE SMOOTH"
);
}
);
};
layerId = "773EE08B-1906-4AA2-AEE7-709F24B7EBE7";
name = "Mar 12 18, 15:56";
paths = (
{
closed = 1;
nodes = (
"331 45.333 OFFCURVE",
"298.667 41 OFFCURVE",
"252 41 CURVE SMOOTH",
"185.755 41 OFFCURVE",
"186.157 50.941 OFFCURVE",
"197 116 CURVE SMOOTH",
"235 316 LINE SMOOTH",
"237 326 OFFCURVE",
"261.667 331 OFFCURVE",
"309 331 CURVE SMOOTH",
"406.333 331 OFFCURVE",
"448 281.667 OFFCURVE",
"448 211 CURVE SMOOTH",
"448 139 OFFCURVE",
"403.667 79.333 OFFCURVE",
"349 54 CURVE SMOOTH"
);
},
{
closed = 1;
nodes = (
"438 364 LINE",
"453.357 370.582 OFFCURVE",
"486.269 391.269 OFFCURVE",
"508 413 CURVE SMOOTH",
"535.938 440.938 OFFCURVE",
"558 479.144 OFFCURVE",
"558 528 CURVE SMOOTH",
"558 618.91 OFFCURVE",
"473.749 657 OFFCURVE",
"392 657 CURVE SMOOTH",
"376 657 OFFCURVE",
"358 656.833 OFFCURVE",
"338 656.5 CURVE SMOOTH",
"318 656.167 OFFCURVE",
"292.333 656 OFFCURVE",
"261 656 CURVE SMOOTH",
"220.333 656 OFFCURVE",
"184.667 656.667 OFFCURVE",
"154 658 CURVE",
"149.333 653.333 OFFCURVE",
"147 645.667 OFFCURVE",
"147 635 CURVE SMOOTH",
"147 632.333 OFFCURVE",
"147.667 631 OFFCURVE",
"149 631 CURVE SMOOTH",
"163.667 631 OFFCURVE",
"205 616.333 OFFCURVE",
"205 607 CURVE SMOOTH",
"205 583 OFFCURVE",
"201.333 552 OFFCURVE",
"194 514 CURVE SMOOTH",
"122 142 LINE SMOOTH",
"114 99.333 OFFCURVE",
"105.333 68.333 OFFCURVE",
"96 49 CURVE SMOOTH",
"90.667 37 OFFCURVE",
"47 26 OFFCURVE",
"31 26 CURVE SMOOTH",
"26.333 26 OFFCURVE",
"24 19.333 OFFCURVE",
"24 6 CURVE SMOOTH",
"24 0.667 OFFCURVE",
"24.333 -2.333 OFFCURVE",
"25 -3 CURVE",
"135 0 LINE",
"262 0 LINE SMOOTH",
"431.333 0 OFFCURVE",
"538 105.667 OFFCURVE",
"538 215 CURVE SMOOTH",
"538 291 OFFCURVE",
"472 354.333 OFFCURVE",
"432 361 CURVE"
);
},
{
closed = 1;
nodes = (
"286.754 373 OFFCURVE",
"246.957 373.827 OFFCURVE",
"250 386 CURVE",
"295 603 LINE",
"296.333 611.667 OFFCURVE",
"321.333 616 OFFCURVE",
"370 616 CURVE SMOOTH",
"438.667 616 OFFCURVE",
"473 582.667 OFFCURVE",
"473 516 CURVE SMOOTH",
"473 397.089 OFFCURVE",
"399.35 373 OFFCURVE",
"309 373 CURVE SMOOTH"
);
}
);
width = 528;
},
{
associatedMasterId = "720C727D-0ED9-429E-914E-55EB9E513E33";
layerId = "41B2AEEE-AA4B-4BD1-A200-FCC01FA7A047";
name = "Mar 12 18, 16:00";
paths = (
{
closed = 1;
nodes = (
"263 607 OFFCURVE",
"271 620 QCURVE SMOOTH",
"276 630 OFFCURVE",
"320 630 QCURVE SMOOTH",
"380 630 OFFCURVE",
"433 569 OFFCURVE",
"433 522 QCURVE SMOOTH",
"433 459 OFFCURVE",
"363 370 OFFCURVE",
"312 370 QCURVE SMOOTH",
"218 370 LINE",
"252 545 LINE SMOOTH"
);
},
{
closed = 1;
nodes = (
"298 339 OFFCURVE",
"345 329 OFFCURVE",
"374 314 OFFCURVE",
"394 289 OFFCURVE",
"404 271 OFFCURVE",
"409 242 OFFCURVE",
"409 231 OFFCURVE",
"409 220 QCURVE SMOOTH",
"409 129 OFFCURVE",
"311 26 OFFCURVE",
"232 26 QCURVE SMOOTH",
"201 26 OFFCURVE",
"169 32 OFFCURVE",
"162 43 QCURVE",
"159 53 OFFCURVE",
"164 99 OFFCURVE",
"167 114 QCURVE SMOOTH",
"212 339 LINE",
"269 339 LINE SMOOTH"
);
},
{
closed = 1;
nodes = (
"120 659 OFFCURVE",
"117 637 OFFCURVE",
"120 633 QCURVE",
"135 633 OFFCURVE",
"180 625 OFFCURVE",
"181 617 QCURVE",
"181 597 OFFCURVE",
"171 543 QCURVE SMOOTH",
"88 116 LINE SMOOTH",
"76 56 OFFCURVE",
"69 42 QCURVE",
"66 35 OFFCURVE",
"16 26 OFFCURVE",
"2 26 QCURVE",
"-3 22 OFFCURVE",
"-8 1 OFFCURVE",
"-5 -3 QCURVE",
"210 -3 LINE SMOOTH",
"337 -3 OFFCURVE",
"504 125 OFFCURVE",
"504 226 QCURVE SMOOTH",
"504 284 OFFCURVE",
"439 363 OFFCURVE",
"401 366 QCURVE",
"521 429 OFFCURVE",
"521 537 QCURVE SMOOTH",
"521 598 OFFCURVE",
"434 659 OFFCURVE",
"366 659 QCURVE SMOOTH",
"336 659 OFFCURVE",
"249 657 OFFCURVE",
"234 657 QCURVE SMOOTH",
"220 657 OFFCURVE",
"125 662 QCURVE"
);
}
);
width = 566;
},
{
layerId = "DEDDD934-E4FE-4A27-B966-8C21F8A9BC34";
paths = (
{
closed = 1;
nodes = (
"262 371 LINE",
"310 371 LINE SMOOTH",
"356 371 OFFCURVE",
"397 412 OFFCURVE",
"412 487 CURVE SMOOTH",
"430 582 OFFCURVE",
"408 620 OFFCURVE",
"361 620 CURVE SMOOTH",
"340 620 OFFCURVE",
"319 619 OFFCURVE",
"312 608 CURVE SMOOTH",
"305 596 OFFCURVE",
"302 576 OFFCURVE",
"296 547 CURVE SMOOTH"
);
},
{
closed = 1;
nodes = (
"254 332 LINE",
"211 109 LINE SMOOTH",
"210 103 OFFCURVE",
"202 63 OFFCURVE",
"207 51 CURVE SMOOTH",
"212 40 OFFCURVE",
"239 39 OFFCURVE",
"263 39 CURVE SMOOTH",
"306 39 OFFCURVE",
"368 73 OFFCURVE",
"388 176 CURVE SMOOTH",
"403 251 OFFCURVE",
"390 332 OFFCURVE",
"302 332 CURVE SMOOTH"
);
},
{
closed = 1;
nodes = (
"396 660 CURVE SMOOTH",
"482 660 OFFCURVE",
"576 618 OFFCURVE",
"553 502 CURVE SMOOTH",
"537 422 OFFCURVE",
"453 376 OFFCURVE",
"426 366 CURVE SMOOTH",
"418 363 OFFCURVE",
"419 360 OFFCURVE",
"420 360 CURVE SMOOTH",
"465 354 OFFCURVE",
"557 296 OFFCURVE",
"537 192 CURVE SMOOTH",
"524 126 OFFCURVE",
"473 67 OFFCURVE",
"408 30 CURVE SMOOTH",
"346 -5 OFFCURVE",
"277 -4 OFFCURVE",
"208 -3 CURVE SMOOTH",
"169 -3 OFFCURVE",
"28 -2 OFFCURVE",
"-8 -3 CURVE",
"-11 3 OFFCURVE",
"-7 27 OFFCURVE",
"-1 34 CURVE",
"11 35 OFFCURVE",
"55 38 OFFCURVE",
"62 51 CURVE SMOOTH",
"73 71 OFFCURVE",
"79 102 OFFCURVE",
"87 145 CURVE SMOOTH",
"159 513 LINE SMOOTH",
"167 556 OFFCURVE",
"174 587 OFFCURVE",
"170 607 CURVE SMOOTH",
"168 620 OFFCURVE",
"125 622 OFFCURVE",
"113 623 CURVE",
"110 630 OFFCURVE",
"116 654 OFFCURVE",
"121 660 CURVE",
"162 657 OFFCURVE",
"214 657 OFFCURVE",
"253 657 CURVE SMOOTH",
"292 657 OFFCURVE",
"342 660 OFFCURVE"
);
}
);
width = 589;
}
);
note = B;
unicode = 0042;
},
{
color = 3;
glyphname = C;
lastChange = "2018-06-05 09:43:46 +0000";
layers = (
{
background = {
paths = (
{
closed = 1;
nodes = (
"60 157 OFFCURVE",
"202 -6 OFFCURVE",
"321 -6 QCURVE SMOOTH",
"385 -6 OFFCURVE",
"511 20 OFFCURVE",
"526 37 QCURVE",
"531 42 OFFCURVE",
"576 128 QCURVE",
"577 132 OFFCURVE",
"559 153 OFFCURVE",
"556 153 QCURVE SMOOTH",
"555 153 OFFCURVE",
"538 127 OFFCURVE",
"501 85 OFFCURVE",
"476 70 QCURVE SMOOTH",
"424 37 OFFCURVE",
"350 37 QCURVE SMOOTH",
"255 37 OFFCURVE",
"151 163 OFFCURVE",
"151 259 QCURVE SMOOTH",
"151 405 OFFCURVE",
"329 625 OFFCURVE",
"432 625 QCURVE SMOOTH",
"478 625 OFFCURVE",
"544 601 OFFCURVE",
"575 571 OFFCURVE",
"593 525 OFFCURVE",
"595 501 OFFCURVE",
"595 486 QCURVE",
"598 483 OFFCURVE",
"606 483 QCURVE SMOOTH",
"627 483 OFFCURVE",
"630 498 QCURVE SMOOTH",
"632 508 OFFCURVE",
"650 622 QCURVE",
"505 667 OFFCURVE",
"437 667 QCURVE SMOOTH",
"360 667 OFFCURVE",
"217 592 OFFCURVE",
"119 475 OFFCURVE",
"60 333 OFFCURVE",
"60 267 QCURVE SMOOTH"
);
}
);
};
layerId = "720C727D-0ED9-429E-914E-55EB9E513E33";
paths = (
{
closed = 1;
nodes = (
"406.333 -6 OFFCURVE",
"506 14.333 OFFCURVE",
"526 37 CURVE",
"529.333 40.333 OFFCURVE",
"546 70.667 OFFCURVE",
"576 128 CURVE",
"577.333 133.333 OFFCURVE",
"560 153 OFFCURVE",
"556 153 CURVE SMOOTH",
"554.542 153 OFFCURVE",
"498.896 83.738 OFFCURVE",
"476 70 CURVE SMOOTH",
"441.333 48 OFFCURVE",
"399.333 37 OFFCURVE",
"350 37 CURVE SMOOTH",
"223.333 37 OFFCURVE",
"151 131 OFFCURVE",
"151 259 CURVE SMOOTH",
"151 453.667 OFFCURVE",
"294.667 625 OFFCURVE",
"432 625 CURVE SMOOTH",
"493.333 625 OFFCURVE",
"538.833 606 OFFCURVE",
"559.5 586 CURVE SMOOTH",
"580.167 566 OFFCURVE",
"592.333 538 OFFCURVE",
"595 486 CURVE",
"597 484 OFFCURVE",
"600.667 483 OFFCURVE",
"606 483 CURVE SMOOTH",
"620 483 OFFCURVE",
"628 488 OFFCURVE",
"630 498 CURVE SMOOTH",
"631.333 504.667 OFFCURVE",
"638 546 OFFCURVE",
"650 622 CURVE",
"553.333 652 OFFCURVE",
"482.333 667 OFFCURVE",
"437 667 CURVE SMOOTH",
"334.333 667 OFFCURVE",
"233.333 611.5 OFFCURVE",
"168 533.5 CURVE SMOOTH",
"102.667 455.5 OFFCURVE",
"60 355 OFFCURVE",
"60 267 CURVE SMOOTH",
"60 120.333 OFFCURVE",
"162.333 -6 OFFCURVE",
"321 -6 CURVE SMOOTH"
);
}
);
width = 580;
},
{
associatedMasterId = "720C727D-0ED9-429E-914E-55EB9E513E33";
background = {
paths = (
{
closed = 1;
nodes = (
"60 157 OFFCURVE",
"202 -6 OFFCURVE",
"321 -6 QCURVE SMOOTH",
"385 -6 OFFCURVE",
"511 20 OFFCURVE",
"526 37 QCURVE",
"531 42 OFFCURVE",
"576 128 QCURVE",
"577 132 OFFCURVE",
"559 153 OFFCURVE",
"556 153 QCURVE SMOOTH",
"555 153 OFFCURVE",
"538 127 OFFCURVE",
"501 85 OFFCURVE",
"476 70 QCURVE SMOOTH",
"424 37 OFFCURVE",
"350 37 QCURVE SMOOTH",
"255 37 OFFCURVE",
"151 163 OFFCURVE",
"151 259 QCURVE SMOOTH",
"151 405 OFFCURVE",
"329 625 OFFCURVE",
"432 625 QCURVE SMOOTH",
"478 625 OFFCURVE",
"544 601 OFFCURVE",
"575 571 OFFCURVE",
"593 525 OFFCURVE",
"595 501 OFFCURVE",
"595 486 QCURVE",
"598 483 OFFCURVE",
"606 483 QCURVE SMOOTH",
"627 483 OFFCURVE",
"630 498 QCURVE SMOOTH",
"632 508 OFFCURVE",
"650 622 QCURVE",
"505 667 OFFCURVE",
"437 667 QCURVE SMOOTH",
"360 667 OFFCURVE",
"217 592 OFFCURVE",
"119 475 OFFCURVE",
"60 333 OFFCURVE",
"60 267 QCURVE SMOOTH"
);
}
);
};
layerId = "A7F183F9-A6D8-4866-BDDE-6D207E0CAEB3";
name = "Mar 12 18, 15:56";
paths = (
{
closed = 1;
nodes = (
"60 120.333 OFFCURVE",
"162.333 -6 OFFCURVE",
"321 -6 CURVE SMOOTH",
"406.333 -6 OFFCURVE",
"506 14.333 OFFCURVE",
"526 37 CURVE",
"529.333 40.333 OFFCURVE",
"546 70.667 OFFCURVE",
"576 128 CURVE",
"577.333 133.333 OFFCURVE",
"560 153 OFFCURVE",
"556 153 CURVE SMOOTH",
"554.542 153 OFFCURVE",
"498.896 83.738 OFFCURVE",
"476 70 CURVE SMOOTH",
"441.333 48 OFFCURVE",
"399.333 37 OFFCURVE",
"350 37 CURVE SMOOTH",
"223.333 37 OFFCURVE",
"151 131 OFFCURVE",
"151 259 CURVE SMOOTH",
"151 453.667 OFFCURVE",
"294.667 625 OFFCURVE",
"432 625 CURVE SMOOTH",
"493.333 625 OFFCURVE",
"538.833 606 OFFCURVE",
"559.5 586 CURVE SMOOTH",
"580.167 566 OFFCURVE",
"592.333 538 OFFCURVE",
"595 486 CURVE",
"597 484 OFFCURVE",
"600.667 483 OFFCURVE",
"606 483 CURVE SMOOTH",
"620 483 OFFCURVE",
"628 488 OFFCURVE",
"630 498 CURVE SMOOTH",
"631.333 504.667 OFFCURVE",
"638 546 OFFCURVE",
"650 622 CURVE",
"553.333 652 OFFCURVE",
"482.333 667 OFFCURVE",
"437 667 CURVE SMOOTH",
"334.333 667 OFFCURVE",
"233.333 611.5 OFFCURVE",
"168 533.5 CURVE SMOOTH",
"102.667 455.5 OFFCURVE",
"60 355 OFFCURVE",
"60 267 CURVE SMOOTH"
);
}
);
width = 580;
},
{
associatedMasterId = "720C727D-0ED9-429E-914E-55EB9E513E33";
layerId = "A7BA2837-EDA6-44E9-9EA4-230C3FC3C129";
name = "Mar 12 18, 16:00";
paths = (
{
closed = 1;
nodes = (
"315 21 OFFCURVE",
"244 53 OFFCURVE",
"199 105 OFFCURVE",
"168 174 OFFCURVE",
"154 245 OFFCURVE",
"154 282 QCURVE SMOOTH",
"154 362 OFFCURVE",
"198 496 OFFCURVE",
"275 585 OFFCURVE",
"378 635 OFFCURVE",
"436 635 QCURVE SMOOTH",
"500 635 OFFCURVE",
"589 553 OFFCURVE",
"585 494 QCURVE",
"595 489 OFFCURVE",
"608 489 QCURVE SMOOTH",
"615 489 OFFCURVE",
"616 494 QCURVE",
"620 531 OFFCURVE",
"626 640 QCURVE",
"524 665 OFFCURVE",
"465 666 QCURVE SMOOTH",
"403 667 OFFCURVE",
"284 634 OFFCURVE",
"181 565 OFFCURVE",
"104 469 OFFCURVE",
"59 339 OFFCURVE",
"59 265 QCURVE SMOOTH",
"59 191 OFFCURVE",
"126 67 OFFCURVE",
"251 -8 OFFCURVE",
"330 -8 QCURVE SMOOTH",
"397 -8 OFFCURVE",
"486 8 OFFCURVE",
"525 28 QCURVE",
"536 37 OFFCURVE",
"594 149 OFFCURVE",
"597 165 QCURVE",
"593 167 LINE SMOOTH",
"589 169 OFFCURVE",
"575 173 OFFCURVE",
"569 173 QCURVE",
"490 21 OFFCURVE",
"358 21 QCURVE SMOOTH"
);
}
);
width = 645;
},
{
layerId = "DEDDD934-E4FE-4A27-B966-8C21F8A9BC34";
paths = (
{
closed = 1;
nodes = (
"443 624 CURVE SMOOTH",
"312 624 OFFCURVE",
"196 478 OFFCURVE",
"196 268 CURVE SMOOTH",
"196 176 OFFCURVE",
"234 37 OFFCURVE",
"365 37 CURVE SMOOTH",
"412 37 OFFCURVE",
"455 55 OFFCURVE",
"485 80 CURVE SMOOTH",
"531 118 OFFCURVE",
"571 196 OFFCURVE",
"574 204 CURVE",
"588 204 OFFCURVE",
"599 199 OFFCURVE",
"605 192 CURVE",
"603 181 OFFCURVE",
"551 48 OFFCURVE",
"537 40 CURVE SMOOTH",
"481 9 OFFCURVE",
"423 -7 OFFCURVE",
"337 -7 CURVE SMOOTH",
"142 -7 OFFCURVE",
"52 142 OFFCURVE",
"52 276 CURVE SMOOTH",
"52 526 OFFCURVE",
"266 667 OFFCURVE",
"443 667 CURVE SMOOTH",
"504 667 OFFCURVE",
"585 650 OFFCURVE",
"638 638 CURVE",
"638 627 OFFCURVE",
"627 506 OFFCURVE",
"625 494 CURVE SMOOTH",
"624 488 OFFCURVE",
"614 480 OFFCURVE",
"603 480 CURVE SMOOTH",
"598 480 OFFCURVE",
"594 480 OFFCURVE",
"591 484 CURVE",
"589 523 OFFCURVE",
"561 624 OFFCURVE"
);
}
);
width = 646;
}
);
note = C;
unicode = 0043;
},
{
color = 3;
glyphname = D;
lastChange = "2018-06-05 09:43:46 +0000";
layers = (
{
background = {
paths = (
{
closed = 1;
nodes = (
"200 656 OFFCURVE",
"154 658 QCURVE",
"147 651 OFFCURVE",
"147 635 QCURVE SMOOTH",
"147 631 OFFCURVE",
"149 631 QCURVE SMOOTH",
"160 631 OFFCURVE",
"204 615 OFFCURVE",
"205 607 QCURVE SMOOTH",
"207 585 OFFCURVE",
"194 514 QCURVE SMOOTH",
"122 142 LINE SMOOTH",
"110 78 OFFCURVE",
"96 49 QCURVE SMOOTH",
"92 40 OFFCURVE",
"40 24 OFFCURVE",
"29 24 QCURVE SMOOTH",
"24 24 OFFCURVE",
"24 5 QCURVE SMOOTH",
"24 -2 OFFCURVE",
"25 -3 QCURVE",
"136 2 LINE",
"170 2 OFFCURVE",
"276 -3 OFFCURVE",
"294 -3 QCURVE SMOOTH",
"371 -3 OFFCURVE",
"503 50 OFFCURVE",
"593 136 OFFCURVE",
"658 244 OFFCURVE",
"688 354 OFFCURVE",
"688 405 QCURVE SMOOTH",
"688 514 OFFCURVE",
"554 658 OFFCURVE",
"424 658 QCURVE SMOOTH",
"406 658 OFFCURVE",
"296 656 OFFCURVE",
"261 656 QCURVE SMOOTH"
);
},
{
closed = 1;
nodes = (
"600 320 OFFCURVE",
"533 152 OFFCURVE",
"401 43 OFFCURVE",
"317 43 QCURVE SMOOTH",
"210 43 OFFCURVE",
"201 63 QCURVE",
"199 68 OFFCURVE",
"199 125 OFFCURVE",
"202 139 QCURVE SMOOTH",
"275 519 LINE SMOOTH",
"286 578 OFFCURVE",
"302 598 QCURVE SMOOTH",
"315 614 OFFCURVE",
"422 614 QCURVE SMOOTH",
"512 614 OFFCURVE",
"600 502 OFFCURVE",
"600 414 QCURVE SMOOTH"
);
}
);
};
layerId = "720C727D-0ED9-429E-914E-55EB9E513E33";
paths = (
{
closed = 1;
nodes = (
"136 2 LINE",
"158.667 2 OFFCURVE",
"187.667 1.167 OFFCURVE",
"223 -0.5 CURVE SMOOTH",
"258.333 -2.167 OFFCURVE",
"282 -3 OFFCURVE",
"294 -3 CURVE SMOOTH",
"396.667 -3 OFFCURVE",
"488 35.667 OFFCURVE",
"548 93 CURVE SMOOTH",
"578 121.667 OFFCURVE",
"603.833 154 OFFCURVE",
"625.5 190 CURVE SMOOTH",
"647.167 226 OFFCURVE",
"668 297.667 OFFCURVE",
"688 405 CURVE",
"688 550.333 OFFCURVE",
"597.333 658 OFFCURVE",
"424 658 CURVE SMOOTH",
"412 658 OFFCURVE",
"387.667 657.667 OFFCURVE",
"351 657 CURVE SMOOTH",
"314.333 656.333 OFFCURVE",
"284.333 656 OFFCURVE",
"261 656 CURVE SMOOTH",
"220.333 656 OFFCURVE",
"184.667 656.667 OFFCURVE",
"154 658 CURVE",
"149.333 653.333 OFFCURVE",
"147 645.667 OFFCURVE",
"147 635 CURVE SMOOTH",
"147 632.333 OFFCURVE",
"147.667 631 OFFCURVE",
"149 631 CURVE SMOOTH",
"163.667 631 OFFCURVE",
"203.667 617.667 OFFCURVE",
"205 607 CURVE SMOOTH",
"206.333 592.333 OFFCURVE",
"202.667 561.333 OFFCURVE",
"194 514 CURVE SMOOTH",
"122 142 LINE SMOOTH",
"114 99.333 OFFCURVE",
"105.333 68.333 OFFCURVE",
"96 49 CURVE SMOOTH",
"90.667 37 OFFCURVE",
"43.667 24 OFFCURVE",
"29 24 CURVE SMOOTH",
"25.667 24 OFFCURVE",
"24 17.667 OFFCURVE",
"24 5 CURVE SMOOTH",
"24 0.333 OFFCURVE",
"24.333 -2.333 OFFCURVE",
"25 -3 CURVE"
);
},
{
closed = 1;
nodes = (
"245.667 43 OFFCURVE",
"207 49.667 OFFCURVE",
"201 63 CURVE",
"199.667 66.333 OFFCURVE",
"199 77.5 OFFCURVE",
"199 96.5 CURVE SMOOTH",
"199 115.5 OFFCURVE",
"200 129.667 OFFCURVE",
"202 139 CURVE SMOOTH",
"275 519 LINE SMOOTH",
"282.333 558.333 OFFCURVE",
"291.333 584.667 OFFCURVE",
"302 598 CURVE SMOOTH",
"310.667 608.667 OFFCURVE",
"350.667 614 OFFCURVE",
"422 614 CURVE SMOOTH",
"542 614 OFFCURVE",
"600 531.333 OFFCURVE",
"600 414 CURVE SMOOTH",
"600 288.667 OFFCURVE",
"555 170.167 OFFCURVE",
"467 97.5 CURVE SMOOTH",
"423 61.167 OFFCURVE",
"373 43 OFFCURVE",
"317 43 CURVE SMOOTH"
);
}
);
width = 668;
},
{
associatedMasterId = "720C727D-0ED9-429E-914E-55EB9E513E33";
background = {
paths = (
{
closed = 1;
nodes = (
"200 656 OFFCURVE",
"154 658 QCURVE",
"147 651 OFFCURVE",
"147 635 QCURVE SMOOTH",
"147 631 OFFCURVE",
"149 631 QCURVE SMOOTH",
"160 631 OFFCURVE",
"204 615 OFFCURVE",
"205 607 QCURVE SMOOTH",
"207 585 OFFCURVE",
"194 514 QCURVE SMOOTH",
"122 142 LINE SMOOTH",
"110 78 OFFCURVE",
"96 49 QCURVE SMOOTH",
"92 40 OFFCURVE",
"40 24 OFFCURVE",
"29 24 QCURVE SMOOTH",
"24 24 OFFCURVE",
"24 5 QCURVE SMOOTH",
"24 -2 OFFCURVE",
"25 -3 QCURVE",
"136 2 LINE",
"170 2 OFFCURVE",
"276 -3 OFFCURVE",
"294 -3 QCURVE SMOOTH",
"371 -3 OFFCURVE",
"503 50 OFFCURVE",
"593 136 OFFCURVE",
"658 244 OFFCURVE",
"688 354 OFFCURVE",
"688 405 QCURVE SMOOTH",
"688 514 OFFCURVE",
"554 658 OFFCURVE",
"424 658 QCURVE SMOOTH",
"406 658 OFFCURVE",
"296 656 OFFCURVE",
"261 656 QCURVE SMOOTH"
);
},
{
closed = 1;
nodes = (
"600 320 OFFCURVE",
"533 152 OFFCURVE",
"401 43 OFFCURVE",
"317 43 QCURVE SMOOTH",
"210 43 OFFCURVE",
"201 63 QCURVE",
"199 68 OFFCURVE",
"199 125 OFFCURVE",
"202 139 QCURVE SMOOTH",
"275 519 LINE SMOOTH",
"286 578 OFFCURVE",
"302 598 QCURVE SMOOTH",
"315 614 OFFCURVE",
"422 614 QCURVE SMOOTH",
"512 614 OFFCURVE",
"600 502 OFFCURVE",
"600 414 QCURVE SMOOTH"
);
}
);
};
layerId = "99856A1F-3829-4DDA-BB11-78178C7FAE79";
name = "Mar 12 18, 15:56";
paths = (
{
closed = 1;
nodes = (
"220.333 656 OFFCURVE",
"184.667 656.667 OFFCURVE",
"154 658 CURVE",
"149.333 653.333 OFFCURVE",
"147 645.667 OFFCURVE",
"147 635 CURVE SMOOTH",
"147 632.333 OFFCURVE",
"147.667 631 OFFCURVE",
"149 631 CURVE SMOOTH",
"163.667 631 OFFCURVE",
"203.667 617.667 OFFCURVE",
"205 607 CURVE SMOOTH",
"206.333 592.333 OFFCURVE",
"202.667 561.333 OFFCURVE",
"194 514 CURVE SMOOTH",
"122 142 LINE SMOOTH",
"114 99.333 OFFCURVE",
"105.333 68.333 OFFCURVE",
"96 49 CURVE SMOOTH",
"90.667 37 OFFCURVE",
"43.667 24 OFFCURVE",
"29 24 CURVE SMOOTH",
"25.667 24 OFFCURVE",
"24 17.667 OFFCURVE",
"24 5 CURVE SMOOTH",
"24 0.333 OFFCURVE",
"24.333 -2.333 OFFCURVE",
"25 -3 CURVE",
"136 2 LINE",
"158.667 2 OFFCURVE",
"187.667 1.167 OFFCURVE",
"223 -0.5 CURVE SMOOTH",
"258.333 -2.167 OFFCURVE",
"282 -3 OFFCURVE",
"294 -3 CURVE SMOOTH",
"396.667 -3 OFFCURVE",
"488 35.667 OFFCURVE",
"548 93 CURVE SMOOTH",
"578 121.667 OFFCURVE",
"603.833 154 OFFCURVE",
"625.5 190 CURVE SMOOTH",
"647.167 226 OFFCURVE",
"668 297.667 OFFCURVE",
"688 405 CURVE",
"688 550.333 OFFCURVE",
"597.333 658 OFFCURVE",
"424 658 CURVE SMOOTH",
"412 658 OFFCURVE",
"387.667 657.667 OFFCURVE",
"351 657 CURVE SMOOTH",
"314.333 656.333 OFFCURVE",
"284.333 656 OFFCURVE",
"261 656 CURVE SMOOTH"
);
},
{
closed = 1;
nodes = (
"600 288.667 OFFCURVE",
"555 170.167 OFFCURVE",
"467 97.5 CURVE SMOOTH",
"423 61.167 OFFCURVE",
"373 43 OFFCURVE",
"317 43 CURVE SMOOTH",
"245.667 43 OFFCURVE",
"207 49.667 OFFCURVE",
"201 63 CURVE",
"199.667 66.333 OFFCURVE",
"199 77.5 OFFCURVE",
"199 96.5 CURVE SMOOTH",
"199 115.5 OFFCURVE",
"200 129.667 OFFCURVE",
"202 139 CURVE SMOOTH",
"275 519 LINE SMOOTH",
"282.333 558.333 OFFCURVE",
"291.333 584.667 OFFCURVE",
"302 598 CURVE SMOOTH",
"310.667 608.667 OFFCURVE",
"350.667 614 OFFCURVE",
"422 614 CURVE SMOOTH",
"542 614 OFFCURVE",
"600 531.333 OFFCURVE",
"600 414 CURVE SMOOTH"
);
}
);
width = 668;
},
{
associatedMasterId = "720C727D-0ED9-429E-914E-55EB9E513E33";
layerId = "E9BD32DC-8E97-4407-A4B5-F7210604E8DB";
name = "Mar 12 18, 16:00";
paths = (
{
closed = 1;
nodes = (
"277 631 OFFCURVE",
"338 631 QCURVE SMOOTH",
"397 631 OFFCURVE",
"487 595 OFFCURVE",
"549 519 OFFCURVE",
"565 398 OFFCURVE",
"550 313 QCURVE SMOOTH",
"536 242 OFFCURVE",
"473 131 OFFCURVE",
"387 62 OFFCURVE",
"287 26 OFFCURVE",
"232 26 QCURVE SMOOTH",
"166 26 OFFCURVE",
"159 40 QCURVE SMOOTH",
"157 44 OFFCURVE",
"164 98 OFFCURVE",
"167 112 QCURVE SMOOTH",
"252 546 LINE SMOOTH",
"263 604 OFFCURVE",
"271 620 QCURVE SMOOTH"
);
},
{
closed = 1;
nodes = (
"220 657 OFFCURVE",
"125 662 QCURVE",
"120 659 OFFCURVE",
"117 637 OFFCURVE",
"120 633 QCURVE",
"134 633 OFFCURVE",
"180 624 OFFCURVE",
"181 617 QCURVE",
"183 602 OFFCURVE",
"171 543 QCURVE SMOOTH",
"88 116 LINE SMOOTH",
"76 56 OFFCURVE",
"69 42 QCURVE",
"66 35 OFFCURVE",
"16 26 OFFCURVE",
"2 26 QCURVE",
"-3 22 OFFCURVE",
"-8 1 OFFCURVE",
"-5 -3 QCURVE",
"229 -3 LINE SMOOTH",
"307 -3 OFFCURVE",
"438 36 OFFCURVE",
"529 99 OFFCURVE",
"597 187 OFFCURVE",
"635 281 OFFCURVE",
"646 334 QCURVE SMOOTH",
"655 390 OFFCURVE",
"647 488 OFFCURVE",
"604 569 OFFCURVE",
"535 626 OFFCURVE",
"432 658 OFFCURVE",
"369 658 QCURVE SMOOTH",
"348 658 OFFCURVE",
"251 657 OFFCURVE",
"234 657 QCURVE SMOOTH"
);
}
);
width = 684;
},
{
layerId = "DEDDD934-E4FE-4A27-B966-8C21F8A9BC34";
paths = (
{
closed = 1;
nodes = (
"296 547 CURVE SMOOTH",
"217 141 LINE SMOOTH",
"216 135 OFFCURVE",
"205 82 OFFCURVE",
"209 62 CURVE SMOOTH",
"212 48 OFFCURVE",
"239 39 OFFCURVE",
"263 39 CURVE SMOOTH",
"415 39 OFFCURVE",
"500 119 OFFCURVE",
"538 314 CURVE SMOOTH",
"576 510 OFFCURVE",
"499 620 OFFCURVE",
"361 620 CURVE SMOOTH",
"340 620 OFFCURVE",
"319 619 OFFCURVE",
"312 608 CURVE SMOOTH",
"305 596 OFFCURVE",
"302 576 OFFCURVE"
);
},
{
closed = 1;
nodes = (
"396 660 CURVE SMOOTH",
"611 660 OFFCURVE",
"726 522 OFFCURVE",
"686 317 CURVE SMOOTH",
"641 83 OFFCURVE",
"461 -3 OFFCURVE",
"260 -3 CURVE SMOOTH",
"221 -3 OFFCURVE",
"28 -2 OFFCURVE",
"-8 -3 CURVE",
"-11 3 OFFCURVE",
"-7 27 OFFCURVE",
"-1 34 CURVE",
"11 35 OFFCURVE",
"55 38 OFFCURVE",
"62 51 CURVE SMOOTH",
"73 71 OFFCURVE",
"79 102 OFFCURVE",
"87 145 CURVE SMOOTH",
"159 513 LINE SMOOTH",
"167 556 OFFCURVE",
"174 587 OFFCURVE",
"170 607 CURVE SMOOTH",
"168 620 OFFCURVE",
"125 622 OFFCURVE",
"113 623 CURVE",
"110 630 OFFCURVE",
"116 654 OFFCURVE",
"121 660 CURVE",
"162 657 OFFCURVE",
"214 657 OFFCURVE",
"253 657 CURVE SMOOTH",
"292 657 OFFCURVE",
"341 659 OFFCURVE"
);
}
);
width = 720;
}
);
note = D;
unicode = 0044;
},
{
color = 3;
glyphname = Eth;
lastChange = "2018-06-05 09:43:46 +0000";
layers = (
{
layerId = "720C727D-0ED9-429E-914E-55EB9E513E33";
paths = (
{
closed = 1;
nodes = (
"35 3 LINE",
"54 6 OFFCURVE",
"96 7 OFFCURVE",
"132 7 CURVE SMOOTH",
"155 7 OFFCURVE",
"184 6 OFFCURVE",
"219 5 CURVE SMOOTH",
"254 3 OFFCURVE",
"278 2 OFFCURVE",
"290 2 CURVE SMOOTH",
"393 2 OFFCURVE",
"484 41 OFFCURVE",
"544 98 CURVE SMOOTH",
"574 127 OFFCURVE",
"600 159 OFFCURVE",
"622 195 CURVE SMOOTH",
"643 231 OFFCURVE",
"664 303 OFFCURVE",
"684 410 CURVE",
"684 479 OFFCURVE",
"664 539 OFFCURVE",
"622 587 CURVE SMOOTH",
"580 634 OFFCURVE",
"509 663 OFFCURVE",
"420 663 CURVE SMOOTH",
"408 663 OFFCURVE",
"384 663 OFFCURVE",
"347 662 CURVE SMOOTH",
"310 661 OFFCURVE",
"280 661 OFFCURVE",
"257 661 CURVE SMOOTH",
"216 661 OFFCURVE",
"181 662 OFFCURVE",
"150 663 CURVE",
"145 658 OFFCURVE",
"143 651 OFFCURVE",
"143 640 CURVE SMOOTH",
"143 637 OFFCURVE",
"144 636 OFFCURVE",
"145 636 CURVE SMOOTH",
"160 636 OFFCURVE",
"200 623 OFFCURVE",
"201 612 CURVE SMOOTH",
"202 598 OFFCURVE",
"199 567 OFFCURVE",
"190 519 CURVE SMOOTH",
"158 353 LINE",
"101 353 LINE",
"97 347 OFFCURVE",
"95 338 OFFCURVE",
"95 326 CURVE SMOOTH",
"95 317 OFFCURVE",
"97 313 OFFCURVE",
"100 313 CURVE SMOOTH",
"150 313 LINE",
"118 147 LINE SMOOTH",
"110 104 OFFCURVE",
"101 73 OFFCURVE",
"92 54 CURVE SMOOTH",
"87 43 OFFCURVE",
"40 29 OFFCURVE",
"25 29 CURVE SMOOTH",
"22 29 OFFCURVE",
"20 23 OFFCURVE",
"20 10 CURVE SMOOTH",
"20 5 OFFCURVE",
"20 3 OFFCURVE",
"21 2 CURVE"
);
},
{
closed = 1;
nodes = (
"295 48 OFFCURVE",
"206 50 OFFCURVE",
"197 68 CURVE",
"196 71 OFFCURVE",
"195 83 OFFCURVE",
"195 102 CURVE SMOOTH",
"195 121 OFFCURVE",
"196 135 OFFCURVE",
"198 144 CURVE SMOOTH",
"230 313 LINE",
"446 313 LINE",
"450 322 OFFCURVE",
"452 332 OFFCURVE",
"452 343 CURVE SMOOTH",
"452 350 OFFCURVE",
"450 353 OFFCURVE",
"446 353 CURVE SMOOTH",
"238 353 LINE",
"271 524 LINE SMOOTH",
"277 556 OFFCURVE",
"281 582 OFFCURVE",
"298 603 CURVE",
"308 617 OFFCURVE",
"400 619 OFFCURVE",
"418 619 CURVE SMOOTH",
"538 619 OFFCURVE",
"596 536 OFFCURVE",
"596 419 CURVE SMOOTH",
"596 294 OFFCURVE",
"551 175 OFFCURVE",
"463 103 CURVE SMOOTH",
"419 66 OFFCURVE",
"369 48 OFFCURVE",
"313 48 CURVE SMOOTH"
);
}
);
width = 659;
},
{
components = (
{
name = D;
transform = "{1, 0, 0, 1, 1, 0}";
}
);
layerId = "DEDDD934-E4FE-4A27-B966-8C21F8A9BC34";
paths = (
{
closed = 1;
nodes = (
"60 343 CURVE",
"88 343 OFFCURVE",
"377 343 OFFCURVE",
"390 343 CURVE SMOOTH",
"394 343 OFFCURVE",
"396 339 OFFCURVE",
"395 335 CURVE SMOOTH",
"394 330 OFFCURVE",
"389 311 OFFCURVE",
"384 304 CURVE",
"356 304 OFFCURVE",
"66 304 OFFCURVE",
"53 304 CURVE SMOOTH",
"49 304 OFFCURVE",
"49 311 OFFCURVE",
"50 315 CURVE SMOOTH",
"51 320 OFFCURVE",
"53 336 OFFCURVE"
);
}
);
width = 721;
}
);
note = Eth;
unicode = 00D0;
},
{
color = 3;
glyphname = E;
lastChange = "2018-06-05 09:43:46 +0000";
layers = (
{
background = {
paths = (
{
closed = 1;
nodes = (
"147 651 OFFCURVE",
"147 635 QCURVE SMOOTH",
"147 631 OFFCURVE",
"149 631 QCURVE SMOOTH",
"160 631 OFFCURVE",
"204 615 OFFCURVE",
"205 607 QCURVE SMOOTH",
"207 585 OFFCURVE",
"194 514 QCURVE SMOOTH",
"122 142 LINE SMOOTH",
"110 78 OFFCURVE",
"96 49 QCURVE SMOOTH",
"92 40 OFFCURVE",
"40 24 OFFCURVE",
"29 24 QCURVE SMOOTH",
"24 24 OFFCURVE",
"24 5 QCURVE SMOOTH",
"24 -2 OFFCURVE",
"25 -3 QCURVE",
"136 2 LINE",
"176 2 OFFCURVE",
"399 -4 OFFCURVE",
"452 -4 QCURVE",
"464 32 OFFCURVE",
"534 162 QCURVE",
"530 168 OFFCURVE",
"513 168 QCURVE SMOOTH",
"501 168 OFFCURVE",
"498 162 QCURVE SMOOTH",
"479 124 OFFCURVE",
"436 69 OFFCURVE",
"420 61 QCURVE SMOOTH",
"386 44 OFFCURVE",
"299 44 QCURVE SMOOTH",
"254 44 LINE SMOOTH",
"209 44 OFFCURVE",
"193 50 OFFCURVE",
"193 65 QCURVE SMOOTH",
"193 99 OFFCURVE",
"204 152 QCURVE SMOOTH",
"233 300 LINE SMOOTH",
"235 309 OFFCURVE",
"301 309 QCURVE SMOOTH",
"388 309 OFFCURVE",
"398 301 QCURVE SMOOTH",
"403 297 OFFCURVE",
"406 292 OFFCURVE",
"412 265 OFFCURVE",
"413 238 QCURVE",
"414 230 OFFCURVE",
"427 230 QCURVE SMOOTH",
"435 230 OFFCURVE",
"441 234 QCURVE",
"478 426 LINE",
"475 431 OFFCURVE",
"463 431 QCURVE SMOOTH",
"452 431 OFFCURVE",
"449 424 QCURVE SMOOTH",
"426 372 OFFCURVE",
"394 353 OFFCURVE",
"328 353 QCURVE SMOOTH",
"283 353 LINE SMOOTH",
"275 353 OFFCURVE",
"263 354 OFFCURVE",
"251 355 OFFCURVE",
"246 358 OFFCURVE",
"246 361 QCURVE",
"278 536 LINE SMOOTH",
"285 573 OFFCURVE",
"296 603 QCURVE SMOOTH",
"301 616 OFFCURVE",
"372 616 QCURVE SMOOTH",
"426 616 LINE SMOOTH",
"476 616 OFFCURVE",
"522 586 OFFCURVE",
"525 530 QCURVE",
"525 523 OFFCURVE",
"537 523 QCURVE SMOOTH",
"550 523 OFFCURVE",
"555 528 QCURVE",
"555 544 OFFCURVE",
"553 608 OFFCURVE",
"553 625 QCURVE SMOOTH",
"553 650 OFFCURVE",
"554 664 QCURVE",
"502 664 OFFCURVE",
"302 656 OFFCURVE",
"261 656 QCURVE SMOOTH",
"200 656 OFFCURVE",
"154 658 QCURVE"
);
}
);
};
layerId = "720C727D-0ED9-429E-914E-55EB9E513E33";
paths = (
{
closed = 1;
nodes = (
"460 20 OFFCURVE",
"487.333 75.333 OFFCURVE",
"534 162 CURVE",
"531.333 166 OFFCURVE",
"524.333 168 OFFCURVE",
"513 168 CURVE SMOOTH",
"505 168 OFFCURVE",
"500 166 OFFCURVE",
"498 162 CURVE SMOOTH",
"472.667 111.333 OFFCURVE",
"441.333 71.667 OFFCURVE",
"420 61 CURVE SMOOTH",
"397.333 49.667 OFFCURVE",
"357 44 OFFCURVE",
"299 44 CURVE SMOOTH",
"254 44 LINE SMOOTH",
"224 44 OFFCURVE",
"206.333 45 OFFCURVE",
"201 47 CURVE SMOOTH",
"195.667 49 OFFCURVE",
"193 55 OFFCURVE",
"193 65 CURVE SMOOTH",
"193 87.667 OFFCURVE",
"196.667 116.667 OFFCURVE",
"204 152 CURVE SMOOTH",
"233 300 LINE SMOOTH",
"234.333 306 OFFCURVE",
"257 309 OFFCURVE",
"301 309 CURVE SMOOTH",
"359 309 OFFCURVE",
"391.333 306.333 OFFCURVE",
"398 301 CURVE SMOOTH",
"409.894 291.485 OFFCURVE",
"411.808 270.196 OFFCURVE",
"413 238 CURVE",
"413.667 232.667 OFFCURVE",
"418.333 230 OFFCURVE",
"427 230 CURVE SMOOTH",
"432.333 230 OFFCURVE",
"437 231.333 OFFCURVE",
"441 234 CURVE",
"478 426 LINE",
"476 429.333 OFFCURVE",
"471 431 OFFCURVE",
"463 431 CURVE SMOOTH",
"455.667 431 OFFCURVE",
"451 428.667 OFFCURVE",
"449 424 CURVE SMOOTH",
"418.333 354.667 OFFCURVE",
"416 353 OFFCURVE",
"328 353 CURVE SMOOTH",
"283 353 LINE SMOOTH",
"264.701 353 OFFCURVE",
"246 353.408 OFFCURVE",
"246 361 CURVE",
"278 536 LINE SMOOTH",
"282.667 560.667 OFFCURVE",
"288.667 583 OFFCURVE",
"296 603 CURVE SMOOTH",
"299.333 611.667 OFFCURVE",
"324.667 616 OFFCURVE",
"372 616 CURVE SMOOTH",
"426 616 LINE SMOOTH",
"492.667 616 OFFCURVE",
"521 604.667 OFFCURVE",
"525 530 CURVE",
"525 525.333 OFFCURVE",
"529 523 OFFCURVE",
"537 523 CURVE SMOOTH",
"545.667 523 OFFCURVE",
"551.667 524.667 OFFCURVE",
"555 528 CURVE",
"555 538.667 OFFCURVE",
"554.667 554.667 OFFCURVE",
"554 576 CURVE SMOOTH",
"553.333 597.333 OFFCURVE",
"553 613.667 OFFCURVE",
"553 625 CURVE SMOOTH",
"553 641.667 OFFCURVE",
"553.333 654.667 OFFCURVE",
"554 664 CURVE",
"519.333 664 OFFCURVE",
"468.667 662.667 OFFCURVE",
"402 660 CURVE SMOOTH",
"335.333 657.333 OFFCURVE",
"288.333 656 OFFCURVE",
"261 656 CURVE SMOOTH",
"220.333 656 OFFCURVE",
"184.667 656.667 OFFCURVE",
"154 658 CURVE",
"149.333 653.333 OFFCURVE",
"147 645.667 OFFCURVE",
"147 635 CURVE SMOOTH",
"147 632.333 OFFCURVE",
"147.667 631 OFFCURVE",
"149 631 CURVE SMOOTH",
"163.667 631 OFFCURVE",
"203.667 617.667 OFFCURVE",
"205 607 CURVE SMOOTH",
"206.333 592.333 OFFCURVE",
"202.667 561.333 OFFCURVE",
"194 514 CURVE SMOOTH",
"122 142 LINE SMOOTH",
"114 99.333 OFFCURVE",
"105.333 68.333 OFFCURVE",
"96 49 CURVE SMOOTH",
"90.667 37 OFFCURVE",
"43.667 24 OFFCURVE",
"29 24 CURVE SMOOTH",
"25.667 24 OFFCURVE",
"24 17.667 OFFCURVE",
"24 5 CURVE SMOOTH",
"24 0.333 OFFCURVE",
"24.333 -2.333 OFFCURVE",
"25 -3 CURVE",
"136 2 LINE",
"162.667 2 OFFCURVE",
"213.167 1 OFFCURVE",
"287.5 -1 CURVE SMOOTH",
"361.833 -3 OFFCURVE",
"416.667 -4 OFFCURVE",
"452 -4 CURVE"
);
}
);
width = 519;
},
{
associatedMasterId = "720C727D-0ED9-429E-914E-55EB9E513E33";
background = {
paths = (
{
closed = 1;
nodes = (
"147 651 OFFCURVE",
"147 635 QCURVE SMOOTH",
"147 631 OFFCURVE",
"149 631 QCURVE SMOOTH",
"160 631 OFFCURVE",
"204 615 OFFCURVE",
"205 607 QCURVE SMOOTH",
"207 585 OFFCURVE",
"194 514 QCURVE SMOOTH",
"122 142 LINE SMOOTH",
"110 78 OFFCURVE",
"96 49 QCURVE SMOOTH",
"92 40 OFFCURVE",
"40 24 OFFCURVE",
"29 24 QCURVE SMOOTH",
"24 24 OFFCURVE",
"24 5 QCURVE SMOOTH",
"24 -2 OFFCURVE",
"25 -3 QCURVE",
"136 2 LINE",
"176 2 OFFCURVE",
"399 -4 OFFCURVE",
"452 -4 QCURVE",
"464 32 OFFCURVE",
"534 162 QCURVE",
"530 168 OFFCURVE",
"513 168 QCURVE SMOOTH",
"501 168 OFFCURVE",
"498 162 QCURVE SMOOTH",
"479 124 OFFCURVE",
"436 69 OFFCURVE",
"420 61 QCURVE SMOOTH",
"386 44 OFFCURVE",
"299 44 QCURVE SMOOTH",
"254 44 LINE SMOOTH",
"209 44 OFFCURVE",
"193 50 OFFCURVE",
"193 65 QCURVE SMOOTH",
"193 99 OFFCURVE",
"204 152 QCURVE SMOOTH",
"233 300 LINE SMOOTH",
"235 309 OFFCURVE",
"301 309 QCURVE SMOOTH",
"388 309 OFFCURVE",
"398 301 QCURVE SMOOTH",
"403 297 OFFCURVE",
"406 292 OFFCURVE",
"412 265 OFFCURVE",
"413 238 QCURVE",
"414 230 OFFCURVE",
"427 230 QCURVE SMOOTH",
"435 230 OFFCURVE",
"441 234 QCURVE",
"478 426 LINE",
"475 431 OFFCURVE",
"463 431 QCURVE SMOOTH",
"452 431 OFFCURVE",
"449 424 QCURVE SMOOTH",
"426 372 OFFCURVE",
"394 353 OFFCURVE",
"328 353 QCURVE SMOOTH",
"283 353 LINE SMOOTH",
"275 353 OFFCURVE",
"263 354 OFFCURVE",
"251 355 OFFCURVE",
"246 358 OFFCURVE",
"246 361 QCURVE",
"278 536 LINE SMOOTH",
"285 573 OFFCURVE",
"296 603 QCURVE SMOOTH",
"301 616 OFFCURVE",
"372 616 QCURVE SMOOTH",
"426 616 LINE SMOOTH",
"476 616 OFFCURVE",
"522 586 OFFCURVE",
"525 530 QCURVE",
"525 523 OFFCURVE",
"537 523 QCURVE SMOOTH",
"550 523 OFFCURVE",
"555 528 QCURVE",
"555 544 OFFCURVE",
"553 608 OFFCURVE",
"553 625 QCURVE SMOOTH",
"553 650 OFFCURVE",
"554 664 QCURVE",
"502 664 OFFCURVE",
"302 656 OFFCURVE",
"261 656 QCURVE SMOOTH",
"200 656 OFFCURVE",
"154 658 QCURVE"
);
}
);
};
layerId = "6240DE3F-EB11-4F30-B897-1478D71E6D26";
name = "Mar 12 18, 15:56";
paths = (
{
closed = 1;
nodes = (
"149.333 653.333 OFFCURVE",
"147 645.667 OFFCURVE",
"147 635 CURVE SMOOTH",
"147 632.333 OFFCURVE",
"147.667 631 OFFCURVE",
"149 631 CURVE SMOOTH",
"163.667 631 OFFCURVE",
"203.667 617.667 OFFCURVE",
"205 607 CURVE SMOOTH",
"206.333 592.333 OFFCURVE",
"202.667 561.333 OFFCURVE",
"194 514 CURVE SMOOTH",
"122 142 LINE SMOOTH",
"114 99.333 OFFCURVE",
"105.333 68.333 OFFCURVE",
"96 49 CURVE SMOOTH",
"90.667 37 OFFCURVE",
"43.667 24 OFFCURVE",
"29 24 CURVE SMOOTH",
"25.667 24 OFFCURVE",
"24 17.667 OFFCURVE",
"24 5 CURVE SMOOTH",
"24 0.333 OFFCURVE",
"24.333 -2.333 OFFCURVE",
"25 -3 CURVE",
"136 2 LINE",
"162.667 2 OFFCURVE",
"213.167 1 OFFCURVE",
"287.5 -1 CURVE SMOOTH",
"361.833 -3 OFFCURVE",
"416.667 -4 OFFCURVE",
"452 -4 CURVE",
"460 20 OFFCURVE",
"487.333 75.333 OFFCURVE",
"534 162 CURVE",
"531.333 166 OFFCURVE",
"524.333 168 OFFCURVE",
"513 168 CURVE SMOOTH",
"505 168 OFFCURVE",
"500 166 OFFCURVE",
"498 162 CURVE SMOOTH",
"472.667 111.333 OFFCURVE",
"441.333 71.667 OFFCURVE",
"420 61 CURVE SMOOTH",
"397.333 49.667 OFFCURVE",
"357 44 OFFCURVE",
"299 44 CURVE SMOOTH",
"254 44 LINE SMOOTH",
"224 44 OFFCURVE",
"206.333 45 OFFCURVE",
"201 47 CURVE SMOOTH",
"195.667 49 OFFCURVE",
"193 55 OFFCURVE",
"193 65 CURVE SMOOTH",
"193 87.667 OFFCURVE",
"196.667 116.667 OFFCURVE",
"204 152 CURVE SMOOTH",
"233 300 LINE SMOOTH",
"234.333 306 OFFCURVE",
"257 309 OFFCURVE",
"301 309 CURVE SMOOTH",
"359 309 OFFCURVE",
"391.333 306.333 OFFCURVE",
"398 301 CURVE SMOOTH",
"409.894 291.485 OFFCURVE",
"411.808 270.196 OFFCURVE",
"413 238 CURVE",
"413.667 232.667 OFFCURVE",
"418.333 230 OFFCURVE",
"427 230 CURVE SMOOTH",
"432.333 230 OFFCURVE",
"437 231.333 OFFCURVE",
"441 234 CURVE",
"478 426 LINE",
"476 429.333 OFFCURVE",
"471 431 OFFCURVE",
"463 431 CURVE SMOOTH",
"455.667 431 OFFCURVE",
"451 428.667 OFFCURVE",
"449 424 CURVE SMOOTH",
"418.333 354.667 OFFCURVE",
"416 353 OFFCURVE",
"328 353 CURVE SMOOTH",
"283 353 LINE SMOOTH",
"264.701 353 OFFCURVE",
"246 353.408 OFFCURVE",
"246 361 CURVE",
"278 536 LINE SMOOTH",
"282.667 560.667 OFFCURVE",
"288.667 583 OFFCURVE",
"296 603 CURVE SMOOTH",
"299.333 611.667 OFFCURVE",
"324.667 616 OFFCURVE",
"372 616 CURVE SMOOTH",
"426 616 LINE SMOOTH",
"492.667 616 OFFCURVE",
"521 604.667 OFFCURVE",
"525 530 CURVE",
"525 525.333 OFFCURVE",
"529 523 OFFCURVE",
"537 523 CURVE SMOOTH",
"545.667 523 OFFCURVE",
"551.667 524.667 OFFCURVE",
"555 528 CURVE",
"555 538.667 OFFCURVE",
"554.667 554.667 OFFCURVE",
"554 576 CURVE SMOOTH",
"553.333 597.333 OFFCURVE",
"553 613.667 OFFCURVE",
"553 625 CURVE SMOOTH",
"553 641.667 OFFCURVE",
"553.333 654.667 OFFCURVE",
"554 664 CURVE",
"519.333 664 OFFCURVE",
"468.667 662.667 OFFCURVE",
"402 660 CURVE SMOOTH",
"335.333 657.333 OFFCURVE",
"288.333 656 OFFCURVE",
"261 656 CURVE SMOOTH",
"220.333 656 OFFCURVE",
"184.667 656.667 OFFCURVE",
"154 658 CURVE"
);
}
);
width = 519;
},
{
associatedMasterId = "720C727D-0ED9-429E-914E-55EB9E513E33";
layerId = "8A3844E2-8199-4090-9D77-76B3F7A584A4";
name = "Mar 12 18, 16:00";
paths = (
{
closed = 1;
nodes = (
"120 659 OFFCURVE",
"116 637 OFFCURVE",
"118 633 QCURVE",
"132 633 OFFCURVE",
"179 624 OFFCURVE",
"179 617 QCURVE",
"181 599 OFFCURVE",
"170 543 QCURVE SMOOTH",
"87 116 LINE SMOOTH",
"75 56 OFFCURVE",
"68 42 QCURVE",
"65 35 OFFCURVE",
"14 26 OFFCURVE",
"0 26 QCURVE",
"-4 22 OFFCURVE",
"-8 1 OFFCURVE",
"-5 -3 QCURVE",
"12 -3 OFFCURVE",
"83 0 OFFCURVE",
"106 0 QCURVE SMOOTH",
"171 0 OFFCURVE",
"375 -4 OFFCURVE",
"422 -4 QCURVE",
"429 16 OFFCURVE",
"455 69 OFFCURVE",
"499 150 OFFCURVE",
"505 162 QCURVE",
"501 168 OFFCURVE",
"483 168 QCURVE SMOOTH",
"471 168 OFFCURVE",
"468 162 QCURVE SMOOTH",
"435 91 OFFCURVE",
"390 61 QCURVE SMOOTH",
"343 30 OFFCURVE",
"266 30 QCURVE SMOOTH",
"222 30 LINE SMOOTH",
"189 30 OFFCURVE",
"165 33 OFFCURVE",
"158 40 QCURVE SMOOTH",
"153 46 OFFCURVE",
"165 109 QCURVE SMOOTH",
"204 307 LINE SMOOTH",
"206 316 OFFCURVE",
"273 316 QCURVE SMOOTH",
"360 316 OFFCURVE",
"370 308 QCURVE",
"376 303 OFFCURVE",
"381 279 OFFCURVE",
"383 238 QCURVE",
"385 230 OFFCURVE",
"396 230 QCURVE SMOOTH",
"408 230 OFFCURVE",
"412 234 QCURVE",
"448 423 LINE",
"445 428 OFFCURVE",
"434 428 QCURVE SMOOTH",
"421 428 OFFCURVE",
"418 421 QCURVE SMOOTH",
"417 418 OFFCURVE",
"414 412 QCURVE SMOOTH",
"408 397 OFFCURVE",
"399 378 OFFCURVE",
"387 363 OFFCURVE",
"375 355 OFFCURVE",
"351 350 OFFCURVE",
"325 349 OFFCURVE",
"302 349 QCURVE SMOOTH",
"253 349 LINE SMOOTH",
"245 349 OFFCURVE",
"232 350 OFFCURVE",
"220 351 OFFCURVE",
"214 353 OFFCURVE",
"214 355 QCURVE",
"251 547 LINE SMOOTH",
"261 598 OFFCURVE",
"271 619 QCURVE SMOOTH",
"277 630 OFFCURVE",
"337 630 QCURVE SMOOTH",
"417 630 LINE SMOOTH",
"457 630 OFFCURVE",
"502 587 OFFCURVE",
"505 530 QCURVE",
"505 523 OFFCURVE",
"516 523 QCURVE SMOOTH",
"529 523 OFFCURVE",
"534 528 QCURVE",
"534 537 OFFCURVE",
"531 652 OFFCURVE",
"533 664 QCURVE",
"481 664 OFFCURVE",
"275 657 OFFCURVE",
"233 657 QCURVE SMOOTH",
"219 657 OFFCURVE",
"124 662 QCURVE"
);
}
);
width = 554;
},
{
layerId = "DEDDD934-E4FE-4A27-B966-8C21F8A9BC34";
paths = (
{
closed = 1;
nodes = (
"253 657 CURVE SMOOTH",
"292 657 OFFCURVE",
"502 663 OFFCURVE",
"557 664 CURVE",
"554 614 OFFCURVE",
"555 561 OFFCURVE",
"555 516 CURVE",
"552 513 OFFCURVE",
"539 511 OFFCURVE",
"532 511 CURVE SMOOTH",
"525 511 OFFCURVE",
"520 514 OFFCURVE",
"519 519 CURVE SMOOTH",
"510 574 OFFCURVE",
"495 620 OFFCURVE",
"438 620 CURVE SMOOTH",
"361 620 LINE SMOOTH",
"340 620 OFFCURVE",
"319 619 OFFCURVE",
"312 608 CURVE SMOOTH",
"305 596 OFFCURVE",
"302 576 OFFCURVE",
"296 547 CURVE SMOOTH",
"261 368 LINE SMOOTH",
"260 362 OFFCURVE",
"279 357 OFFCURVE",
"299 357 CURVE SMOOTH",
"348 357 LINE SMOOTH",
"403 357 OFFCURVE",
"418 369 OFFCURVE",
"444 427 CURVE SMOOTH",
"446 432 OFFCURVE",
"449 435 OFFCURVE",
"456 435 CURVE SMOOTH",
"463 435 OFFCURVE",
"471 433 OFFCURVE",
"473 430 CURVE",
"436 238 LINE",
"434 236 OFFCURVE",
"425 234 OFFCURVE",
"418 234 CURVE SMOOTH",
"411 234 OFFCURVE",
"407 237 OFFCURVE",
"407 242 CURVE SMOOTH",
"405 290 OFFCURVE",
"394 299 OFFCURVE",
"386 303 CURVE SMOOTH",
"376 308 OFFCURVE",
"352 310 OFFCURVE",
"317 310 CURVE SMOOTH",
"291 310 OFFCURVE",
"249 308 OFFCURVE",
"247 296 CURVE SMOOTH",
"217 141 LINE SMOOTH",
"216 135 OFFCURVE",
"205 82 OFFCURVE",
"209 62 CURVE SMOOTH",
"212 48 OFFCURVE",
"241 42 OFFCURVE",
"265 42 CURVE SMOOTH",
"327 42 LINE SMOOTH",
"362 42 OFFCURVE",
"394 52 OFFCURVE",
"420 75 CURVE SMOOTH",
"444 96 OFFCURVE",
"463 125 OFFCURVE",
"488 170 CURVE SMOOTH",
"490 174 OFFCURVE",
"496 176 OFFCURVE",
"503 176 CURVE SMOOTH",
"512 176 OFFCURVE",
"527 173 OFFCURVE",
"529 170 CURVE",
"501 116 OFFCURVE",
"461 42 OFFCURVE",
"446 -2 CURVE",
"420 -2 OFFCURVE",
"246 -2 OFFCURVE",
"120 -2 CURVE SMOOTH",
"56 -2 OFFCURVE",
"4 -3 OFFCURVE",
"-8 -3 CURVE",
"-11 3 OFFCURVE",
"-7 27 OFFCURVE",
"-1 34 CURVE",
"11 35 OFFCURVE",
"55 38 OFFCURVE",
"62 51 CURVE SMOOTH",
"73 71 OFFCURVE",
"79 102 OFFCURVE",
"87 145 CURVE SMOOTH",
"159 513 LINE SMOOTH",
"167 556 OFFCURVE",
"174 587 OFFCURVE",
"170 607 CURVE SMOOTH",
"168 620 OFFCURVE",
"125 622 OFFCURVE",
"113 623 CURVE",
"110 630 OFFCURVE",
"116 654 OFFCURVE",
"121 660 CURVE",
"162 657 OFFCURVE",
"214 657 OFFCURVE"
);
}
);
width = 572;
}
);
note = E;
unicode = 0045;
},
{
color = 3;
glyphname = Eogonek;
lastChange = "2018-06-05 09:43:46 +0000";
layers = (
{
layerId = "720C727D-0ED9-429E-914E-55EB9E513E33";
paths = (
{
closed = 1;
nodes = (
"285 -230 OFFCURVE",
"322 -208 OFFCURVE",
"362 -163 CURVE",
"366 -159 OFFCURVE",
"375 -134 OFFCURVE",
"368 -133 CURVE",
"361 -133 OFFCURVE",
"309 -171 OFFCURVE",
"285 -171 CURVE SMOOTH",
"264 -171 OFFCURVE",
"254 -160 OFFCURVE",
"254 -139 CURVE SMOOTH",
"254 -83 OFFCURVE",
"338 -4 OFFCURVE",
"426 -4 CURVE",
"434 20 OFFCURVE",
"461 75 OFFCURVE",
"508 162 CURVE",
"505 166 OFFCURVE",
"498 168 OFFCURVE",
"487 168 CURVE SMOOTH",
"479 168 OFFCURVE",
"474 166 OFFCURVE",
"472 162 CURVE SMOOTH",
"447 111 OFFCURVE",
"415 72 OFFCURVE",
"394 61 CURVE",
"371 50 OFFCURVE",
"331 44 OFFCURVE",
"273 44 CURVE SMOOTH",
"228 44 LINE SMOOTH",
"198 44 OFFCURVE",
"180 45 OFFCURVE",
"175 47 CURVE SMOOTH",
"170 49 OFFCURVE",
"167 55 OFFCURVE",
"167 65 CURVE SMOOTH",
"167 88 OFFCURVE",
"171 117 OFFCURVE",
"178 152 CURVE SMOOTH",
"207 300 LINE SMOOTH",
"208 306 OFFCURVE",
"231 309 OFFCURVE",
"275 309 CURVE SMOOTH",
"333 309 OFFCURVE",
"365 306 OFFCURVE",
"372 301 CURVE",
"384 291 OFFCURVE",
"386 270 OFFCURVE",
"387 238 CURVE",
"388 233 OFFCURVE",
"392 230 OFFCURVE",
"401 230 CURVE SMOOTH",
"406 230 OFFCURVE",
"411 231 OFFCURVE",
"415 234 CURVE",
"452 426 LINE",
"450 429 OFFCURVE",
"445 431 OFFCURVE",
"437 431 CURVE SMOOTH",
"430 431 OFFCURVE",
"425 429 OFFCURVE",
"423 424 CURVE",
"392 355 OFFCURVE",
"390 353 OFFCURVE",
"302 353 CURVE SMOOTH",
"257 353 LINE SMOOTH",
"239 353 OFFCURVE",
"220 353 OFFCURVE",
"220 361 CURVE",
"252 536 LINE SMOOTH",
"257 561 OFFCURVE",
"263 583 OFFCURVE",
"270 603 CURVE SMOOTH",
"273 612 OFFCURVE",
"299 616 OFFCURVE",
"346 616 CURVE SMOOTH",
"400 616 LINE SMOOTH",
"467 616 OFFCURVE",
"495 605 OFFCURVE",
"499 530 CURVE",
"499 525 OFFCURVE",
"503 523 OFFCURVE",
"511 523 CURVE SMOOTH",
"520 523 OFFCURVE",
"526 525 OFFCURVE",
"529 528 CURVE",
"529 539 OFFCURVE",
"529 555 OFFCURVE",
"528 576 CURVE SMOOTH",
"527 597 OFFCURVE",
"527 614 OFFCURVE",
"527 625 CURVE SMOOTH",
"527 642 OFFCURVE",
"527 655 OFFCURVE",
"528 664 CURVE",
"493 664 OFFCURVE",
"443 663 OFFCURVE",
"376 660 CURVE SMOOTH",
"309 657 OFFCURVE",
"262 656 OFFCURVE",
"235 656 CURVE SMOOTH",
"194 656 OFFCURVE",
"159 657 OFFCURVE",
"128 658 CURVE",
"123 653 OFFCURVE",
"121 646 OFFCURVE",
"121 635 CURVE SMOOTH",
"121 632 OFFCURVE",
"122 631 OFFCURVE",
"123 631 CURVE SMOOTH",
"138 631 OFFCURVE",
"178 618 OFFCURVE",
"179 607 CURVE SMOOTH",
"180 592 OFFCURVE",
"177 561 OFFCURVE",
"168 514 CURVE SMOOTH",
"96 142 LINE SMOOTH",
"88 99 OFFCURVE",
"79 68 OFFCURVE",
"70 49 CURVE",
"65 37 OFFCURVE",
"18 24 OFFCURVE",
"3 24 CURVE SMOOTH",
"0 24 OFFCURVE",
"-2 18 OFFCURVE",
"-2 5 CURVE SMOOTH",
"-2 0 OFFCURVE",
"-2 -2 OFFCURVE",
"-1 -3 CURVE",
"110 2 LINE",
"124 2 OFFCURVE",
"194 0 OFFCURVE",
"321 -3 CURVE",
"265 -30 OFFCURVE",
"200 -127 OFFCURVE",
"200 -180 CURVE SMOOTH",
"200 -208 OFFCURVE",
"222 -230 OFFCURVE",
"251 -230 CURVE SMOOTH"
);
}
);
width = 536;
},
{
layerId = "DEDDD934-E4FE-4A27-B966-8C21F8A9BC34";
paths = (
{
closed = 1;
nodes = (
"232 -160 CURVE SMOOTH",
"232 -101 OFFCURVE",
"283 -31 OFFCURVE",
"353 -1 CURVE",
"286 -1 OFFCURVE",
"197 -2 OFFCURVE",
"124 -2 CURVE SMOOTH",
"57 -2 OFFCURVE",
"4 -3 OFFCURVE",
"-8 -3 CURVE",
"-11 3 OFFCURVE",
"-7 27 OFFCURVE",
"-1 34 CURVE",
"11 35 OFFCURVE",
"55 38 OFFCURVE",
"62 51 CURVE SMOOTH",
"73 71 OFFCURVE",
"79 102 OFFCURVE",
"87 145 CURVE SMOOTH",
"159 513 LINE SMOOTH",
"167 556 OFFCURVE",
"174 587 OFFCURVE",
"170 607 CURVE SMOOTH",
"168 620 OFFCURVE",
"125 622 OFFCURVE",
"113 623 CURVE",
"110 630 OFFCURVE",
"116 654 OFFCURVE",
"121 660 CURVE",
"162 657 OFFCURVE",
"214 657 OFFCURVE",
"253 657 CURVE SMOOTH",
"292 657 OFFCURVE",
"502 663 OFFCURVE",
"557 664 CURVE",
"554 614 OFFCURVE",
"555 561 OFFCURVE",
"555 516 CURVE",
"552 513 OFFCURVE",
"539 511 OFFCURVE",
"532 511 CURVE SMOOTH",
"525 511 OFFCURVE",
"520 514 OFFCURVE",
"519 519 CURVE SMOOTH",
"510 574 OFFCURVE",
"495 620 OFFCURVE",
"438 620 CURVE SMOOTH",
"361 620 LINE SMOOTH",
"340 620 OFFCURVE",
"319 619 OFFCURVE",
"312 608 CURVE SMOOTH",
"305 596 OFFCURVE",
"302 576 OFFCURVE",
"296 547 CURVE SMOOTH",
"261 368 LINE SMOOTH",
"260 362 OFFCURVE",
"279 357 OFFCURVE",
"299 357 CURVE SMOOTH",
"348 357 LINE SMOOTH",
"403 357 OFFCURVE",
"418 369 OFFCURVE",
"444 427 CURVE SMOOTH",
"446 432 OFFCURVE",
"449 435 OFFCURVE",
"456 435 CURVE SMOOTH",
"463 435 OFFCURVE",
"471 433 OFFCURVE",
"473 430 CURVE",
"436 238 LINE",
"434 236 OFFCURVE",
"425 234 OFFCURVE",
"418 234 CURVE SMOOTH",
"411 234 OFFCURVE",
"407 237 OFFCURVE",
"407 242 CURVE SMOOTH",
"405 290 OFFCURVE",
"394 299 OFFCURVE",
"386 303 CURVE SMOOTH",
"376 308 OFFCURVE",
"352 310 OFFCURVE",
"317 310 CURVE SMOOTH",
"291 310 OFFCURVE",
"249 308 OFFCURVE",
"247 296 CURVE SMOOTH",
"217 141 LINE SMOOTH",
"216 135 OFFCURVE",
"205 82 OFFCURVE",
"209 62 CURVE SMOOTH",
"212 48 OFFCURVE",
"241 42 OFFCURVE",
"265 42 CURVE SMOOTH",
"327 42 LINE SMOOTH",
"362 42 OFFCURVE",
"394 52 OFFCURVE",
"420 75 CURVE SMOOTH",
"444 96 OFFCURVE",
"463 125 OFFCURVE",
"488 170 CURVE SMOOTH",
"490 174 OFFCURVE",
"496 176 OFFCURVE",
"503 176 CURVE SMOOTH",
"512 176 OFFCURVE",
"527 173 OFFCURVE",
"529 170 CURVE",
"501 116 OFFCURVE",
"461 42 OFFCURVE",
"446 -2 CURVE",
"375 -2 OFFCURVE",
"293 -69 OFFCURVE",
"293 -122 CURVE SMOOTH",
"293 -146 OFFCURVE",
"304 -156 OFFCURVE",
"329 -156 CURVE SMOOTH",
"371 -156 OFFCURVE",
"396 -125 OFFCURVE",
"403 -120 CURVE",
"410 -122 OFFCURVE",
"408 -142 OFFCURVE",
"406 -146 CURVE SMOOTH",
"383 -185 OFFCURVE",
"334 -218 OFFCURVE",
"292 -218 CURVE SMOOTH",
"253 -218 OFFCURVE",
"232 -187 OFFCURVE"
);
}
);
width = 573;
}
);
note = Eogonek;
unicode = 0118;
},
{
color = 3;
glyphname = F;
lastChange = "2018-06-05 09:43:46 +0000";
layers = (
{
background = {
paths = (
{
closed = 1;
nodes = (
"259 3 OFFCURVE",
"259 16 QCURVE SMOOTH",
"259 24 OFFCURVE",
"257 24 QCURVE",
"240 26 LINE SMOOTH",
"223 28 OFFCURVE",
"189 41 OFFCURVE",
"189 49 QCURVE SMOOTH",
"189 88 OFFCURVE",
"197 128 QCURVE SMOOTH",
"231 300 LINE SMOOTH",
"233 309 OFFCURVE",
"299 309 QCURVE SMOOTH",
"386 309 OFFCURVE",
"396 301 QCURVE SMOOTH",
"401 297 OFFCURVE",
"404 292 OFFCURVE",
"410 265 OFFCURVE",
"411 238 QCURVE",
"412 230 OFFCURVE",
"425 230 QCURVE SMOOTH",
"433 230 OFFCURVE",
"439 234 QCURVE",
"476 426 LINE",
"473 431 OFFCURVE",
"461 431 QCURVE SMOOTH",
"450 431 OFFCURVE",
"447 424 QCURVE SMOOTH",
"424 372 OFFCURVE",
"392 353 OFFCURVE",
"326 353 QCURVE SMOOTH",
"281 353 LINE SMOOTH",
"273 353 OFFCURVE",
"261 354 OFFCURVE",
"249 355 OFFCURVE",
"244 358 OFFCURVE",
"244 361 QCURVE",
"276 536 LINE SMOOTH",
"283 573 OFFCURVE",
"294 603 QCURVE SMOOTH",
"299 616 OFFCURVE",
"370 616 QCURVE SMOOTH",
"424 616 LINE SMOOTH",
"474 616 OFFCURVE",
"520 586 OFFCURVE",
"523 530 QCURVE",
"523 523 OFFCURVE",
"535 523 QCURVE SMOOTH",
"548 523 OFFCURVE",
"553 528 QCURVE",
"553 544 OFFCURVE",
"551 608 OFFCURVE",
"551 625 QCURVE SMOOTH",
"551 650 OFFCURVE",
"552 664 QCURVE",
"499 664 OFFCURVE",
"301 656 OFFCURVE",
"261 656 QCURVE SMOOTH",
"200 656 OFFCURVE",
"154 658 QCURVE",
"147 651 OFFCURVE",
"147 635 QCURVE SMOOTH",
"147 631 OFFCURVE",
"149 631 QCURVE SMOOTH",
"160 631 OFFCURVE",
"204 615 OFFCURVE",
"205 607 QCURVE SMOOTH",
"207 585 OFFCURVE",
"194 514 QCURVE SMOOTH",
"122 142 LINE SMOOTH",
"110 78 OFFCURVE",
"96 49 QCURVE SMOOTH",
"92 40 OFFCURVE",
"40 24 OFFCURVE",
"29 24 QCURVE SMOOTH",
"24 24 OFFCURVE",
"24 5 QCURVE SMOOTH",
"24 -2 OFFCURVE",
"25 -3 QCURVE",
"136 2 OFFCURVE",
"136 2 QCURVE",
"160 2 OFFCURVE",
"253 -3 QCURVE"
);
}
);
};
layerId = "720C727D-0ED9-429E-914E-55EB9E513E33";
paths = (
{
closed = 1;
nodes = (
"99 0.333 OFFCURVE",
"136 2 OFFCURVE",
"136 2 CURVE",
"152 2 OFFCURVE",
"191 0.333 OFFCURVE",
"253 -3 CURVE",
"257 1 OFFCURVE",
"259 7.333 OFFCURVE",
"259 16 CURVE SMOOTH",
"259 21.333 OFFCURVE",
"258.333 24 OFFCURVE",
"257 24 CURVE",
"240 26 LINE SMOOTH",
"217.333 28.667 OFFCURVE",
"189 38.333 OFFCURVE",
"189 49 CURVE SMOOTH",
"189 75 OFFCURVE",
"191.667 101.333 OFFCURVE",
"197 128 CURVE SMOOTH",
"231 300 LINE SMOOTH",
"232.333 306 OFFCURVE",
"255 309 OFFCURVE",
"299 309 CURVE SMOOTH",
"357 309 OFFCURVE",
"389.333 306.333 OFFCURVE",
"396 301 CURVE SMOOTH",
"407.894 291.485 OFFCURVE",
"409.808 270.196 OFFCURVE",
"411 238 CURVE",
"411.667 232.667 OFFCURVE",
"416.333 230 OFFCURVE",
"425 230 CURVE SMOOTH",
"430.333 230 OFFCURVE",
"435 231.333 OFFCURVE",
"439 234 CURVE",
"476 426 LINE",
"474 429.333 OFFCURVE",
"469 431 OFFCURVE",
"461 431 CURVE SMOOTH",
"453.667 431 OFFCURVE",
"449 428.667 OFFCURVE",
"447 424 CURVE SMOOTH",
"416.333 354.667 OFFCURVE",
"414 353 OFFCURVE",
"326 353 CURVE SMOOTH",
"281 353 LINE SMOOTH",
"262.701 353 OFFCURVE",
"244 353.408 OFFCURVE",
"244 361 CURVE",
"276 536 LINE SMOOTH",
"280.667 560.667 OFFCURVE",
"286.667 583 OFFCURVE",
"294 603 CURVE SMOOTH",
"297.333 611.667 OFFCURVE",
"322.667 616 OFFCURVE",
"370 616 CURVE SMOOTH",
"424 616 LINE SMOOTH",
"490.667 616 OFFCURVE",
"519 604.667 OFFCURVE",
"523 530 CURVE",
"523 525.333 OFFCURVE",
"527 523 OFFCURVE",
"535 523 CURVE SMOOTH",
"543.667 523 OFFCURVE",
"549.667 524.667 OFFCURVE",
"553 528 CURVE",
"553 538.667 OFFCURVE",
"552.667 554.667 OFFCURVE",
"552 576 CURVE SMOOTH",
"551.333 597.333 OFFCURVE",
"551 613.667 OFFCURVE",
"551 625 CURVE SMOOTH",
"551 641.667 OFFCURVE",
"551.333 654.667 OFFCURVE",
"552 664 CURVE",
"516.667 664 OFFCURVE",
"466 662.667 OFFCURVE",
"400 660 CURVE SMOOTH",
"334 657.333 OFFCURVE",
"287.667 656 OFFCURVE",
"261 656 CURVE SMOOTH",
"220.333 656 OFFCURVE",
"184.667 656.667 OFFCURVE",
"154 658 CURVE",
"149.333 653.333 OFFCURVE",
"147 645.667 OFFCURVE",
"147 635 CURVE SMOOTH",
"147 632.333 OFFCURVE",
"147.667 631 OFFCURVE",
"149 631 CURVE SMOOTH",
"163.667 631 OFFCURVE",
"203.667 617.667 OFFCURVE",
"205 607 CURVE SMOOTH",
"206.333 592.333 OFFCURVE",
"202.667 561.333 OFFCURVE",
"194 514 CURVE SMOOTH",
"122 142 LINE SMOOTH",
"114 99.333 OFFCURVE",
"105.333 68.333 OFFCURVE",
"96 49 CURVE SMOOTH",
"90.667 37 OFFCURVE",
"43.667 24 OFFCURVE",
"29 24 CURVE SMOOTH",
"25.667 24 OFFCURVE",
"24 17.667 OFFCURVE",
"24 5 CURVE SMOOTH",
"24 0.333 OFFCURVE",
"24.333 -2.333 OFFCURVE",
"25 -3 CURVE"
);
}
);
width = 503;
},
{
associatedMasterId = "720C727D-0ED9-429E-914E-55EB9E513E33";
background = {
paths = (
{
closed = 1;
nodes = (
"259 3 OFFCURVE",
"259 16 QCURVE SMOOTH",
"259 24 OFFCURVE",
"257 24 QCURVE",
"240 26 LINE SMOOTH",
"223 28 OFFCURVE",
"189 41 OFFCURVE",
"189 49 QCURVE SMOOTH",
"189 88 OFFCURVE",
"197 128 QCURVE SMOOTH",
"231 300 LINE SMOOTH",
"233 309 OFFCURVE",
"299 309 QCURVE SMOOTH",
"386 309 OFFCURVE",
"396 301 QCURVE SMOOTH",
"401 297 OFFCURVE",
"404 292 OFFCURVE",
"410 265 OFFCURVE",
"411 238 QCURVE",
"412 230 OFFCURVE",
"425 230 QCURVE SMOOTH",
"433 230 OFFCURVE",
"439 234 QCURVE",
"476 426 LINE",
"473 431 OFFCURVE",
"461 431 QCURVE SMOOTH",
"450 431 OFFCURVE",
"447 424 QCURVE SMOOTH",
"424 372 OFFCURVE",
"392 353 OFFCURVE",
"326 353 QCURVE SMOOTH",
"281 353 LINE SMOOTH",
"273 353 OFFCURVE",
"261 354 OFFCURVE",
"249 355 OFFCURVE",
"244 358 OFFCURVE",
"244 361 QCURVE",
"276 536 LINE SMOOTH",
"283 573 OFFCURVE",
"294 603 QCURVE SMOOTH",
"299 616 OFFCURVE",
"370 616 QCURVE SMOOTH",
"424 616 LINE SMOOTH",
"474 616 OFFCURVE",
"520 586 OFFCURVE",
"523 530 QCURVE",
"523 523 OFFCURVE",
"535 523 QCURVE SMOOTH",
"548 523 OFFCURVE",
"553 528 QCURVE",
"553 544 OFFCURVE",
"551 608 OFFCURVE",
"551 625 QCURVE SMOOTH",
"551 650 OFFCURVE",
"552 664 QCURVE",
"499 664 OFFCURVE",
"301 656 OFFCURVE",
"261 656 QCURVE SMOOTH",
"200 656 OFFCURVE",
"154 658 QCURVE",
"147 651 OFFCURVE",
"147 635 QCURVE SMOOTH",
"147 631 OFFCURVE",
"149 631 QCURVE SMOOTH",
"160 631 OFFCURVE",
"204 615 OFFCURVE",
"205 607 QCURVE SMOOTH",
"207 585 OFFCURVE",
"194 514 QCURVE SMOOTH",
"122 142 LINE SMOOTH",
"110 78 OFFCURVE",
"96 49 QCURVE SMOOTH",
"92 40 OFFCURVE",
"40 24 OFFCURVE",
"29 24 QCURVE SMOOTH",
"24 24 OFFCURVE",
"24 5 QCURVE SMOOTH",
"24 -2 OFFCURVE",
"25 -3 QCURVE",
"136 2 OFFCURVE",
"136 2 QCURVE",
"160 2 OFFCURVE",
"253 -3 QCURVE"
);
}
);
};
layerId = "F636112F-6971-4164-BDB2-8E6746C6E08E";
name = "Mar 12 18, 15:56";
paths = (
{
closed = 1;
nodes = (
"257 1 OFFCURVE",
"259 7.333 OFFCURVE",
"259 16 CURVE SMOOTH",
"259 21.333 OFFCURVE",
"258.333 24 OFFCURVE",
"257 24 CURVE",
"240 26 LINE SMOOTH",
"217.333 28.667 OFFCURVE",
"189 38.333 OFFCURVE",
"189 49 CURVE SMOOTH",
"189 75 OFFCURVE",
"191.667 101.333 OFFCURVE",
"197 128 CURVE SMOOTH",
"231 300 LINE SMOOTH",
"232.333 306 OFFCURVE",
"255 309 OFFCURVE",
"299 309 CURVE SMOOTH",
"357 309 OFFCURVE",
"389.333 306.333 OFFCURVE",
"396 301 CURVE SMOOTH",
"407.894 291.485 OFFCURVE",
"409.808 270.196 OFFCURVE",
"411 238 CURVE",
"411.667 232.667 OFFCURVE",
"416.333 230 OFFCURVE",
"425 230 CURVE SMOOTH",
"430.333 230 OFFCURVE",
"435 231.333 OFFCURVE",
"439 234 CURVE",
"476 426 LINE",
"474 429.333 OFFCURVE",
"469 431 OFFCURVE",
"461 431 CURVE SMOOTH",
"453.667 431 OFFCURVE",
"449 428.667 OFFCURVE",
"447 424 CURVE SMOOTH",
"416.333 354.667 OFFCURVE",
"414 353 OFFCURVE",
"326 353 CURVE SMOOTH",
"281 353 LINE SMOOTH",
"262.701 353 OFFCURVE",
"244 353.408 OFFCURVE",
"244 361 CURVE",
"276 536 LINE SMOOTH",
"280.667 560.667 OFFCURVE",
"286.667 583 OFFCURVE",
"294 603 CURVE SMOOTH",
"297.333 611.667 OFFCURVE",
"322.667 616 OFFCURVE",
"370 616 CURVE SMOOTH",
"424 616 LINE SMOOTH",
"490.667 616 OFFCURVE",
"519 604.667 OFFCURVE",
"523 530 CURVE",
"523 525.333 OFFCURVE",
"527 523 OFFCURVE",
"535 523 CURVE SMOOTH",
"543.667 523 OFFCURVE",
"549.667 524.667 OFFCURVE",
"553 528 CURVE",
"553 538.667 OFFCURVE",
"552.667 554.667 OFFCURVE",
"552 576 CURVE SMOOTH",
"551.333 597.333 OFFCURVE",
"551 613.667 OFFCURVE",
"551 625 CURVE SMOOTH",
"551 641.667 OFFCURVE",
"551.333 654.667 OFFCURVE",
"552 664 CURVE",
"516.667 664 OFFCURVE",
"466 662.667 OFFCURVE",
"400 660 CURVE SMOOTH",
"334 657.333 OFFCURVE",
"287.667 656 OFFCURVE",
"261 656 CURVE SMOOTH",
"220.333 656 OFFCURVE",
"184.667 656.667 OFFCURVE",
"154 658 CURVE",
"149.333 653.333 OFFCURVE",
"147 645.667 OFFCURVE",
"147 635 CURVE SMOOTH",
"147 632.333 OFFCURVE",
"147.667 631 OFFCURVE",
"149 631 CURVE SMOOTH",
"163.667 631 OFFCURVE",
"203.667 617.667 OFFCURVE",
"205 607 CURVE SMOOTH",
"206.333 592.333 OFFCURVE",
"202.667 561.333 OFFCURVE",
"194 514 CURVE SMOOTH",
"122 142 LINE SMOOTH",
"114 99.333 OFFCURVE",
"105.333 68.333 OFFCURVE",
"96 49 CURVE SMOOTH",
"90.667 37 OFFCURVE",
"43.667 24 OFFCURVE",
"29 24 CURVE SMOOTH",
"25.667 24 OFFCURVE",
"24 17.667 OFFCURVE",
"24 5 CURVE SMOOTH",
"24 0.333 OFFCURVE",
"24.333 -2.333 OFFCURVE",
"25 -3 CURVE",
"99 0.333 OFFCURVE",
"136 2 OFFCURVE",
"136 2 CURVE",
"152 2 OFFCURVE",
"191 0.333 OFFCURVE",
"253 -3 CURVE"
);
}
);
width = 503;
},
{
associatedMasterId = "720C727D-0ED9-429E-914E-55EB9E513E33";
layerId = "0D877315-DF3C-45D1-B0FD-64411BECD05E";
name = "Mar 12 18, 16:00";
paths = (
{
closed = 1;
nodes = (
"120 659 OFFCURVE",
"116 637 OFFCURVE",
"118 633 QCURVE",
"132 633 OFFCURVE",
"179 624 OFFCURVE",
"179 617 QCURVE",
"181 599 OFFCURVE",
"170 543 QCURVE SMOOTH",
"87 116 LINE SMOOTH",
"75 56 OFFCURVE",
"68 42 QCURVE",
"65 35 OFFCURVE",
"14 26 OFFCURVE",
"0 26 QCURVE",
"-4 22 OFFCURVE",
"-8 1 OFFCURVE",
"-5 -3 QCURVE",
"12 -3 OFFCURVE",
"82 2 OFFCURVE",
"105 2 QCURVE SMOOTH",
"127 2 OFFCURVE",
"222 -3 QCURVE",
"227 1 OFFCURVE",
"231 23 OFFCURVE",
"228 26 QCURVE",
"213 26 OFFCURVE",
"159 35 OFFCURVE",
"158 42 QCURVE",
"156 60 OFFCURVE",
"167 116 QCURVE SMOOTH",
"204 307 LINE SMOOTH",
"206 316 OFFCURVE",
"273 316 QCURVE SMOOTH",
"360 316 OFFCURVE",
"370 308 QCURVE",
"376 303 OFFCURVE",
"381 279 OFFCURVE",
"383 238 QCURVE",
"385 230 OFFCURVE",
"396 230 QCURVE SMOOTH",
"408 230 OFFCURVE",
"412 234 QCURVE",
"448 423 LINE",
"445 428 OFFCURVE",
"434 428 QCURVE SMOOTH",
"421 428 OFFCURVE",
"418 421 QCURVE SMOOTH",
"417 418 OFFCURVE",
"414 412 QCURVE SMOOTH",
"408 397 OFFCURVE",
"399 378 OFFCURVE",
"387 363 OFFCURVE",
"375 355 OFFCURVE",
"351 350 OFFCURVE",
"325 349 OFFCURVE",
"302 349 QCURVE SMOOTH",
"253 349 LINE SMOOTH",
"245 349 OFFCURVE",
"232 350 OFFCURVE",
"220 351 OFFCURVE",
"214 353 OFFCURVE",
"214 355 QCURVE",
"251 547 LINE SMOOTH",
"261 598 OFFCURVE",
"271 619 QCURVE SMOOTH",
"277 630 OFFCURVE",
"337 630 QCURVE SMOOTH",
"417 630 LINE SMOOTH",
"457 630 OFFCURVE",
"502 587 OFFCURVE",
"505 530 QCURVE",
"505 523 OFFCURVE",
"516 523 QCURVE SMOOTH",
"529 523 OFFCURVE",
"534 528 QCURVE",
"534 537 OFFCURVE",
"531 652 OFFCURVE",
"533 664 QCURVE",
"481 664 OFFCURVE",
"275 657 OFFCURVE",
"233 657 QCURVE SMOOTH",
"219 657 OFFCURVE",
"124 662 QCURVE"
);
}
);
width = 508;
},
{
layerId = "DEDDD934-E4FE-4A27-B966-8C21F8A9BC34";
paths = (
{
closed = 1;
nodes = (
"253 657 CURVE SMOOTH",
"292 657 OFFCURVE",
"502 663 OFFCURVE",
"557 664 CURVE",
"554 614 OFFCURVE",
"555 561 OFFCURVE",
"555 516 CURVE",
"552 513 OFFCURVE",
"539 511 OFFCURVE",
"532 511 CURVE SMOOTH",
"525 511 OFFCURVE",
"520 514 OFFCURVE",
"519 519 CURVE SMOOTH",
"510 574 OFFCURVE",
"495 620 OFFCURVE",
"438 620 CURVE SMOOTH",
"361 620 LINE SMOOTH",
"340 620 OFFCURVE",
"319 619 OFFCURVE",
"312 608 CURVE SMOOTH",
"305 596 OFFCURVE",
"302 576 OFFCURVE",
"296 547 CURVE SMOOTH",
"260 364 LINE SMOOTH",
"259 358 OFFCURVE",
"278 353 OFFCURVE",
"298 353 CURVE SMOOTH",
"347 353 LINE SMOOTH",
"402 353 OFFCURVE",
"417 365 OFFCURVE",
"443 423 CURVE SMOOTH",
"445 428 OFFCURVE",
"448 431 OFFCURVE",
"455 431 CURVE SMOOTH",
"462 431 OFFCURVE",
"470 429 OFFCURVE",
"472 426 CURVE",
"435 234 LINE",
"433 232 OFFCURVE",
"424 230 OFFCURVE",
"417 230 CURVE SMOOTH",
"410 230 OFFCURVE",
"406 233 OFFCURVE",
"406 238 CURVE SMOOTH",
"404 286 OFFCURVE",
"393 295 OFFCURVE",
"385 299 CURVE SMOOTH",
"375 304 OFFCURVE",
"351 306 OFFCURVE",
"316 306 CURVE SMOOTH",
"290 306 OFFCURVE",
"248 304 OFFCURVE",
"246 292 CURVE SMOOTH",
"218 145 LINE SMOOTH",
"210 102 OFFCURVE",
"203 71 OFFCURVE",
"207 51 CURVE SMOOTH",
"209 38 OFFCURVE",
"259 34 OFFCURVE",
"271 33 CURVE",
"274 26 OFFCURVE",
"269 2 OFFCURVE",
"264 -4 CURVE",
"229 0 OFFCURVE",
"163 3 OFFCURVE",
"124 3 CURVE SMOOTH",
"85 3 OFFCURVE",
"28 0 OFFCURVE",
"-9 -4 CURVE",
"-12 2 OFFCURVE",
"-7 26 OFFCURVE",
"-1 33 CURVE",
"11 34 OFFCURVE",
"55 38 OFFCURVE",
"62 51 CURVE SMOOTH",
"73 71 OFFCURVE",
"79 102 OFFCURVE",
"87 145 CURVE SMOOTH",
"159 513 LINE SMOOTH",
"167 556 OFFCURVE",
"174 587 OFFCURVE",
"170 607 CURVE SMOOTH",
"168 620 OFFCURVE",
"125 622 OFFCURVE",
"113 623 CURVE",
"110 630 OFFCURVE",
"116 654 OFFCURVE",
"121 660 CURVE",
"162 657 OFFCURVE",
"214 657 OFFCURVE"
);
}
);
width = 525;
}
);
note = F;
unicode = 0046;
},
{
color = 3;
glyphname = G;
lastChange = "2018-06-05 09:43:46 +0000";
layers = (
{
background = {
paths = (
{
closed = 1;
nodes = (
"60 143 OFFCURVE",
"193 -6 OFFCURVE",
"299 -6 QCURVE SMOOTH",
"323 -6 OFFCURVE",
"368 -3 OFFCURVE",
"400 0 OFFCURVE",
"438 8 OFFCURVE",
"458 12 OFFCURVE",
"493 23 OFFCURVE",
"503 27 OFFCURVE",
"538 40 OFFCURVE",
"540 41 QCURVE",
"550 45 OFFCURVE",
"561 53 OFFCURVE",
"563 58 OFFCURVE",
"563 63 QCURVE SMOOTH",
"563 66 OFFCURVE",
"561 83 OFFCURVE",
"561 90 QCURVE SMOOTH",
"561 91 OFFCURVE",
"562 96 OFFCURVE",
"562 97 QCURVE",
"586 236 LINE SMOOTH",
"589 255 OFFCURVE",
"643 274 OFFCURVE",
"660 274 QCURVE SMOOTH",
"666 274 OFFCURVE",
"666 301 QCURVE",
"571 296 OFFCURVE",
"557 296 QCURVE SMOOTH",
"556 296 OFFCURVE",
"448 301 QCURVE",
"440 293 OFFCURVE",
"440 279 QCURVE SMOOTH",
"440 274 OFFCURVE",
"442 274 QCURVE SMOOTH",
"455 274 OFFCURVE",
"511 257 OFFCURVE",
"511 248 QCURVE SMOOTH",
"511 242 OFFCURVE",
"509 227 OFFCURVE",
"508 222 QCURVE",
"507 218 LINE",
"479 76 LINE SMOOTH",
"476 63 OFFCURVE",
"468 59 QCURVE SMOOTH",
"425 37 OFFCURVE",
"343 37 QCURVE SMOOTH",
"255 37 OFFCURVE",
"155 177 OFFCURVE",
"155 273 QCURVE SMOOTH",
"155 353 OFFCURVE",
"230 516 OFFCURVE",
"361 625 OFFCURVE",
"434 625 QCURVE SMOOTH",
"480 625 OFFCURVE",
"546 601 OFFCURVE",
"577 571 OFFCURVE",
"595 526 OFFCURVE",
"597 503 OFFCURVE",
"597 488 QCURVE",
"599 483 OFFCURVE",
"608 483 QCURVE SMOOTH",
"630 483 OFFCURVE",
"631 492 QCURVE",
"637 523 OFFCURVE",
"652 622 QCURVE",
"507 667 OFFCURVE",
"439 667 QCURVE SMOOTH",
"340 667 OFFCURVE",
"162 542 OFFCURVE",
"60 351 OFFCURVE",
"60 254 QCURVE SMOOTH"
);
}
);
};
layerId = "720C727D-0ED9-429E-914E-55EB9E513E33";
paths = (
{
closed = 1;
nodes = (
"361.175 -6 OFFCURVE",
"397.105 -0.179 OFFCURVE",
"448 10 CURVE SMOOTH",
"462.66 12.932 OFFCURVE",
"528.841 35.421 OFFCURVE",
"540 41 CURVE",
"556.006 47.402 OFFCURVE",
"563 52.299 OFFCURVE",
"563 63 CURVE SMOOTH",
"563 65 OFFCURVE",
"562.667 68.833 OFFCURVE",
"562 74.5 CURVE SMOOTH",
"561.333 80.167 OFFCURVE",
"561 85.333 OFFCURVE",
"561 90 CURVE SMOOTH",
"561 90.667 OFFCURVE",
"561.167 91.833 OFFCURVE",
"561.5 93.5 CURVE SMOOTH",
"561.833 95.167 OFFCURVE",
"562 96.333 OFFCURVE",
"562 97 CURVE",
"586 236 LINE SMOOTH",
"590 261.333 OFFCURVE",
"637.333 274 OFFCURVE",
"660 274 CURVE SMOOTH",
"664 274 OFFCURVE",
"666 283 OFFCURVE",
"666 301 CURVE",
"602.667 297.667 OFFCURVE",
"566.333 296 OFFCURVE",
"557 296 CURVE SMOOTH",
"556.333 296 OFFCURVE",
"520 297.667 OFFCURVE",
"448 301 CURVE",
"442.667 295.667 OFFCURVE",
"440 288.333 OFFCURVE",
"440 279 CURVE SMOOTH",
"440 275.667 OFFCURVE",
"440.667 274 OFFCURVE",
"442 274 CURVE SMOOTH",
"459.333 274 OFFCURVE",
"511 260 OFFCURVE",
"511 248 CURVE SMOOTH",
"511 240 OFFCURVE",
"509.333 228.667 OFFCURVE",
"508 222 CURVE",
"507 218 LINE",
"479 76 LINE SMOOTH",
"477 67.333 OFFCURVE",
"473.333 61.667 OFFCURVE",
"468 59 CURVE SMOOTH",
"439.333 44.333 OFFCURVE",
"397.667 37 OFFCURVE",
"343 37 CURVE SMOOTH",
"225.667 37 OFFCURVE",
"155 145 OFFCURVE",
"155 273 CURVE SMOOTH",
"155 379.667 OFFCURVE",
"208.167 497.833 OFFCURVE",
"295.5 570.5 CURVE SMOOTH",
"339.167 606.833 OFFCURVE",
"385.333 625 OFFCURVE",
"434 625 CURVE SMOOTH",
"495.333 625 OFFCURVE",
"540.833 606 OFFCURVE",
"561.5 586 CURVE SMOOTH",
"582.167 566 OFFCURVE",
"594.333 538.667 OFFCURVE",
"597 488 CURVE",
"598.333 484.667 OFFCURVE",
"602 483 OFFCURVE",
"608 483 CURVE SMOOTH",
"622.667 483 OFFCURVE",
"630.333 486 OFFCURVE",
"631 492 CURVE",
"635 512.667 OFFCURVE",
"642 556 OFFCURVE",
"652 622 CURVE",
"555.333 652 OFFCURVE",
"484.333 667 OFFCURVE",
"439 667 CURVE SMOOTH",
"307 667 OFFCURVE",
"179 573.833 OFFCURVE",
"111 446.5 CURVE SMOOTH",
"77 382.833 OFFCURVE",
"60 318.667 OFFCURVE",
"60 254 CURVE SMOOTH",
"60 106 OFFCURVE",
"157.667 -6 OFFCURVE",
"299 -6 CURVE SMOOTH"
);
}
);
width = 616;
},
{
associatedMasterId = "720C727D-0ED9-429E-914E-55EB9E513E33";
background = {
paths = (
{
closed = 1;
nodes = (
"60 143 OFFCURVE",
"193 -6 OFFCURVE",
"299 -6 QCURVE SMOOTH",
"323 -6 OFFCURVE",
"368 -3 OFFCURVE",
"400 0 OFFCURVE",
"438 8 OFFCURVE",
"458 12 OFFCURVE",
"493 23 OFFCURVE",
"503 27 OFFCURVE",
"538 40 OFFCURVE",
"540 41 QCURVE",
"550 45 OFFCURVE",
"561 53 OFFCURVE",
"563 58 OFFCURVE",
"563 63 QCURVE SMOOTH",
"563 66 OFFCURVE",
"561 83 OFFCURVE",
"561 90 QCURVE SMOOTH",
"561 91 OFFCURVE",
"562 96 OFFCURVE",
"562 97 QCURVE",
"586 236 LINE SMOOTH",
"589 255 OFFCURVE",
"643 274 OFFCURVE",
"660 274 QCURVE SMOOTH",
"666 274 OFFCURVE",
"666 301 QCURVE",
"571 296 OFFCURVE",
"557 296 QCURVE SMOOTH",
"556 296 OFFCURVE",
"448 301 QCURVE",
"440 293 OFFCURVE",
"440 279 QCURVE SMOOTH",
"440 274 OFFCURVE",
"442 274 QCURVE SMOOTH",
"455 274 OFFCURVE",
"511 257 OFFCURVE",
"511 248 QCURVE SMOOTH",
"511 242 OFFCURVE",
"509 227 OFFCURVE",
"508 222 QCURVE",
"507 218 LINE",
"479 76 LINE SMOOTH",
"476 63 OFFCURVE",
"468 59 QCURVE SMOOTH",
"425 37 OFFCURVE",
"343 37 QCURVE SMOOTH",
"255 37 OFFCURVE",
"155 177 OFFCURVE",
"155 273 QCURVE SMOOTH",
"155 353 OFFCURVE",
"230 516 OFFCURVE",
"361 625 OFFCURVE",
"434 625 QCURVE SMOOTH",
"480 625 OFFCURVE",
"546 601 OFFCURVE",
"577 571 OFFCURVE",
"595 526 OFFCURVE",
"597 503 OFFCURVE",
"597 488 QCURVE",
"599 483 OFFCURVE",
"608 483 QCURVE SMOOTH",
"630 483 OFFCURVE",
"631 492 QCURVE",
"637 523 OFFCURVE",
"652 622 QCURVE",
"507 667 OFFCURVE",
"439 667 QCURVE SMOOTH",
"340 667 OFFCURVE",
"162 542 OFFCURVE",
"60 351 OFFCURVE",
"60 254 QCURVE SMOOTH"
);
}
);
};
layerId = "C4C2B28D-A80C-4D1C-BEFC-8207B5960278";
name = "Mar 12 18, 15:56";
paths = (
{
closed = 1;
nodes = (
"60 106 OFFCURVE",
"157.667 -6 OFFCURVE",
"299 -6 CURVE SMOOTH",
"361.175 -6 OFFCURVE",
"397.105 -0.179 OFFCURVE",
"448 10 CURVE SMOOTH",
"462.66 12.932 OFFCURVE",
"528.841 35.421 OFFCURVE",
"540 41 CURVE",
"556.006 47.402 OFFCURVE",
"563 52.299 OFFCURVE",
"563 63 CURVE SMOOTH",
"563 65 OFFCURVE",
"562.667 68.833 OFFCURVE",
"562 74.5 CURVE SMOOTH",
"561.333 80.167 OFFCURVE",
"561 85.333 OFFCURVE",
"561 90 CURVE SMOOTH",
"561 90.667 OFFCURVE",
"561.167 91.833 OFFCURVE",
"561.5 93.5 CURVE SMOOTH",
"561.833 95.167 OFFCURVE",
"562 96.333 OFFCURVE",
"562 97 CURVE",
"586 236 LINE SMOOTH",
"590 261.333 OFFCURVE",
"637.333 274 OFFCURVE",
"660 274 CURVE SMOOTH",
"664 274 OFFCURVE",
"666 283 OFFCURVE",
"666 301 CURVE",
"602.667 297.667 OFFCURVE",
"566.333 296 OFFCURVE",
"557 296 CURVE SMOOTH",
"556.333 296 OFFCURVE",
"520 297.667 OFFCURVE",
"448 301 CURVE",
"442.667 295.667 OFFCURVE",
"440 288.333 OFFCURVE",
"440 279 CURVE SMOOTH",
"440 275.667 OFFCURVE",
"440.667 274 OFFCURVE",
"442 274 CURVE SMOOTH",
"459.333 274 OFFCURVE",
"511 260 OFFCURVE",
"511 248 CURVE SMOOTH",
"511 240 OFFCURVE",
"509.333 228.667 OFFCURVE",
"508 222 CURVE",
"507 218 LINE",
"479 76 LINE SMOOTH",
"477 67.333 OFFCURVE",
"473.333 61.667 OFFCURVE",
"468 59 CURVE SMOOTH",
"439.333 44.333 OFFCURVE",
"397.667 37 OFFCURVE",
"343 37 CURVE SMOOTH",
"225.667 37 OFFCURVE",
"155 145 OFFCURVE",
"155 273 CURVE SMOOTH",
"155 379.667 OFFCURVE",
"208.167 497.833 OFFCURVE",
"295.5 570.5 CURVE SMOOTH",
"339.167 606.833 OFFCURVE",
"385.333 625 OFFCURVE",
"434 625 CURVE SMOOTH",
"495.333 625 OFFCURVE",
"540.833 606 OFFCURVE",
"561.5 586 CURVE SMOOTH",
"582.167 566 OFFCURVE",
"594.333 538.667 OFFCURVE",
"597 488 CURVE",
"598.333 484.667 OFFCURVE",
"602 483 OFFCURVE",
"608 483 CURVE SMOOTH",
"622.667 483 OFFCURVE",
"630.333 486 OFFCURVE",
"631 492 CURVE",
"635 512.667 OFFCURVE",
"642 556 OFFCURVE",
"652 622 CURVE",
"555.333 652 OFFCURVE",
"484.333 667 OFFCURVE",
"439 667 CURVE SMOOTH",
"307 667 OFFCURVE",
"179 573.833 OFFCURVE",
"111 446.5 CURVE SMOOTH",
"77 382.833 OFFCURVE",
"60 318.667 OFFCURVE",
"60 254 CURVE SMOOTH"
);
}
);
width = 616;
},
{
associatedMasterId = "720C727D-0ED9-429E-914E-55EB9E513E33";
layerId = "B6082F37-39A6-481C-8B78-55AE6CF8B2BB";
name = "Mar 12 18, 16:00";
paths = (
{
closed = 1;
nodes = (
"615 489 OFFCURVE",
"616 494 QCURVE",
"616 496 OFFCURVE",
"625 619 OFFCURVE",
"626 640 QCURVE",
"524 665 OFFCURVE",
"465 666 QCURVE SMOOTH",
"403 667 OFFCURVE",
"284 634 OFFCURVE",
"181 565 OFFCURVE",
"104 469 OFFCURVE",
"59 339 OFFCURVE",
"59 192 OFFCURVE",
"127 67 OFFCURVE",
"249 -8 OFFCURVE",
"324 -8 QCURVE SMOOTH",
"406 -8 OFFCURVE",
"464 11 QCURVE SMOOTH",
"492 20 OFFCURVE",
"543 46 QCURVE SMOOTH",
"565 58 OFFCURVE",
"565 68 QCURVE SMOOTH",
"565 69 OFFCURVE",
"560 95 OFFCURVE",
"563 104 QCURVE",
"577 175 LINE SMOOTH",
"589 235 OFFCURVE",
"596 249 QCURVE SMOOTH",
"600 256 OFFCURVE",
"647 265 OFFCURVE",
"660 265 QCURVE",
"664 269 OFFCURVE",
"667 290 OFFCURVE",
"664 294 QCURVE",
"567 289 OFFCURVE",
"554 289 QCURVE SMOOTH",
"541 289 OFFCURVE",
"446 294 QCURVE",
"442 291 OFFCURVE",
"439 269 OFFCURVE",
"441 265 QCURVE",
"456 265 OFFCURVE",
"507 256 OFFCURVE",
"507 249 QCURVE",
"509 234 OFFCURVE",
"497 175 QCURVE SMOOTH",
"477 72 LINE",
"476 61 OFFCURVE",
"467 55 QCURVE SMOOTH",
"448 42 OFFCURVE",
"388 21 OFFCURVE",
"355 21 QCURVE SMOOTH",
"313 21 OFFCURVE",
"244 53 OFFCURVE",
"199 105 OFFCURVE",
"168 173 OFFCURVE",
"154 245 OFFCURVE",
"154 282 QCURVE SMOOTH",
"154 362 OFFCURVE",
"198 496 OFFCURVE",
"275 585 OFFCURVE",
"378 635 OFFCURVE",
"436 635 QCURVE SMOOTH",
"500 635 OFFCURVE",
"589 553 OFFCURVE",
"585 494 QCURVE",
"595 489 OFFCURVE",
"608 489 QCURVE SMOOTH"
);
}
);
width = 697;
},
{
layerId = "DEDDD934-E4FE-4A27-B966-8C21F8A9BC34";
paths = (
{
closed = 1;
nodes = (
"443 667 CURVE SMOOTH",
"504 667 OFFCURVE",
"585 650 OFFCURVE",
"638 638 CURVE",
"638 627 OFFCURVE",
"627 506 OFFCURVE",
"625 494 CURVE SMOOTH",
"624 488 OFFCURVE",
"614 480 OFFCURVE",
"603 480 CURVE SMOOTH",
"598 480 OFFCURVE",
"594 480 OFFCURVE",
"591 484 CURVE",
"589 523 OFFCURVE",
"560 624 OFFCURVE",
"443 624 CURVE SMOOTH",
"312 624 OFFCURVE",
"196 478 OFFCURVE",
"196 268 CURVE SMOOTH",
"196 176 OFFCURVE",
"234 37 OFFCURVE",
"365 37 CURVE SMOOTH",
"399 37 OFFCURVE",
"415 45 OFFCURVE",
"422 50 CURVE SMOOTH",
"426 53 OFFCURVE",
"430 58 OFFCURVE",
"432 67 CURVE SMOOTH",
"435 82 OFFCURVE",
"447 148 OFFCURVE",
"456 196 CURVE SMOOTH",
"460 216 OFFCURVE",
"462 225 OFFCURVE",
"461 247 CURVE SMOOTH",
"459 272 OFFCURVE",
"411 274 OFFCURVE",
"400 274 CURVE SMOOTH",
"395 274 OFFCURVE",
"401 306 OFFCURVE",
"407 311 CURVE",
"454 309 OFFCURVE",
"506 305 OFFCURVE",
"553 305 CURVE SMOOTH",
"592 305 OFFCURVE",
"625 309 OFFCURVE",
"663 311 CURVE",
"664 298 OFFCURVE",
"658 274 OFFCURVE",
"655 274 CURVE",
"648 274 OFFCURVE",
"620 268 OFFCURVE",
"608 261 CURVE SMOOTH",
"602 257 OFFCURVE",
"593 237 OFFCURVE",
"589 218 CURVE SMOOTH",
"582 181 OFFCURVE",
"573 132 OFFCURVE",
"566 98 CURVE SMOOTH",
"564 89 OFFCURVE",
"567 74 OFFCURVE",
"566 69 CURVE SMOOTH",
"564 58 OFFCURVE",
"542 42 OFFCURVE",
"529 36 CURVE SMOOTH",
"476 10 OFFCURVE",
"423 -7 OFFCURVE",
"337 -7 CURVE SMOOTH",
"142 -7 OFFCURVE",
"52 142 OFFCURVE",
"52 276 CURVE SMOOTH",
"52 526 OFFCURVE",
"266 667 OFFCURVE"
);
}
);
width = 678;
}
);
note = G;
unicode = 0047;
},
{
color = 4;
glyphname = H;
lastChange = "2018-06-05 09:43:46 +0000";
layers = (
{
background = {
paths = (
{
closed = 1;
nodes = (
"436 0 OFFCURVE",
"480 2 OFFCURVE",
"507 2 CURVE SMOOTH",
"534 2 OFFCURVE",
"578 0 OFFCURVE",
"623 -3 CURVE",
"629 2 OFFCURVE",
"633 28 OFFCURVE",
"629 33 CURVE",
"602 33 OFFCURVE",
"569 42 OFFCURVE",
"565 49 CURVE SMOOTH",
"562 54 OFFCURVE",
"562 86 OFFCURVE",
"588 217 CURVE SMOOTH",
"632 442 LINE SMOOTH",
"658 573 OFFCURVE",
"669 604 OFFCURVE",
"673 608 CURVE SMOOTH",
"681 616 OFFCURVE",
"718 624 OFFCURVE",
"745 626 CURVE",
"751 631 OFFCURVE",
"755 657 OFFCURVE",
"751 662 CURVE",
"704 659 OFFCURVE",
"660 657 OFFCURVE",
"633 657 CURVE SMOOTH",
"606 657 OFFCURVE",
"562 659 OFFCURVE",
"517 662 CURVE",
"511 657 OFFCURVE",
"507 631 OFFCURVE",
"511 626 CURVE",
"538 626 OFFCURVE",
"571 617 OFFCURVE",
"575 610 CURVE SMOOTH",
"578 605 OFFCURVE",
"578 573 OFFCURVE",
"552 442 CURVE SMOOTH",
"508 217 LINE SMOOTH",
"482 86 OFFCURVE",
"471 55 OFFCURVE",
"467 51 CURVE SMOOTH",
"459 43 OFFCURVE",
"422 35 OFFCURVE",
"395 33 CURVE",
"389 28 OFFCURVE",
"385 2 OFFCURVE",
"389 -3 CURVE"
);
},
{
closed = 1;
nodes = (
"42 0 OFFCURVE",
"86 2 OFFCURVE",
"113 2 CURVE SMOOTH",
"140 2 OFFCURVE",
"184 0 OFFCURVE",
"229 -3 CURVE",
"235 2 OFFCURVE",
"239 28 OFFCURVE",
"235 33 CURVE",
"208 33 OFFCURVE",
"175 42 OFFCURVE",
"171 49 CURVE SMOOTH",
"168 54 OFFCURVE",
"168 86 OFFCURVE",
"194 217 CURVE SMOOTH",
"238 442 LINE SMOOTH",
"264 573 OFFCURVE",
"275 604 OFFCURVE",
"279 608 CURVE SMOOTH",
"287 616 OFFCURVE",
"324 624 OFFCURVE",
"351 626 CURVE",
"357 631 OFFCURVE",
"361 657 OFFCURVE",
"357 662 CURVE",
"310 659 OFFCURVE",
"266 657 OFFCURVE",
"239 657 CURVE SMOOTH",
"212 657 OFFCURVE",
"168 659 OFFCURVE",
"123 662 CURVE",
"117 657 OFFCURVE",
"113 631 OFFCURVE",
"117 626 CURVE",
"144 626 OFFCURVE",
"177 617 OFFCURVE",
"181 610 CURVE SMOOTH",
"184 605 OFFCURVE",
"184 573 OFFCURVE",
"158 442 CURVE SMOOTH",
"114 217 LINE SMOOTH",
"88 86 OFFCURVE",
"77 55 OFFCURVE",
"73 51 CURVE SMOOTH",
"65 43 OFFCURVE",
"28 35 OFFCURVE",
"1 33 CURVE",
"-5 28 OFFCURVE",
"-9 2 OFFCURVE",
"-5 -3 CURVE"
);
},
{
closed = 1;
nodes = (
"240 313 OFFCURVE",
"313 315 OFFCURVE",
"371 315 CURVE SMOOTH",
"427 315 OFFCURVE",
"500 313 OFFCURVE",
"533 311 CURVE",
"544 368 LINE",
"514 366 OFFCURVE",
"438 364 OFFCURVE",
"381 364 CURVE SMOOTH",
"323 364 OFFCURVE",
"246 366 OFFCURVE",
"216 368 CURVE",
"205 311 LINE"
);
}
);
};
layerId = "720C727D-0ED9-429E-914E-55EB9E513E33";
paths = (
{
closed = 1;
nodes = (
"435 0 OFFCURVE",
"481 2 OFFCURVE",
"507 2 CURVE SMOOTH",
"533 2 OFFCURVE",
"579 0 OFFCURVE",
"621 -3 CURVE",
"630 33 LINE",
"604 34 OFFCURVE",
"570 44 OFFCURVE",
"563 48 CURVE",
"561 55 OFFCURVE",
"563 83 OFFCURVE",
"589 217 CURVE SMOOTH",
"633 442 LINE SMOOTH",
"659 576 OFFCURVE",
"667 604 OFFCURVE",
"673 611 CURVE",
"680 615 OFFCURVE",
"718 625 OFFCURVE",
"746 626 CURVE",
"749 662 LINE",
"705 659 OFFCURVE",
"659 657 OFFCURVE",
"633 657 CURVE SMOOTH",
"607 657 OFFCURVE",
"561 659 OFFCURVE",
"519 662 CURVE",
"510 626 LINE",
"536 625 OFFCURVE",
"570 615 OFFCURVE",
"577 611 CURVE",
"579 604 OFFCURVE",
"577 576 OFFCURVE",
"551 442 CURVE SMOOTH",
"507 217 LINE SMOOTH",
"481 83 OFFCURVE",
"473 55 OFFCURVE",
"467 48 CURVE",
"460 44 OFFCURVE",
"422 34 OFFCURVE",
"394 33 CURVE",
"391 -3 LINE"
);
},
{
closed = 1;
nodes = (
"41 0 OFFCURVE",
"87 2 OFFCURVE",
"113 2 CURVE SMOOTH",
"139 2 OFFCURVE",
"185 0 OFFCURVE",
"227 -3 CURVE",
"236 33 LINE",
"210 34 OFFCURVE",
"176 44 OFFCURVE",
"169 48 CURVE",
"167 55 OFFCURVE",
"169 83 OFFCURVE",
"195 217 CURVE SMOOTH",
"239 442 LINE SMOOTH",
"265 576 OFFCURVE",
"273 604 OFFCURVE",
"279 611 CURVE",
"286 615 OFFCURVE",
"324 625 OFFCURVE",
"352 626 CURVE",
"355 662 LINE",
"311 659 OFFCURVE",
"265 657 OFFCURVE",
"239 657 CURVE SMOOTH",
"213 657 OFFCURVE",
"167 659 OFFCURVE",
"125 662 CURVE",
"116 626 LINE",
"142 625 OFFCURVE",
"176 615 OFFCURVE",
"183 611 CURVE",
"185 604 OFFCURVE",
"183 576 OFFCURVE",
"157 442 CURVE SMOOTH",
"113 217 LINE SMOOTH",
"87 83 OFFCURVE",
"79 55 OFFCURVE",
"73 48 CURVE",
"66 44 OFFCURVE",
"28 34 OFFCURVE",
"0 33 CURVE",
"-3 -3 LINE"
);
},
{
closed = 1;
nodes = (
"240 313 OFFCURVE",
"313 315 OFFCURVE",
"371 315 CURVE SMOOTH",
"427 315 OFFCURVE",
"500 313 OFFCURVE",
"533 311 CURVE",
"544 368 LINE",
"514 366 OFFCURVE",
"438 364 OFFCURVE",
"381 364 CURVE SMOOTH",
"323 364 OFFCURVE",
"246 366 OFFCURVE",
"216 368 CURVE",
"205 311 LINE"
);
}
);
width = 702;
},
{
associatedMasterId = "720C727D-0ED9-429E-914E-55EB9E513E33";
background = {
paths = (
{
closed = 1;
nodes = (
"247 374 LINE",
"272 515 LINE SMOOTH",
"282 571 OFFCURVE",
"298 608 QCURVE SMOOTH",
"301 615 OFFCURVE",
"352 631 OFFCURVE",
"360 631 QCURVE SMOOTH",
"367 631 OFFCURVE",
"367 655 QCURVE SMOOTH",
"367 658 LINE",
"360 658 OFFCURVE",
"285 652 OFFCURVE",
"261 652 QCURVE SMOOTH",
"236 652 OFFCURVE",
"165 657 OFFCURVE",
"153 658 QCURVE",
"145 650 OFFCURVE",
"145 636 QCURVE SMOOTH",
"145 631 OFFCURVE",
"147 631 QCURVE SMOOTH",
"160 631 OFFCURVE",
"203 615 OFFCURVE",
"203 604 QCURVE SMOOTH",
"203 567 OFFCURVE",
"192 512 QCURVE SMOOTH",
"121 142 LINE SMOOTH",
"110 80 OFFCURVE",
"95 46 QCURVE SMOOTH",
"91 37 OFFCURVE",
"43 24 OFFCURVE",
"31 24 QCURVE SMOOTH",
"24 24 OFFCURVE",
"24 5 QCURVE SMOOTH",
"24 -1 OFFCURVE",
"26 -3 QCURVE",
"134 2 OFFCURVE",
"136 2 QCURVE SMOOTH",
"148 2 OFFCURVE",
"240 -3 QCURVE",
"246 9 OFFCURVE",
"246 20 QCURVE SMOOTH",
"246 24 OFFCURVE",
"244 24 QCURVE",
"230 26 LINE SMOOTH",
"217 28 OFFCURVE",
"190 41 OFFCURVE",
"190 49 QCURVE SMOOTH",
"190 84 OFFCURVE",
"201 139 QCURVE SMOOTH",
"233 304 LINE SMOOTH",
"235 316 OFFCURVE",
"379 316 QCURVE SMOOTH",
"469 316 OFFCURVE",
"516 313 OFFCURVE",
"516 308 QCURVE SMOOTH",
"516 307 LINE",
"484 142 LINE SMOOTH",
"473 80 OFFCURVE",
"458 46 QCURVE SMOOTH",
"454 37 OFFCURVE",
"406 24 OFFCURVE",
"394 24 QCURVE SMOOTH",
"387 24 OFFCURVE",
"387 5 QCURVE SMOOTH",
"387 -1 OFFCURVE",
"389 -3 QCURVE",
"496 2 OFFCURVE",
"499 2 QCURVE SMOOTH",
"510 2 OFFCURVE",
"603 -3 QCURVE",
"609 9 OFFCURVE",
"609 20 QCURVE SMOOTH",
"609 24 OFFCURVE",
"607 24 QCURVE",
"594 26 LINE SMOOTH",
"580 28 OFFCURVE",
"553 41 OFFCURVE",
"553 49 QCURVE SMOOTH",
"553 84 OFFCURVE",
"564 139 QCURVE SMOOTH",
"637 515 LINE SMOOTH",
"648 575 OFFCURVE",
"663 608 QCURVE SMOOTH",
"666 615 OFFCURVE",
"716 631 OFFCURVE",
"724 631 QCURVE SMOOTH",
"731 631 OFFCURVE",
"731 655 QCURVE SMOOTH",
"731 658 LINE",
"725 658 OFFCURVE",
"648 652 OFFCURVE",
"624 652 QCURVE SMOOTH",
"599 652 OFFCURVE",
"528 657 OFFCURVE",
"516 658 QCURVE",
"508 650 OFFCURVE",
"508 636 QCURVE SMOOTH",
"508 631 OFFCURVE",
"510 631 QCURVE SMOOTH",
"523 631 OFFCURVE",
"566 615 OFFCURVE",
"566 604 QCURVE SMOOTH",
"566 567 OFFCURVE",
"555 512 QCURVE SMOOTH",
"528 373 LINE",
"527 365 OFFCURVE",
"397 365 QCURVE SMOOTH",
"300 365 OFFCURVE",
"247 368 OFFCURVE",
"247 373 QCURVE SMOOTH"
);
}
);
};
layerId = "32FAAA74-1A50-4F0F-82EF-726865221FC6";
name = "Mar 12 18, 15:56";
paths = (
{
closed = 1;
nodes = (
"247 374 LINE",
"272 515 LINE SMOOTH",
"278.667 552.333 OFFCURVE",
"287.333 583.333 OFFCURVE",
"298 608 CURVE SMOOTH",
"302 617.333 OFFCURVE",
"349.333 631 OFFCURVE",
"360 631 CURVE SMOOTH",
"364.667 631 OFFCURVE",
"367 639 OFFCURVE",
"367 655 CURVE SMOOTH",
"367 658 LINE",
"362.333 658 OFFCURVE",
"347.5 657 OFFCURVE",
"322.5 655 CURVE SMOOTH",
"297.5 653 OFFCURVE",
"277 652 OFFCURVE",
"261 652 CURVE SMOOTH",
"227.667 652 OFFCURVE",
"169 656.667 OFFCURVE",
"153 658 CURVE",
"147.667 652.667 OFFCURVE",
"145 645.333 OFFCURVE",
"145 636 CURVE SMOOTH",
"145 632.667 OFFCURVE",
"145.667 631 OFFCURVE",
"147 631 CURVE SMOOTH",
"164.333 631 OFFCURVE",
"203 618.667 OFFCURVE",
"203 604 CURVE SMOOTH",
"203 579.333 OFFCURVE",
"199.333 548.667 OFFCURVE",
"192 512 CURVE SMOOTH",
"121 142 LINE SMOOTH",
"113.667 100.667 OFFCURVE",
"105 68.667 OFFCURVE",
"95 46 CURVE SMOOTH",
"89.667 34 OFFCURVE",
"47 24 OFFCURVE",
"31 24 CURVE SMOOTH",
"26.333 24 OFFCURVE",
"24 17.667 OFFCURVE",
"24 5 CURVE SMOOTH",
"24 1 OFFCURVE",
"24.667 -1.667 OFFCURVE",
"26 -3 CURVE",
"98 0.333 OFFCURVE",
"134.667 2 OFFCURVE",
"136 2 CURVE SMOOTH",
"144 2 OFFCURVE",
"178.667 0.333 OFFCURVE",
"240 -3 CURVE",
"244 5 OFFCURVE",
"246 12.667 OFFCURVE",
"246 20 CURVE SMOOTH",
"246 22.667 OFFCURVE",
"245.333 24 OFFCURVE",
"244 24 CURVE",
"230 26 LINE SMOOTH",
"212.667 28.667 OFFCURVE",
"190 38.333 OFFCURVE",
"190 49 CURVE SMOOTH",
"190 72.333 OFFCURVE",
"193.667 102.333 OFFCURVE",
"201 139 CURVE SMOOTH",
"233 304 LINE SMOOTH",
"234.333 312 OFFCURVE",
"283 316 OFFCURVE",
"379 316 CURVE SMOOTH",
"439 316 OFFCURVE",
"476.833 315.5 OFFCURVE",
"492.5 314.5 CURVE SMOOTH",
"508.167 313.5 OFFCURVE",
"516 311.333 OFFCURVE",
"516 308 CURVE SMOOTH",
"516 307 LINE",
"484 142 LINE SMOOTH",
"476.667 100.667 OFFCURVE",
"468 68.667 OFFCURVE",
"458 46 CURVE SMOOTH",
"452.667 34 OFFCURVE",
"410 24 OFFCURVE",
"394 24 CURVE SMOOTH",
"389.333 24 OFFCURVE",
"387 17.667 OFFCURVE",
"387 5 CURVE SMOOTH",
"387 1 OFFCURVE",
"387.667 -1.667 OFFCURVE",
"389 -3 CURVE",
"460.333 0.333 OFFCURVE",
"497 2 OFFCURVE",
"499 2 CURVE SMOOTH",
"506.333 2 OFFCURVE",
"541 0.333 OFFCURVE",
"603 -3 CURVE",
"607 5 OFFCURVE",
"609 12.667 OFFCURVE",
"609 20 CURVE SMOOTH",
"609 22.667 OFFCURVE",
"608.333 24 OFFCURVE",
"607 24 CURVE",
"594 26 LINE SMOOTH",
"575.333 28.667 OFFCURVE",
"553 38.333 OFFCURVE",
"553 49 CURVE SMOOTH",
"553 72.333 OFFCURVE",
"556.667 102.333 OFFCURVE",
"564 139 CURVE SMOOTH",
"637 515 LINE SMOOTH",
"644.333 555 OFFCURVE",
"653 586 OFFCURVE",
"663 608 CURVE SMOOTH",
"667 617.333 OFFCURVE",
"713.333 631 OFFCURVE",
"724 631 CURVE SMOOTH",
"728.667 631 OFFCURVE",
"731 639 OFFCURVE",
"731 655 CURVE SMOOTH",
"731 658 LINE",
"727 658 OFFCURVE",
"712.167 657 OFFCURVE",
"686.5 655 CURVE SMOOTH",
"660.833 653 OFFCURVE",
"640 652 OFFCURVE",
"624 652 CURVE SMOOTH",
"590.667 652 OFFCURVE",
"532 656.667 OFFCURVE",
"516 658 CURVE",
"510.667 652.667 OFFCURVE",
"508 645.333 OFFCURVE",
"508 636 CURVE SMOOTH",
"508 632.667 OFFCURVE",
"508.667 631 OFFCURVE",
"510 631 CURVE SMOOTH",
"527.333 631 OFFCURVE",
"566 618.667 OFFCURVE",
"566 604 CURVE SMOOTH",
"566 579.333 OFFCURVE",
"562.333 548.667 OFFCURVE",
"555 512 CURVE SMOOTH",
"528 373 LINE",
"527.333 367.667 OFFCURVE",
"483.667 365 OFFCURVE",
"397 365 CURVE SMOOTH",
"332.333 365 OFFCURVE",
"291.167 365.5 OFFCURVE",
"273.5 366.5 CURVE SMOOTH",
"255.833 367.5 OFFCURVE",
"247 369.667 OFFCURVE",
"247 373 CURVE SMOOTH"
);
}
);
width = 627;
},
{
associatedMasterId = "720C727D-0ED9-429E-914E-55EB9E513E33";
layerId = "014E0403-25E4-4FD0-B059-ECCC8B696202";
name = "Mar 12 18, 16:00";
paths = (
{
closed = 1;
nodes = (
"499 316 LINE",
"460 116 LINE SMOOTH",
"448 56 OFFCURVE",
"441 42 QCURVE",
"438 35 OFFCURVE",
"387 26 OFFCURVE",
"373 26 QCURVE",
"369 22 OFFCURVE",
"365 1 OFFCURVE",
"368 -3 QCURVE",
"465 2 OFFCURVE",
"478 2 QCURVE SMOOTH",
"491 2 OFFCURVE",
"586 -3 QCURVE",
"590 1 OFFCURVE",
"594 23 OFFCURVE",
"592 26 QCURVE",
"578 26 OFFCURVE",
"531 35 OFFCURVE",
"531 42 QCURVE",
"529 57 OFFCURVE",
"541 116 QCURVE SMOOTH",
"624 543 LINE SMOOTH",
"636 603 OFFCURVE",
"643 617 QCURVE",
"646 624 OFFCURVE",
"696 633 OFFCURVE",
"710 633 QCURVE",
"714 637 OFFCURVE",
"719 658 OFFCURVE",
"716 662 QCURVE",
"618 657 OFFCURVE",
"606 657 QCURVE SMOOTH",
"592 657 OFFCURVE",
"497 662 QCURVE",
"492 659 OFFCURVE",
"488 637 OFFCURVE",
"491 633 QCURVE",
"505 633 OFFCURVE",
"551 624 OFFCURVE",
"552 617 QCURVE",
"554 602 OFFCURVE",
"543 543 QCURVE SMOOTH",
"507 356 LINE",
"215 356 LINE",
"251 543 LINE SMOOTH",
"261 600 OFFCURVE",
"270 617 QCURVE",
"273 624 OFFCURVE",
"323 633 OFFCURVE",
"337 633 QCURVE",
"341 637 OFFCURVE",
"346 658 OFFCURVE",
"343 662 QCURVE",
"245 657 OFFCURVE",
"233 657 QCURVE SMOOTH",
"219 657 OFFCURVE",
"124 662 QCURVE",
"119 659 OFFCURVE",
"115 637 OFFCURVE",
"118 633 QCURVE",
"132 633 OFFCURVE",
"178 624 OFFCURVE",
"179 617 QCURVE",
"181 599 OFFCURVE",
"170 543 QCURVE SMOOTH",
"87 116 LINE SMOOTH",
"75 56 OFFCURVE",
"68 42 QCURVE",
"65 35 OFFCURVE",
"14 26 OFFCURVE",
"-1 26 QCURVE",
"-5 22 OFFCURVE",
"-9 1 OFFCURVE",
"-6 -3 QCURVE",
"92 2 OFFCURVE",
"106 2 QCURVE SMOOTH",
"118 2 OFFCURVE",
"213 -3 QCURVE",
"217 1 OFFCURVE",
"221 23 OFFCURVE",
"219 26 QCURVE",
"205 26 OFFCURVE",
"158 35 OFFCURVE",
"158 42 QCURVE",
"156 54 OFFCURVE",
"168 116 QCURVE SMOOTH",
"207 316 LINE"
);
}
);
width = 686;
},
{
layerId = "DEDDD934-E4FE-4A27-B966-8C21F8A9BC34";
paths = (
{
closed = 1;
nodes = (
"253 655 CURVE SMOOTH",
"292 655 OFFCURVE",
"348 658 OFFCURVE",
"385 662 CURVE",
"388 656 OFFCURVE",
"384 632 OFFCURVE",
"378 625 CURVE",
"366 624 OFFCURVE",
"322 620 OFFCURVE",
"315 607 CURVE SMOOTH",
"304 587 OFFCURVE",
"297 556 OFFCURVE",
"289 513 CURVE SMOOTH",
"262 371 LINE",
"262 369 OFFCURVE",
"263 368 OFFCURVE",
"263 368 CURVE",
"299 367 OFFCURVE",
"333 365 OFFCURVE",
"375 365 CURVE SMOOTH",
"409 365 OFFCURVE",
"450 367 OFFCURVE",
"484 368 CURVE",
"484 368 OFFCURVE",
"487 370 OFFCURVE",
"487 372 CURVE SMOOTH",
"513 513 LINE SMOOTH",
"521 556 OFFCURVE",
"528 587 OFFCURVE",
"524 607 CURVE SMOOTH",
"522 620 OFFCURVE",
"480 624 OFFCURVE",
"468 625 CURVE",
"465 632 OFFCURVE",
"470 656 OFFCURVE",
"475 662 CURVE",
"510 658 OFFCURVE",
"568 655 OFFCURVE",
"607 655 CURVE SMOOTH",
"646 655 OFFCURVE",
"702 658 OFFCURVE",
"739 662 CURVE",
"742 656 OFFCURVE",
"738 632 OFFCURVE",
"732 625 CURVE",
"720 624 OFFCURVE",
"676 620 OFFCURVE",
"669 607 CURVE SMOOTH",
"658 587 OFFCURVE",
"651 556 OFFCURVE",
"643 513 CURVE SMOOTH",
"572 145 LINE SMOOTH",
"564 102 OFFCURVE",
"557 71 OFFCURVE",
"561 51 CURVE SMOOTH",
"563 38 OFFCURVE",
"605 34 OFFCURVE",
"617 33 CURVE",
"620 26 OFFCURVE",
"615 2 OFFCURVE",
"610 -4 CURVE",
"575 0 OFFCURVE",
"517 3 OFFCURVE",
"478 3 CURVE SMOOTH",
"439 3 OFFCURVE",
"383 0 OFFCURVE",
"346 -4 CURVE",
"343 2 OFFCURVE",
"347 26 OFFCURVE",
"353 33 CURVE",
"365 34 OFFCURVE",
"409 38 OFFCURVE",
"416 51 CURVE SMOOTH",
"427 71 OFFCURVE",
"434 102 OFFCURVE",
"442 145 CURVE SMOOTH",
"474 310 LINE SMOOTH",
"474 312 OFFCURVE",
"473 315 OFFCURVE",
"473 315 CURVE",
"439 316 OFFCURVE",
"403 317 OFFCURVE",
"365 317 CURVE SMOOTH",
"262 317 OFFCURVE",
"254 315 OFFCURVE",
"251 313 CURVE",
"250 312 OFFCURVE",
"249 309 OFFCURVE",
"249 309 CURVE",
"218 145 LINE SMOOTH",
"210 102 OFFCURVE",
"203 71 OFFCURVE",
"207 51 CURVE SMOOTH",
"209 38 OFFCURVE",
"251 34 OFFCURVE",
"263 33 CURVE",
"266 26 OFFCURVE",
"261 2 OFFCURVE",
"256 -4 CURVE",
"221 0 OFFCURVE",
"163 3 OFFCURVE",
"124 3 CURVE SMOOTH",
"85 3 OFFCURVE",
"28 0 OFFCURVE",
"-9 -4 CURVE",
"-12 2 OFFCURVE",
"-7 26 OFFCURVE",
"-1 33 CURVE",
"11 34 OFFCURVE",
"55 38 OFFCURVE",
"62 51 CURVE SMOOTH",
"73 71 OFFCURVE",
"79 102 OFFCURVE",
"87 145 CURVE SMOOTH",
"159 513 LINE SMOOTH",
"167 556 OFFCURVE",
"174 587 OFFCURVE",
"170 607 CURVE SMOOTH",
"168 620 OFFCURVE",
"126 624 OFFCURVE",
"114 625 CURVE",
"111 632 OFFCURVE",
"116 656 OFFCURVE",
"121 662 CURVE",
"156 658 OFFCURVE",
"214 655 OFFCURVE"
);
}
);
width = 707;
}
);
note = H;
unicode = 0048;
},
{
color = 3;
glyphname = Hbar;
lastChange = "2018-06-05 09:43:46 +0000";
layers = (
{
layerId = "720C727D-0ED9-429E-914E-55EB9E513E33";
paths = (
{
closed = 1;
nodes = (
"161 2 LINE",
"171 2 OFFCURVE",
"207 0 OFFCURVE",
"268 -3 CURVE",
"272 5 OFFCURVE",
"276 25 OFFCURVE",
"272 26 CURVE",
"260 26 OFFCURVE",
"217 37 OFFCURVE",
"216 46 CURVE",
"215 69 OFFCURVE",
"219 100 OFFCURVE",
"226 139 CURVE SMOOTH",
"256 294 LINE",
"257 297 OFFCURVE",
"305 299 OFFCURVE",
"400 299 CURVE SMOOTH",
"433 299 OFFCURVE",
"479 298 OFFCURVE",
"538 297 CURVE",
"539 293 LINE",
"508 135 LINE SMOOTH",
"502 98 OFFCURVE",
"494 69 OFFCURVE",
"484 46 CURVE",
"477 35 OFFCURVE",
"434 26 OFFCURVE",
"418 26 CURVE SMOOTH",
"413 26 OFFCURVE",
"408 2 OFFCURVE",
"412 -3 CURVE",
"526 2 LINE",
"534 2 OFFCURVE",
"569 0 OFFCURVE",
"631 -3 CURVE",
"632 -1 OFFCURVE",
"634 4 OFFCURVE",
"635 11 CURVE",
"637 21 OFFCURVE",
"637 26 OFFCURVE",
"635 26 CURVE SMOOTH",
"623 26 OFFCURVE",
"580 37 OFFCURVE",
"579 46 CURVE",
"578 67 OFFCURVE",
"582 98 OFFCURVE",
"590 139 CURVE SMOOTH",
"654 470 LINE",
"691 470 LINE",
"697 477 OFFCURVE",
"701 486 OFFCURVE",
"702 495 CURVE",
"704 504 OFFCURVE",
"703 508 OFFCURVE",
"699 508 CURVE SMOOTH",
"661 508 LINE",
"671 558 OFFCURVE",
"680 593 OFFCURVE",
"689 612 CURVE SMOOTH",
"693 621 OFFCURVE",
"741 633 OFFCURVE",
"753 633 CURVE SMOOTH",
"756 633 OFFCURVE",
"758 638 OFFCURVE",
"759 647 CURVE",
"760 650 OFFCURVE",
"760 655 OFFCURVE",
"760 662 CURVE",
"716 659 LINE SMOOTH",
"690 657 OFFCURVE",
"669 656 OFFCURVE",
"653 656 CURVE SMOOTH",
"620 656 OFFCURVE",
"557 661 OFFCURVE",
"542 662 CURVE",
"536 658 OFFCURVE",
"531 636 OFFCURVE",
"536 633 CURVE",
"552 633 OFFCURVE",
"593 623 OFFCURVE",
"594 612 CURVE SMOOTH",
"595 595 OFFCURVE",
"590 560 OFFCURVE",
"580 508 CURVE",
"555 507 OFFCURVE",
"509 507 OFFCURVE",
"441 507 CURVE SMOOTH",
"353 507 OFFCURVE",
"305 507 OFFCURVE",
"298 508 CURVE",
"307 556 OFFCURVE",
"317 591 OFFCURVE",
"326 612 CURVE SMOOTH",
"330 621 OFFCURVE",
"378 633 OFFCURVE",
"390 633 CURVE SMOOTH",
"394 633 OFFCURVE",
"398 655 OFFCURVE",
"397 662 CURVE",
"371 660 OFFCURVE",
"312 656 OFFCURVE",
"288 656 CURVE SMOOTH",
"255 656 OFFCURVE",
"193 661 OFFCURVE",
"178 662 CURVE",
"175 659 OFFCURVE",
"172 653 OFFCURVE",
"171 646 CURVE SMOOTH",
"170 637 OFFCURVE",
"170 633 OFFCURVE",
"172 633 CURVE SMOOTH",
"188 633 OFFCURVE",
"229 623 OFFCURVE",
"230 612 CURVE",
"231 590 OFFCURVE",
"226 555 OFFCURVE",
"217 508 CURVE",
"186 508 LINE",
"181 501 OFFCURVE",
"178 493 OFFCURVE",
"176 483 CURVE SMOOTH",
"174 474 OFFCURVE",
"175 470 OFFCURVE",
"178 470 CURVE SMOOTH",
"209 470 LINE",
"144 135 LINE SMOOTH",
"138 98 OFFCURVE",
"130 69 OFFCURVE",
"120 46 CURVE",
"113 35 OFFCURVE",
"70 26 OFFCURVE",
"54 26 CURVE SMOOTH",
"51 26 OFFCURVE",
"49 21 OFFCURVE",
"48 12 CURVE SMOOTH",
"47 5 OFFCURVE",
"47 0 OFFCURVE",
"49 -3 CURVE"
);
},
{
closed = 1;
nodes = (
"376 347 OFFCURVE",
"329 348 OFFCURVE",
"269 349 CURVE SMOOTH",
"268 349 OFFCURVE",
"267 350 OFFCURVE",
"267 352 CURVE",
"290 470 LINE",
"318 471 OFFCURVE",
"366 471 OFFCURVE",
"434 471 CURVE SMOOTH",
"501 471 OFFCURVE",
"548 471 OFFCURVE",
"573 470 CURVE",
"550 353 LINE",
"550 352 OFFCURVE",
"549 350 OFFCURVE",
"548 349 CURVE",
"492 348 OFFCURVE",
"446 347 OFFCURVE",
"410 347 CURVE SMOOTH"
);
}
);
width = 684;
},
{
components = (
{
name = H;
}
);
layerId = "DEDDD934-E4FE-4A27-B966-8C21F8A9BC34";
paths = (
{
closed = 1;
nodes = (
"107 516 CURVE",
"132 516 OFFCURVE",
"686 516 OFFCURVE",
"698 516 CURVE SMOOTH",
"701 516 OFFCURVE",
"702 512 OFFCURVE",
"701 508 CURVE SMOOTH",
"700 503 OFFCURVE",
"695 485 OFFCURVE",
"690 477 CURVE",
"665 477 OFFCURVE",
"110 477 OFFCURVE",
"98 477 CURVE SMOOTH",
"95 477 OFFCURVE",
"95 484 OFFCURVE",
"96 488 CURVE SMOOTH",
"97 493 OFFCURVE",
"100 508 OFFCURVE"
);
}
);
width = 707;
}
);
note = Hbar;
unicode = 0126;
},
{
color = 4;
glyphname = I;
lastChange = "2018-06-05 09:43:46 +0000";
layers = (
{
background = {
paths = (
{
closed = 1;
nodes = (
"40 0 OFFCURVE",
"84 2 OFFCURVE",
"111 2 CURVE SMOOTH",
"138 2 OFFCURVE",
"182 0 OFFCURVE",
"225 -3 CURVE",
"231 2 OFFCURVE",
"235 28 OFFCURVE",
"231 33 CURVE",
"206 33 OFFCURVE",
"173 42 OFFCURVE",
"169 49 CURVE SMOOTH",
"166 54 OFFCURVE",
"166 86 OFFCURVE",
"192 217 CURVE SMOOTH",
"236 442 LINE SMOOTH",
"262 573 OFFCURVE",
"273 604 OFFCURVE",
"277 608 CURVE SMOOTH",
"285 616 OFFCURVE",
"322 624 OFFCURVE",
"347 626 CURVE",
"353 631 OFFCURVE",
"357 657 OFFCURVE",
"353 662 CURVE",
"308 659 OFFCURVE",
"264 657 OFFCURVE",
"237 657 CURVE SMOOTH",
"210 657 OFFCURVE",
"166 659 OFFCURVE",
"123 662 CURVE",
"117 657 OFFCURVE",
"113 631 OFFCURVE",
"117 626 CURVE",
"142 626 OFFCURVE",
"175 617 OFFCURVE",
"179 610 CURVE SMOOTH",
"182 605 OFFCURVE",
"182 573 OFFCURVE",
"156 442 CURVE SMOOTH",
"112 217 LINE SMOOTH",
"86 86 OFFCURVE",
"75 55 OFFCURVE",
"71 51 CURVE SMOOTH",
"63 43 OFFCURVE",
"26 35 OFFCURVE",
"1 33 CURVE",
"-5 28 OFFCURVE",
"-9 2 OFFCURVE",
"-5 -3 CURVE"
);
}
);
};
layerId = "720C727D-0ED9-429E-914E-55EB9E513E33";
paths = (
{
closed = 1;
nodes = (
"40 0 OFFCURVE",
"86 2 OFFCURVE",
"112 2 CURVE SMOOTH",
"138 2 OFFCURVE",
"184 0 OFFCURVE",
"226 -3 CURVE",
"235 33 LINE",
"209 34 OFFCURVE",
"175 44 OFFCURVE",
"168 48 CURVE",
"166 55 OFFCURVE",
"168 83 OFFCURVE",
"194 217 CURVE SMOOTH",
"238 442 LINE SMOOTH",
"264 576 OFFCURVE",
"272 604 OFFCURVE",
"278 611 CURVE",
"285 615 OFFCURVE",
"323 625 OFFCURVE",
"351 626 CURVE",
"354 662 LINE",
"310 659 OFFCURVE",
"264 657 OFFCURVE",
"238 657 CURVE SMOOTH",
"212 657 OFFCURVE",
"166 659 OFFCURVE",
"124 662 CURVE",
"115 626 LINE",
"141 625 OFFCURVE",
"175 615 OFFCURVE",
"182 611 CURVE",
"184 604 OFFCURVE",
"182 576 OFFCURVE",
"156 442 CURVE SMOOTH",
"112 217 LINE SMOOTH",
"86 83 OFFCURVE",
"78 55 OFFCURVE",
"72 48 CURVE",
"65 44 OFFCURVE",
"27 34 OFFCURVE",
"-1 33 CURVE",
"-4 -3 LINE"
);
}
);
width = 306;
},
{
associatedMasterId = "720C727D-0ED9-429E-914E-55EB9E513E33";
background = {
paths = (
{
closed = 1;
nodes = (
"301 615 OFFCURVE",
"352 631 OFFCURVE",
"360 631 QCURVE SMOOTH",
"367 631 OFFCURVE",
"367 655 QCURVE SMOOTH",
"367 658 LINE",
"360 658 OFFCURVE",
"285 652 OFFCURVE",
"261 652 QCURVE SMOOTH",
"236 652 OFFCURVE",
"165 657 OFFCURVE",
"153 658 QCURVE",
"145 650 OFFCURVE",
"145 636 QCURVE SMOOTH",
"145 631 OFFCURVE",
"147 631 QCURVE SMOOTH",
"160 631 OFFCURVE",
"203 615 OFFCURVE",
"203 604 QCURVE SMOOTH",
"203 567 OFFCURVE",
"192 512 QCURVE SMOOTH",
"121 142 LINE SMOOTH",
"110 80 OFFCURVE",
"95 46 QCURVE SMOOTH",
"91 37 OFFCURVE",
"43 24 OFFCURVE",
"31 24 QCURVE SMOOTH",
"24 24 OFFCURVE",
"24 5 QCURVE SMOOTH",
"24 -1 OFFCURVE",
"26 -3 QCURVE",
"134 2 OFFCURVE",
"136 2 QCURVE SMOOTH",
"148 2 OFFCURVE",
"240 -3 QCURVE",
"246 9 OFFCURVE",
"246 20 QCURVE SMOOTH",
"246 24 OFFCURVE",
"244 24 QCURVE",
"230 26 LINE SMOOTH",
"217 28 OFFCURVE",
"190 41 OFFCURVE",
"190 49 QCURVE SMOOTH",
"190 84 OFFCURVE",
"201 139 QCURVE SMOOTH",
"272 515 LINE SMOOTH",
"285 580 OFFCURVE",
"298 608 QCURVE SMOOTH"
);
}
);
};
layerId = "28A5233B-444E-4818-93B6-AED7CA2AB598";
name = "Mar 12 18, 15:56";
paths = (
{
closed = 1;
nodes = (
"302 617.333 OFFCURVE",
"349.333 631 OFFCURVE",
"360 631 CURVE SMOOTH",
"364.667 631 OFFCURVE",
"367 639 OFFCURVE",
"367 655 CURVE SMOOTH",
"367 658 LINE",
"362.333 658 OFFCURVE",
"347.5 657 OFFCURVE",
"322.5 655 CURVE SMOOTH",
"297.5 653 OFFCURVE",
"277 652 OFFCURVE",
"261 652 CURVE SMOOTH",
"227.667 652 OFFCURVE",
"169 656.667 OFFCURVE",
"153 658 CURVE",
"147.667 652.667 OFFCURVE",
"145 645.333 OFFCURVE",
"145 636 CURVE SMOOTH",
"145 632.667 OFFCURVE",
"145.667 631 OFFCURVE",
"147 631 CURVE SMOOTH",
"164.333 631 OFFCURVE",
"203 618.667 OFFCURVE",
"203 604 CURVE SMOOTH",
"203 579.333 OFFCURVE",
"199.333 548.667 OFFCURVE",
"192 512 CURVE SMOOTH",
"121 142 LINE SMOOTH",
"113.667 100.667 OFFCURVE",
"105 68.667 OFFCURVE",
"95 46 CURVE SMOOTH",
"89.667 34 OFFCURVE",
"47 24 OFFCURVE",
"31 24 CURVE SMOOTH",
"26.333 24 OFFCURVE",
"24 17.667 OFFCURVE",
"24 5 CURVE SMOOTH",
"24 1 OFFCURVE",
"24.667 -1.667 OFFCURVE",
"26 -3 CURVE",
"98 0.333 OFFCURVE",
"134.667 2 OFFCURVE",
"136 2 CURVE SMOOTH",
"144 2 OFFCURVE",
"178.667 0.333 OFFCURVE",
"240 -3 CURVE",
"244 5 OFFCURVE",
"246 12.667 OFFCURVE",
"246 20 CURVE SMOOTH",
"246 22.667 OFFCURVE",
"245.333 24 OFFCURVE",
"244 24 CURVE",
"230 26 LINE SMOOTH",
"212.667 28.667 OFFCURVE",
"190 38.333 OFFCURVE",
"190 49 CURVE SMOOTH",
"190 72.333 OFFCURVE",
"193.667 102.333 OFFCURVE",
"201 139 CURVE SMOOTH",
"272 515 LINE SMOOTH",
"280.667 558.333 OFFCURVE",
"289.333 589.333 OFFCURVE",
"298 608 CURVE SMOOTH"
);
}
);
width = 263;
},
{
associatedMasterId = "720C727D-0ED9-429E-914E-55EB9E513E33";
layerId = "50C3252C-D1EA-4302-8B7E-54CA1DCFE296";
name = "Mar 12 18, 16:00";
paths = (
{
closed = 1;
nodes = (
"119 659 OFFCURVE",
"115 637 OFFCURVE",
"118 633 QCURVE",
"132 633 OFFCURVE",
"178 624 OFFCURVE",
"179 617 QCURVE",
"181 599 OFFCURVE",
"170 543 QCURVE SMOOTH",
"87 116 LINE SMOOTH",
"75 56 OFFCURVE",
"68 42 QCURVE",
"65 35 OFFCURVE",
"14 26 OFFCURVE",
"-1 26 QCURVE",
"-5 22 OFFCURVE",
"-9 1 OFFCURVE",
"-6 -3 QCURVE",
"92 2 OFFCURVE",
"106 2 QCURVE SMOOTH",
"118 2 OFFCURVE",
"213 -3 QCURVE",
"217 1 OFFCURVE",
"221 23 OFFCURVE",
"219 26 QCURVE",
"205 26 OFFCURVE",
"158 35 OFFCURVE",
"158 42 QCURVE",
"156 57 OFFCURVE",
"168 116 QCURVE SMOOTH",
"251 543 LINE SMOOTH",
"263 603 OFFCURVE",
"270 617 QCURVE",
"273 624 OFFCURVE",
"323 633 OFFCURVE",
"337 633 QCURVE",
"341 637 OFFCURVE",
"346 658 OFFCURVE",
"343 662 QCURVE",
"245 657 OFFCURVE",
"233 657 QCURVE SMOOTH",
"219 657 OFFCURVE",
"124 662 QCURVE"
);
}
);
width = 313;
},
{
layerId = "DEDDD934-E4FE-4A27-B966-8C21F8A9BC34";
paths = (
{
closed = 1;
nodes = (
"253 655 CURVE SMOOTH",
"292 655 OFFCURVE",
"348 658 OFFCURVE",
"385 662 CURVE",
"388 656 OFFCURVE",
"384 632 OFFCURVE",
"378 625 CURVE",
"366 624 OFFCURVE",
"322 620 OFFCURVE",
"315 607 CURVE SMOOTH",
"304 587 OFFCURVE",
"297 556 OFFCURVE",
"289 513 CURVE SMOOTH",
"218 145 LINE SMOOTH",
"210 102 OFFCURVE",
"203 71 OFFCURVE",
"207 51 CURVE SMOOTH",
"209 38 OFFCURVE",
"251 34 OFFCURVE",
"263 33 CURVE",
"266 26 OFFCURVE",
"261 2 OFFCURVE",
"256 -4 CURVE",
"221 0 OFFCURVE",
"163 3 OFFCURVE",
"124 3 CURVE SMOOTH",
"85 3 OFFCURVE",
"28 0 OFFCURVE",
"-9 -4 CURVE",
"-12 2 OFFCURVE",
"-7 26 OFFCURVE",
"-1 33 CURVE",
"11 34 OFFCURVE",
"55 38 OFFCURVE",
"62 51 CURVE SMOOTH",
"73 71 OFFCURVE",
"79 102 OFFCURVE",
"87 145 CURVE SMOOTH",
"159 513 LINE SMOOTH",
"167 556 OFFCURVE",
"174 587 OFFCURVE",
"170 607 CURVE SMOOTH",
"168 620 OFFCURVE",
"126 624 OFFCURVE",
"114 625 CURVE",
"111 632 OFFCURVE",
"116 656 OFFCURVE",
"121 662 CURVE",
"156 658 OFFCURVE",
"214 655 OFFCURVE"
);
}
);
width = 353;
}
);
note = I;
unicode = 0049;
},
{
color = 3;
glyphname = Iogonek;
lastChange = "2018-06-05 09:43:46 +0000";
layers = (
{
layerId = "720C727D-0ED9-429E-914E-55EB9E513E33";
paths = (
{
closed = 1;
nodes = (
"71 -230 OFFCURVE",
"108 -208 OFFCURVE",
"148 -163 CURVE",
"152 -159 OFFCURVE",
"161 -134 OFFCURVE",
"154 -133 CURVE",
"147 -133 OFFCURVE",
"95 -171 OFFCURVE",
"71 -171 CURVE SMOOTH",
"50 -171 OFFCURVE",
"40 -160 OFFCURVE",
"40 -139 CURVE SMOOTH",
"40 -95 OFFCURVE",
"97 -30 OFFCURVE",
"166 -10 CURVE SMOOTH",
"183 -5 OFFCURVE",
"199 -3 OFFCURVE",
"213 -3 CURVE",
"217 5 OFFCURVE",
"219 13 OFFCURVE",
"219 20 CURVE SMOOTH",
"219 23 OFFCURVE",
"218 24 OFFCURVE",
"217 24 CURVE",
"204 26 LINE SMOOTH",
"185 29 OFFCURVE",
"163 38 OFFCURVE",
"163 49 CURVE SMOOTH",
"163 72 OFFCURVE",
"167 102 OFFCURVE",
"174 139 CURVE SMOOTH",
"245 515 LINE SMOOTH",
"254 558 OFFCURVE",
"262 589 OFFCURVE",
"271 608 CURVE SMOOTH",
"275 617 OFFCURVE",
"322 631 OFFCURVE",
"333 631 CURVE SMOOTH",
"338 631 OFFCURVE",
"340 639 OFFCURVE",
"340 655 CURVE SMOOTH",
"340 658 LINE",
"335 658 OFFCURVE",
"321 657 OFFCURVE",
"296 655 CURVE SMOOTH",
"271 653 OFFCURVE",
"250 652 OFFCURVE",
"234 652 CURVE SMOOTH",
"201 652 OFFCURVE",
"142 657 OFFCURVE",
"126 658 CURVE",
"121 653 OFFCURVE",
"118 645 OFFCURVE",
"118 636 CURVE SMOOTH",
"118 633 OFFCURVE",
"119 631 OFFCURVE",
"120 631 CURVE SMOOTH",
"137 631 OFFCURVE",
"176 619 OFFCURVE",
"176 604 CURVE SMOOTH",
"176 579 OFFCURVE",
"172 549 OFFCURVE",
"165 512 CURVE SMOOTH",
"94 142 LINE SMOOTH",
"87 101 OFFCURVE",
"78 69 OFFCURVE",
"68 46 CURVE SMOOTH",
"63 34 OFFCURVE",
"20 24 OFFCURVE",
"4 24 CURVE SMOOTH",
"-1 24 OFFCURVE",
"-3 18 OFFCURVE",
"-3 5 CURVE SMOOTH",
"-3 1 OFFCURVE",
"-2 -2 OFFCURVE",
"-1 -3 CURVE",
"109 2 LINE",
"52 -26 OFFCURVE",
"-13 -119 OFFCURVE",
"-13 -180 CURVE SMOOTH",
"-13 -208 OFFCURVE",
"8 -230 OFFCURVE",
"37 -230 CURVE SMOOTH"
);
}
);
width = 341;
},
{
layerId = "DEDDD934-E4FE-4A27-B966-8C21F8A9BC34";
paths = (
{
closed = 1;
nodes = (
"263 33 CURVE",
"266 26 OFFCURVE",
"261 2 OFFCURVE",
"256 -4 CURVE",
"247 -4 OFFCURVE",
"216 -3 OFFCURVE",
"192 -6 CURVE SMOOTH",
"141 -12 OFFCURVE",
"73 -69 OFFCURVE",
"73 -122 CURVE SMOOTH",
"73 -146 OFFCURVE",
"84 -156 OFFCURVE",
"109 -156 CURVE SMOOTH",
"151 -156 OFFCURVE",
"176 -125 OFFCURVE",
"183 -120 CURVE",
"190 -122 OFFCURVE",
"188 -142 OFFCURVE",
"186 -146 CURVE SMOOTH",
"163 -185 OFFCURVE",
"114 -218 OFFCURVE",
"72 -218 CURVE SMOOTH",
"33 -218 OFFCURVE",
"12 -187 OFFCURVE",
"12 -160 CURVE SMOOTH",
"12 -82 OFFCURVE",
"92 -15 OFFCURVE",
"129 4 CURVE",
"91 4 OFFCURVE",
"25 0 OFFCURVE",
"-9 -4 CURVE",
"-12 2 OFFCURVE",
"-7 26 OFFCURVE",
"-1 33 CURVE",
"11 34 OFFCURVE",
"55 38 OFFCURVE",
"62 51 CURVE SMOOTH",
"73 71 OFFCURVE",
"79 102 OFFCURVE",
"87 145 CURVE SMOOTH",
"159 513 LINE SMOOTH",
"167 556 OFFCURVE",
"174 587 OFFCURVE",
"170 607 CURVE SMOOTH",
"168 620 OFFCURVE",
"126 624 OFFCURVE",
"114 625 CURVE",
"111 632 OFFCURVE",
"116 656 OFFCURVE",
"121 662 CURVE",
"156 658 OFFCURVE",
"214 655 OFFCURVE",
"253 655 CURVE SMOOTH",
"292 655 OFFCURVE",
"348 658 OFFCURVE",
"385 662 CURVE",
"388 656 OFFCURVE",
"384 632 OFFCURVE",
"378 625 CURVE",
"366 624 OFFCURVE",
"322 620 OFFCURVE",
"315 607 CURVE SMOOTH",
"304 587 OFFCURVE",
"297 556 OFFCURVE",
"289 513 CURVE SMOOTH",
"218 145 LINE SMOOTH",
"210 102 OFFCURVE",
"203 71 OFFCURVE",
"207 51 CURVE SMOOTH",
"209 38 OFFCURVE",
"251 34 OFFCURVE"
);
}
);
width = 353;
}
);
note = Iogonek;
unicode = 012E;
},
{
color = 3;
glyphname = J;
lastChange = "2018-06-05 09:43:46 +0000";
layers = (
{
background = {
paths = (
{
closed = 1;
nodes = (
"-80 -215 LINE",
"-80 -226 OFFCURVE",
"-74 -233 QCURVE",
"-48 -233 OFFCURVE",
"8 -212 OFFCURVE",
"73 -160 OFFCURVE",
"130 -83 OFFCURVE",
"181 40 OFFCURVE",
"195 116 QCURVE SMOOTH",
"270 515 LINE SMOOTH",
"280 571 OFFCURVE",
"296 608 QCURVE SMOOTH",
"299 615 OFFCURVE",
"343 631 OFFCURVE",
"351 631 QCURVE SMOOTH",
"358 631 OFFCURVE",
"358 655 QCURVE SMOOTH",
"358 658 LINE",
"351 658 OFFCURVE",
"276 652 OFFCURVE",
"252 652 QCURVE SMOOTH",
"227 652 OFFCURVE",
"156 657 OFFCURVE",
"144 658 QCURVE",
"136 650 OFFCURVE",
"136 636 QCURVE SMOOTH",
"136 631 OFFCURVE",
"138 631 QCURVE SMOOTH",
"151 631 OFFCURVE",
"201 615 OFFCURVE",
"201 604 QCURVE SMOOTH",
"201 576 OFFCURVE",
"190 512 QCURVE SMOOTH",
"115 109 LINE SMOOTH",
"87 -39 OFFCURVE",
"3 -183 OFFCURVE",
"-79 -209 QCURVE"
);
}
);
};
layerId = "720C727D-0ED9-429E-914E-55EB9E513E33";
paths = (
{
closed = 1;
nodes = (
"-39.333 -233 OFFCURVE",
"-2.833 -220.667 OFFCURVE",
"40.5 -186 CURVE SMOOTH",
"62.167 -168.667 OFFCURVE",
"82.5 -147.167 OFFCURVE",
"101.5 -121.5 CURVE SMOOTH",
"120.5 -95.833 OFFCURVE",
"151.667 -16.667 OFFCURVE",
"195 116 CURVE",
"270 515 LINE SMOOTH",
"276.667 552.333 OFFCURVE",
"285.333 583.333 OFFCURVE",
"296 608 CURVE SMOOTH",
"300 617.333 OFFCURVE",
"340.333 631 OFFCURVE",
"351 631 CURVE SMOOTH",
"355.667 631 OFFCURVE",
"358 639 OFFCURVE",
"358 655 CURVE SMOOTH",
"358 658 LINE",
"353.333 658 OFFCURVE",
"338.5 657 OFFCURVE",
"313.5 655 CURVE SMOOTH",
"288.5 653 OFFCURVE",
"268 652 OFFCURVE",
"252 652 CURVE SMOOTH",
"218.667 652 OFFCURVE",
"160 656.667 OFFCURVE",
"144 658 CURVE",
"138.667 652.667 OFFCURVE",
"136 645.333 OFFCURVE",
"136 636 CURVE SMOOTH",
"136 632.667 OFFCURVE",
"136.667 631 OFFCURVE",
"138 631 CURVE SMOOTH",
"155.333 631 OFFCURVE",
"201 618.667 OFFCURVE",
"201 604 CURVE SMOOTH",
"201 585.333 OFFCURVE",
"197.333 554.667 OFFCURVE",
"190 512 CURVE SMOOTH",
"115 109 LINE SMOOTH",
"77.667 -88.333 OFFCURVE",
"30.333 -174.333 OFFCURVE",
"-79 -209 CURVE",
"-80 -215 LINE",
"-80 -222.333 OFFCURVE",
"-78 -228.333 OFFCURVE",
"-74 -233 CURVE"
);
}
);
width = 254;
},
{
associatedMasterId = "720C727D-0ED9-429E-914E-55EB9E513E33";
background = {
paths = (
{
closed = 1;
nodes = (
"-80 -215 LINE",
"-80 -226 OFFCURVE",
"-74 -233 QCURVE",
"-48 -233 OFFCURVE",
"8 -212 OFFCURVE",
"73 -160 OFFCURVE",
"130 -83 OFFCURVE",
"181 40 OFFCURVE",
"195 116 QCURVE SMOOTH",
"270 515 LINE SMOOTH",
"280 571 OFFCURVE",
"296 608 QCURVE SMOOTH",
"299 615 OFFCURVE",
"343 631 OFFCURVE",
"351 631 QCURVE SMOOTH",
"358 631 OFFCURVE",
"358 655 QCURVE SMOOTH",
"358 658 LINE",
"351 658 OFFCURVE",
"276 652 OFFCURVE",
"252 652 QCURVE SMOOTH",
"227 652 OFFCURVE",
"156 657 OFFCURVE",
"144 658 QCURVE",
"136 650 OFFCURVE",
"136 636 QCURVE SMOOTH",
"136 631 OFFCURVE",
"138 631 QCURVE SMOOTH",
"151 631 OFFCURVE",
"201 615 OFFCURVE",
"201 604 QCURVE SMOOTH",
"201 576 OFFCURVE",
"190 512 QCURVE SMOOTH",
"115 109 LINE SMOOTH",
"87 -39 OFFCURVE",
"3 -183 OFFCURVE",
"-79 -209 QCURVE"
);
}
);
};
layerId = "F28085B3-204B-4734-86EA-E6C5E2EB83AE";
name = "Mar 12 18, 15:56";
paths = (
{
closed = 1;
nodes = (
"-80 -215 LINE",
"-80 -222.333 OFFCURVE",
"-78 -228.333 OFFCURVE",
"-74 -233 CURVE",
"-39.333 -233 OFFCURVE",
"-2.833 -220.667 OFFCURVE",
"40.5 -186 CURVE SMOOTH",
"62.167 -168.667 OFFCURVE",
"82.5 -147.167 OFFCURVE",
"101.5 -121.5 CURVE SMOOTH",
"120.5 -95.833 OFFCURVE",
"151.667 -16.667 OFFCURVE",
"195 116 CURVE",
"270 515 LINE SMOOTH",
"276.667 552.333 OFFCURVE",
"285.333 583.333 OFFCURVE",
"296 608 CURVE SMOOTH",
"300 617.333 OFFCURVE",
"340.333 631 OFFCURVE",
"351 631 CURVE SMOOTH",
"355.667 631 OFFCURVE",
"358 639 OFFCURVE",
"358 655 CURVE SMOOTH",
"358 658 LINE",
"353.333 658 OFFCURVE",
"338.5 657 OFFCURVE",
"313.5 655 CURVE SMOOTH",
"288.5 653 OFFCURVE",
"268 652 OFFCURVE",
"252 652 CURVE SMOOTH",
"218.667 652 OFFCURVE",
"160 656.667 OFFCURVE",
"144 658 CURVE",
"138.667 652.667 OFFCURVE",
"136 645.333 OFFCURVE",
"136 636 CURVE SMOOTH",
"136 632.667 OFFCURVE",
"136.667 631 OFFCURVE",
"138 631 CURVE SMOOTH",
"155.333 631 OFFCURVE",
"201 618.667 OFFCURVE",
"201 604 CURVE SMOOTH",
"201 585.333 OFFCURVE",
"197.333 554.667 OFFCURVE",
"190 512 CURVE SMOOTH",
"115 109 LINE SMOOTH",
"77.667 -88.333 OFFCURVE",
"30.333 -174.333 OFFCURVE",
"-79 -209 CURVE"
);
}
);
width = 254;
},
{
associatedMasterId = "720C727D-0ED9-429E-914E-55EB9E513E33";
layerId = "5252A8BE-8C8B-432F-A8B1-DF2B0BC78FD6";
name = "Mar 12 18, 16:00";
paths = (
{
closed = 1;
nodes = (
"57 -42 OFFCURVE",
"-26 -189 OFFCURVE",
"-107 -214 QCURVE",
"-108 -220 LINE",
"-108 -229 OFFCURVE",
"-105 -233 QCURVE",
"-80 -233 OFFCURVE",
"-23 -212 OFFCURVE",
"43 -160 OFFCURVE",
"100 -83 OFFCURVE",
"150 40 OFFCURVE",
"164 116 QCURVE SMOOTH",
"245 543 LINE SMOOTH",
"255 600 OFFCURVE",
"264 617 QCURVE",
"267 624 OFFCURVE",
"317 633 OFFCURVE",
"331 633 QCURVE",
"335 637 OFFCURVE",
"340 658 OFFCURVE",
"337 662 QCURVE",
"239 657 OFFCURVE",
"227 657 QCURVE SMOOTH",
"213 657 OFFCURVE",
"118 662 QCURVE",
"113 659 OFFCURVE",
"109 637 OFFCURVE",
"112 633 QCURVE",
"126 633 OFFCURVE",
"172 624 OFFCURVE",
"173 617 QCURVE",
"175 602 OFFCURVE",
"164 543 QCURVE SMOOTH",
"84 109 LINE SMOOTH"
);
}
);
width = 313;
},
{
layerId = "DEDDD934-E4FE-4A27-B966-8C21F8A9BC34";
paths = (
{
closed = 1;
nodes = (
"247 655 CURVE SMOOTH",
"286 655 OFFCURVE",
"342 658 OFFCURVE",
"379 662 CURVE",
"382 656 OFFCURVE",
"378 632 OFFCURVE",
"372 625 CURVE",
"360 624 OFFCURVE",
"316 620 OFFCURVE",
"309 607 CURVE SMOOTH",
"298 587 OFFCURVE",
"291 556 OFFCURVE",
"283 513 CURVE SMOOTH",
"211 143 LINE SMOOTH",
"167 -85 OFFCURVE",
"-39 -200 OFFCURVE",
"-98 -218 CURVE",
"-103 -215 OFFCURVE",
"-109 -205 OFFCURVE",
"-109 -200 CURVE SMOOTH",
"-109 -197 OFFCURVE",
"-108 -195 OFFCURVE",
"-107 -194 CURVE",
"-4 -138 OFFCURVE",
"48 -31 OFFCURVE",
"80 135 CURVE SMOOTH",
"153 513 LINE SMOOTH",
"161 556 OFFCURVE",
"168 587 OFFCURVE",
"164 607 CURVE SMOOTH",
"162 620 OFFCURVE",
"120 624 OFFCURVE",
"108 625 CURVE",
"105 632 OFFCURVE",
"110 656 OFFCURVE",
"115 662 CURVE",
"150 658 OFFCURVE",
"208 655 OFFCURVE"
);
}
);
width = 336;
}
);
note = J;
unicode = 004A;
},
{
color = 3;
glyphname = K;
lastChange = "2018-06-05 09:43:46 +0000";
layers = (
{
background = {
paths = (
{
closed = 1;
nodes = (
"301 615 OFFCURVE",
"352 631 OFFCURVE",
"360 631 QCURVE SMOOTH",
"367 631 OFFCURVE",
"367 655 QCURVE SMOOTH",
"367 658 LINE",
"360 658 OFFCURVE",
"285 652 OFFCURVE",
"261 652 QCURVE SMOOTH",
"236 652 OFFCURVE",
"165 657 OFFCURVE",
"153 658 QCURVE",
"145 650 OFFCURVE",
"145 636 QCURVE SMOOTH",
"145 631 OFFCURVE",
"147 631 QCURVE SMOOTH",
"160 631 OFFCURVE",
"203 615 OFFCURVE",
"203 604 QCURVE SMOOTH",
"203 567 OFFCURVE",
"192 512 QCURVE SMOOTH",
"121 142 LINE SMOOTH",
"110 80 OFFCURVE",
"95 46 QCURVE SMOOTH",
"91 37 OFFCURVE",
"43 24 OFFCURVE",
"31 24 QCURVE SMOOTH",
"24 24 OFFCURVE",
"24 5 QCURVE SMOOTH",
"24 -1 OFFCURVE",
"26 -3 QCURVE",
"134 2 OFFCURVE",
"136 2 QCURVE SMOOTH",
"148 2 OFFCURVE",
"240 -3 QCURVE",
"246 9 OFFCURVE",
"246 20 QCURVE SMOOTH",
"246 24 OFFCURVE",
"244 24 QCURVE",
"230 26 LINE SMOOTH",
"217 28 OFFCURVE",
"190 41 OFFCURVE",
"190 49 QCURVE SMOOTH",
"190 84 OFFCURVE",
"201 139 QCURVE SMOOTH",
"272 515 LINE SMOOTH",
"285 580 OFFCURVE",
"298 608 QCURVE SMOOTH"
);
},
{
closed = 1;
nodes = (
"463 36 OFFCURVE",
"486 18 OFFCURVE",
"541 -2 OFFCURVE",
"573 -2 QCURVE SMOOTH",
"597 -2 OFFCURVE",
"648 1 QCURVE",
"653 11 OFFCURVE",
"653 22 QCURVE SMOOTH",
"653 28 OFFCURVE",
"651 28 QCURVE SMOOTH",
"637 28 OFFCURVE",
"563 51 OFFCURVE",
"546 72 QCURVE SMOOTH",
"342 319 LINE",
"336 327 OFFCURVE",
"336 335 QCURVE SMOOTH",
"336 342 OFFCURVE",
"341 347 QCURVE SMOOTH",
"585 591 LINE SMOOTH",
"621 627 OFFCURVE",
"691 635 QCURVE",
"697 635 OFFCURVE",
"697 658 QCURVE",
"691 658 OFFCURVE",
"614 652 OFFCURVE",
"590 652 QCURVE SMOOTH",
"575 652 OFFCURVE",
"543 654 OFFCURVE",
"504 657 OFFCURVE",
"492 658 QCURVE",
"487 650 OFFCURVE",
"487 641 QCURVE SMOOTH",
"487 635 OFFCURVE",
"490 635 QCURVE SMOOTH",
"503 635 OFFCURVE",
"538 627 OFFCURVE",
"538 618 QCURVE SMOOTH",
"538 615 OFFCURVE",
"530 602 OFFCURVE",
"521 592 OFFCURVE",
"509 579 OFFCURVE",
"508 578 QCURVE",
"438 501 OFFCURVE",
"283 354 OFFCURVE",
"237 326 QCURVE",
"258 297 OFFCURVE",
"457 44 QCURVE SMOOTH"
);
}
);
};
layerId = "720C727D-0ED9-429E-914E-55EB9E513E33";
paths = (
{
closed = 1;
nodes = (
"589 -2 OFFCURVE",
"614 -1 OFFCURVE",
"648 1 CURVE",
"651.333 7.667 OFFCURVE",
"653 14.667 OFFCURVE",
"653 22 CURVE SMOOTH",
"653 26 OFFCURVE",
"652.333 28 OFFCURVE",
"651 28 CURVE SMOOTH",
"632.333 28 OFFCURVE",
"568.667 44 OFFCURVE",
"546 72 CURVE SMOOTH",
"342 319 LINE",
"338 324.333 OFFCURVE",
"336 329.667 OFFCURVE",
"336 335 CURVE SMOOTH",
"336 339.667 OFFCURVE",
"337.667 343.667 OFFCURVE",
"341 347 CURVE SMOOTH",
"585 591 LINE SMOOTH",
"609 615 OFFCURVE",
"644.333 629.667 OFFCURVE",
"691 635 CURVE",
"695 635 OFFCURVE",
"697 642.667 OFFCURVE",
"697 658 CURVE",
"693 658 OFFCURVE",
"678.167 657 OFFCURVE",
"652.5 655 CURVE SMOOTH",
"626.833 653 OFFCURVE",
"606 652 OFFCURVE",
"590 652 CURVE SMOOTH",
"570.068 652 OFFCURVE",
"516.158 655.987 OFFCURVE",
"492 658 CURVE",
"488.667 652.667 OFFCURVE",
"487 647 OFFCURVE",
"487 641 CURVE SMOOTH",
"487 637 OFFCURVE",
"488 635 OFFCURVE",
"490 635 CURVE SMOOTH",
"507.333 635 OFFCURVE",
"538 630 OFFCURVE",
"538 618 CURVE SMOOTH",
"538 609.767 OFFCURVE",
"513.665 583.665 OFFCURVE",
"508 578 CURVE",
"414.667 475.333 OFFCURVE",
"298.333 363.333 OFFCURVE",
"237 326 CURVE",
"251 306.667 OFFCURVE",
"324.333 212.667 OFFCURVE",
"457 44 CURVE SMOOTH",
"473.856 21.526 OFFCURVE",
"520.356 -2 OFFCURVE",
"573 -2 CURVE SMOOTH"
);
},
{
closed = 1;
nodes = (
"98 0.333 OFFCURVE",
"134.667 2 OFFCURVE",
"136 2 CURVE SMOOTH",
"144 2 OFFCURVE",
"178.667 0.333 OFFCURVE",
"240 -3 CURVE",
"244 5 OFFCURVE",
"246 12.667 OFFCURVE",
"246 20 CURVE SMOOTH",
"246 22.667 OFFCURVE",
"245.333 24 OFFCURVE",
"244 24 CURVE",
"230 26 LINE SMOOTH",
"212.667 28.667 OFFCURVE",
"190 38.333 OFFCURVE",
"190 49 CURVE SMOOTH",
"190 72.333 OFFCURVE",
"193.667 102.333 OFFCURVE",
"201 139 CURVE SMOOTH",
"272 515 LINE SMOOTH",
"280.667 558.333 OFFCURVE",
"289.333 589.333 OFFCURVE",
"298 608 CURVE SMOOTH",
"302 617.333 OFFCURVE",
"349.333 631 OFFCURVE",
"360 631 CURVE SMOOTH",
"364.667 631 OFFCURVE",
"367 639 OFFCURVE",
"367 655 CURVE SMOOTH",
"367 658 LINE",
"362.333 658 OFFCURVE",
"347.5 657 OFFCURVE",
"322.5 655 CURVE SMOOTH",
"297.5 653 OFFCURVE",
"277 652 OFFCURVE",
"261 652 CURVE SMOOTH",
"227.667 652 OFFCURVE",
"169 656.667 OFFCURVE",
"153 658 CURVE",
"147.667 652.667 OFFCURVE",
"145 645.333 OFFCURVE",
"145 636 CURVE SMOOTH",
"145 632.667 OFFCURVE",
"145.667 631 OFFCURVE",
"147 631 CURVE SMOOTH",
"164.333 631 OFFCURVE",
"203 618.667 OFFCURVE",
"203 604 CURVE SMOOTH",
"203 579.333 OFFCURVE",
"199.333 548.667 OFFCURVE",
"192 512 CURVE SMOOTH",
"121 142 LINE SMOOTH",
"113.667 100.667 OFFCURVE",
"105 68.667 OFFCURVE",
"95 46 CURVE SMOOTH",
"89.667 34 OFFCURVE",
"47 24 OFFCURVE",
"31 24 CURVE SMOOTH",
"26.333 24 OFFCURVE",
"24 17.667 OFFCURVE",
"24 5 CURVE SMOOTH",
"24 1 OFFCURVE",
"24.667 -1.667 OFFCURVE",
"26 -3 CURVE"
);
}
);
width = 642;
},
{
associatedMasterId = "720C727D-0ED9-429E-914E-55EB9E513E33";
background = {
paths = (
{
closed = 1;
nodes = (
"301 615 OFFCURVE",
"352 631 OFFCURVE",
"360 631 QCURVE SMOOTH",
"367 631 OFFCURVE",
"367 655 QCURVE SMOOTH",
"367 658 LINE",
"360 658 OFFCURVE",
"285 652 OFFCURVE",
"261 652 QCURVE SMOOTH",
"236 652 OFFCURVE",
"165 657 OFFCURVE",
"153 658 QCURVE",
"145 650 OFFCURVE",
"145 636 QCURVE SMOOTH",
"145 631 OFFCURVE",
"147 631 QCURVE SMOOTH",
"160 631 OFFCURVE",
"203 615 OFFCURVE",
"203 604 QCURVE SMOOTH",
"203 567 OFFCURVE",
"192 512 QCURVE SMOOTH",
"121 142 LINE SMOOTH",
"110 80 OFFCURVE",
"95 46 QCURVE SMOOTH",
"91 37 OFFCURVE",
"43 24 OFFCURVE",
"31 24 QCURVE SMOOTH",
"24 24 OFFCURVE",
"24 5 QCURVE SMOOTH",
"24 -1 OFFCURVE",
"26 -3 QCURVE",
"134 2 OFFCURVE",
"136 2 QCURVE SMOOTH",
"148 2 OFFCURVE",
"240 -3 QCURVE",
"246 9 OFFCURVE",
"246 20 QCURVE SMOOTH",
"246 24 OFFCURVE",
"244 24 QCURVE",
"230 26 LINE SMOOTH",
"217 28 OFFCURVE",
"190 41 OFFCURVE",
"190 49 QCURVE SMOOTH",
"190 84 OFFCURVE",
"201 139 QCURVE SMOOTH",
"272 515 LINE SMOOTH",
"285 580 OFFCURVE",
"298 608 QCURVE SMOOTH"
);
},
{
closed = 1;
nodes = (
"463 36 OFFCURVE",
"486 18 OFFCURVE",
"541 -2 OFFCURVE",
"573 -2 QCURVE SMOOTH",
"597 -2 OFFCURVE",
"648 1 QCURVE",
"653 11 OFFCURVE",
"653 22 QCURVE SMOOTH",
"653 28 OFFCURVE",
"651 28 QCURVE SMOOTH",
"637 28 OFFCURVE",
"563 51 OFFCURVE",
"546 72 QCURVE SMOOTH",
"342 319 LINE",
"336 327 OFFCURVE",
"336 335 QCURVE SMOOTH",
"336 342 OFFCURVE",
"341 347 QCURVE SMOOTH",
"585 591 LINE SMOOTH",
"621 627 OFFCURVE",
"691 635 QCURVE",
"697 635 OFFCURVE",
"697 658 QCURVE",
"691 658 OFFCURVE",
"614 652 OFFCURVE",
"590 652 QCURVE SMOOTH",
"575 652 OFFCURVE",
"543 654 OFFCURVE",
"504 657 OFFCURVE",
"492 658 QCURVE",
"487 650 OFFCURVE",
"487 641 QCURVE SMOOTH",
"487 635 OFFCURVE",
"490 635 QCURVE SMOOTH",
"503 635 OFFCURVE",
"538 627 OFFCURVE",
"538 618 QCURVE SMOOTH",
"538 615 OFFCURVE",
"530 602 OFFCURVE",
"521 592 OFFCURVE",
"509 579 OFFCURVE",
"508 578 QCURVE",
"438 501 OFFCURVE",
"283 354 OFFCURVE",
"237 326 QCURVE",
"258 297 OFFCURVE",
"457 44 QCURVE SMOOTH"
);
}
);
};
layerId = "CF8706ED-C444-4D89-B242-C2122AB0FA11";
name = "Mar 12 18, 15:56";
paths = (
{
closed = 1;
nodes = (
"302 617.333 OFFCURVE",
"349.333 631 OFFCURVE",
"360 631 CURVE SMOOTH",
"364.667 631 OFFCURVE",
"367 639 OFFCURVE",
"367 655 CURVE SMOOTH",
"367 658 LINE",
"362.333 658 OFFCURVE",
"347.5 657 OFFCURVE",
"322.5 655 CURVE SMOOTH",
"297.5 653 OFFCURVE",
"277 652 OFFCURVE",
"261 652 CURVE SMOOTH",
"227.667 652 OFFCURVE",
"169 656.667 OFFCURVE",
"153 658 CURVE",
"147.667 652.667 OFFCURVE",
"145 645.333 OFFCURVE",
"145 636 CURVE SMOOTH",
"145 632.667 OFFCURVE",
"145.667 631 OFFCURVE",
"147 631 CURVE SMOOTH",
"164.333 631 OFFCURVE",
"203 618.667 OFFCURVE",
"203 604 CURVE SMOOTH",
"203 579.333 OFFCURVE",
"199.333 548.667 OFFCURVE",
"192 512 CURVE SMOOTH",
"121 142 LINE SMOOTH",
"113.667 100.667 OFFCURVE",
"105 68.667 OFFCURVE",
"95 46 CURVE SMOOTH",
"89.667 34 OFFCURVE",
"47 24 OFFCURVE",
"31 24 CURVE SMOOTH",
"26.333 24 OFFCURVE",
"24 17.667 OFFCURVE",
"24 5 CURVE SMOOTH",
"24 1 OFFCURVE",
"24.667 -1.667 OFFCURVE",
"26 -3 CURVE",
"98 0.333 OFFCURVE",
"134.667 2 OFFCURVE",
"136 2 CURVE SMOOTH",
"144 2 OFFCURVE",
"178.667 0.333 OFFCURVE",
"240 -3 CURVE",
"244 5 OFFCURVE",
"246 12.667 OFFCURVE",
"246 20 CURVE SMOOTH",
"246 22.667 OFFCURVE",
"245.333 24 OFFCURVE",
"244 24 CURVE",
"230 26 LINE SMOOTH",
"212.667 28.667 OFFCURVE",
"190 38.333 OFFCURVE",
"190 49 CURVE SMOOTH",
"190 72.333 OFFCURVE",
"193.667 102.333 OFFCURVE",
"201 139 CURVE SMOOTH",
"272 515 LINE SMOOTH",
"280.667 558.333 OFFCURVE",
"289.333 589.333 OFFCURVE",
"298 608 CURVE SMOOTH"
);
},
{
closed = 1;
nodes = (
"473.856 21.526 OFFCURVE",
"520.356 -2 OFFCURVE",
"573 -2 CURVE SMOOTH",
"589 -2 OFFCURVE",
"614 -1 OFFCURVE",
"648 1 CURVE",
"651.333 7.667 OFFCURVE",
"653 14.667 OFFCURVE",
"653 22 CURVE SMOOTH",
"653 26 OFFCURVE",
"652.333 28 OFFCURVE",
"651 28 CURVE SMOOTH",
"632.333 28 OFFCURVE",
"568.667 44 OFFCURVE",
"546 72 CURVE SMOOTH",
"342 319 LINE",
"338 324.333 OFFCURVE",
"336 329.667 OFFCURVE",
"336 335 CURVE SMOOTH",
"336 339.667 OFFCURVE",
"337.667 343.667 OFFCURVE",
"341 347 CURVE SMOOTH",
"585 591 LINE SMOOTH",
"609 615 OFFCURVE",
"644.333 629.667 OFFCURVE",
"691 635 CURVE",
"695 635 OFFCURVE",
"697 642.667 OFFCURVE",
"697 658 CURVE",
"693 658 OFFCURVE",
"678.167 657 OFFCURVE",
"652.5 655 CURVE SMOOTH",
"626.833 653 OFFCURVE",
"606 652 OFFCURVE",
"590 652 CURVE SMOOTH",
"570.068 652 OFFCURVE",
"516.158 655.987 OFFCURVE",
"492 658 CURVE",
"488.667 652.667 OFFCURVE",
"487 647 OFFCURVE",
"487 641 CURVE SMOOTH",
"487 637 OFFCURVE",
"488 635 OFFCURVE",
"490 635 CURVE SMOOTH",
"507.333 635 OFFCURVE",
"538 630 OFFCURVE",
"538 618 CURVE SMOOTH",
"538 609.767 OFFCURVE",
"513.665 583.665 OFFCURVE",
"508 578 CURVE",
"414.667 475.333 OFFCURVE",
"298.333 363.333 OFFCURVE",
"237 326 CURVE",
"251 306.667 OFFCURVE",
"324.333 212.667 OFFCURVE",
"457 44 CURVE SMOOTH"
);
}
);
width = 642;
},
{
associatedMasterId = "720C727D-0ED9-429E-914E-55EB9E513E33";
layerId = "C6B5F1F7-6F38-45BA-8E80-968C1C31B22E";
name = "Mar 12 18, 16:00";
paths = (
{
closed = 1;
nodes = (
"294 360 OFFCURVE",
"302 366 QCURVE SMOOTH",
"316 378 OFFCURVE",
"415 464 OFFCURVE",
"451 496 OFFCURVE",
"524 562 OFFCURVE",
"559 595 QCURVE SMOOTH",
"567 603 OFFCURVE",
"585 615 OFFCURVE",
"603 622 OFFCURVE",
"619 628 OFFCURVE",
"636 630 OFFCURVE",
"646 632 OFFCURVE",
"657 632 OFFCURVE",
"658 632 QCURVE SMOOTH",
"661 632 OFFCURVE",
"667 657 OFFCURVE",
"666 662 QCURVE",
"657 662 OFFCURVE",
"588 656 OFFCURVE",
"564 656 QCURVE SMOOTH",
"549 656 OFFCURVE",
"513 658 OFFCURVE",
"470 662 OFFCURVE",
"459 662 QCURVE",
"455 655 OFFCURVE",
"451 637 OFFCURVE",
"453 632 QCURVE",
"459 632 OFFCURVE",
"470 631 OFFCURVE",
"491 627 OFFCURVE",
"501 616 OFFCURVE",
"500 607 QCURVE SMOOTH",
"497 595 OFFCURVE",
"481 576 QCURVE SMOOTH",
"468 562 OFFCURVE",
"453 546 OFFCURVE",
"432 525 OFFCURVE",
"425 518 OFFCURVE",
"399 494 OFFCURVE",
"389 486 OFFCURVE",
"347 449 OFFCURVE",
"336 439 QCURVE SMOOTH",
"243 359 OFFCURVE",
"212 340 QCURVE",
"251 543 LINE SMOOTH",
"263 603 OFFCURVE",
"270 617 QCURVE",
"273 624 OFFCURVE",
"324 633 OFFCURVE",
"338 633 QCURVE",
"342 637 OFFCURVE",
"346 658 OFFCURVE",
"343 662 QCURVE",
"245 657 OFFCURVE",
"234 657 QCURVE SMOOTH",
"220 657 OFFCURVE",
"125 662 QCURVE",
"120 659 OFFCURVE",
"116 637 OFFCURVE",
"119 633 QCURVE",
"133 633 OFFCURVE",
"179 624 OFFCURVE",
"180 617 QCURVE",
"182 602 OFFCURVE",
"170 543 QCURVE SMOOTH",
"87 116 LINE SMOOTH",
"75 56 OFFCURVE",
"68 42 QCURVE",
"65 35 OFFCURVE",
"15 26 OFFCURVE",
"1 26 QCURVE",
"-4 22 OFFCURVE",
"-8 1 OFFCURVE",
"-5 -3 QCURVE",
"93 2 OFFCURVE",
"106 2 QCURVE SMOOTH",
"119 2 OFFCURVE",
"214 -3 QCURVE",
"218 1 OFFCURVE",
"222 23 OFFCURVE",
"220 26 QCURVE",
"206 26 OFFCURVE",
"159 35 OFFCURVE",
"159 42 QCURVE",
"157 60 OFFCURVE",
"168 116 QCURVE SMOOTH",
"205 305 LINE",
"209 307 OFFCURVE",
"214 307 QCURVE SMOOTH",
"221 307 OFFCURVE",
"222 304 QCURVE",
"358 84 OFFCURVE",
"382 51 QCURVE SMOOTH",
"404 22 OFFCURVE",
"437 8 QCURVE SMOOTH",
"463 -3 OFFCURVE",
"567 -3 QCURVE",
"569 2 OFFCURVE",
"575 23 OFFCURVE",
"573 26 QCURVE",
"538 29 OFFCURVE",
"497 52 OFFCURVE",
"481 72 QCURVE SMOOTH",
"454 106 OFFCURVE",
"388 207 OFFCURVE",
"346 273 OFFCURVE",
"300 350 QCURVE SMOOTH"
);
}
);
width = 614;
},
{
layerId = "DEDDD934-E4FE-4A27-B966-8C21F8A9BC34";
paths = (
{
closed = 1;
nodes = (
"521 141 CURVE SMOOTH",
"598 26 OFFCURVE",
"653 29 OFFCURVE",
"660 29 CURVE",
"663 22 OFFCURVE",
"656 0 OFFCURVE",
"655 -2 CURVE",
"628 -4 OFFCURVE",
"628 -6 OFFCURVE",
"590 -6 CURVE SMOOTH",
"491 -6 OFFCURVE",
"449 20 OFFCURVE",
"401 92 CURVE SMOOTH",
"378 126 OFFCURVE",
"304 244 OFFCURVE",
"267 302 CURVE SMOOTH",
"265 305 OFFCURVE",
"260 306 OFFCURVE",
"258 306 CURVE SMOOTH",
"254 306 OFFCURVE",
"251 304 OFFCURVE",
"248 300 CURVE",
"218 145 LINE SMOOTH",
"210 102 OFFCURVE",
"203 71 OFFCURVE",
"207 51 CURVE SMOOTH",
"209 38 OFFCURVE",
"251 34 OFFCURVE",
"263 33 CURVE",
"266 26 OFFCURVE",
"261 2 OFFCURVE",
"256 -4 CURVE",
"221 0 OFFCURVE",
"163 3 OFFCURVE",
"124 3 CURVE SMOOTH",
"85 3 OFFCURVE",
"28 0 OFFCURVE",
"-9 -4 CURVE",
"-12 2 OFFCURVE",
"-7 26 OFFCURVE",
"-1 33 CURVE",
"11 34 OFFCURVE",
"55 38 OFFCURVE",
"62 51 CURVE SMOOTH",
"73 71 OFFCURVE",
"79 102 OFFCURVE",
"87 145 CURVE SMOOTH",
"159 513 LINE SMOOTH",
"167 556 OFFCURVE",
"174 587 OFFCURVE",
"170 607 CURVE SMOOTH",
"168 620 OFFCURVE",
"126 624 OFFCURVE",
"114 625 CURVE",
"111 632 OFFCURVE",
"116 656 OFFCURVE",
"121 662 CURVE",
"156 658 OFFCURVE",
"214 655 OFFCURVE",
"253 655 CURVE SMOOTH",
"292 655 OFFCURVE",
"348 658 OFFCURVE",
"385 662 CURVE",
"388 656 OFFCURVE",
"384 632 OFFCURVE",
"378 625 CURVE",
"366 624 OFFCURVE",
"322 620 OFFCURVE",
"315 607 CURVE SMOOTH",
"304 587 OFFCURVE",
"297 556 OFFCURVE",
"289 513 CURVE SMOOTH",
"255 337 LINE",
"303 372 OFFCURVE",
"342 403 OFFCURVE",
"369 428 CURVE SMOOTH",
"437 489 OFFCURVE",
"468 514 OFFCURVE",
"518 570 CURVE SMOOTH",
"530 583 OFFCURVE",
"533 596 OFFCURVE",
"534 603 CURVE SMOOTH",
"538 624 OFFCURVE",
"499 626 OFFCURVE",
"486 626 CURVE",
"483 634 OFFCURVE",
"486 653 OFFCURVE",
"491 662 CURVE",
"525 660 OFFCURVE",
"577 655 OFFCURVE",
"611 655 CURVE SMOOTH",
"652 655 OFFCURVE",
"692 658 OFFCURVE",
"727 662 CURVE",
"728 655 OFFCURVE",
"725 633 OFFCURVE",
"719 627 CURVE",
"710 626 OFFCURVE",
"644 619 OFFCURVE",
"605 583 CURVE SMOOTH",
"605 583 OFFCURVE",
"465 455 OFFCURVE",
"380 376 CURVE SMOOTH",
"373 369 OFFCURVE",
"372 365 OFFCURVE",
"375 360 CURVE SMOOTH",
"429 274 OFFCURVE",
"468 220 OFFCURVE"
);
}
);
width = 688;
}
);
note = K;
unicode = 004B;
},
{
color = 3;
glyphname = L;
lastChange = "2018-06-05 09:43:46 +0000";
layers = (
{
background = {
paths = (
{
closed = 1;
nodes = (
"286 580 OFFCURVE",
"299 608 QCURVE SMOOTH",
"302 615 OFFCURVE",
"353 631 OFFCURVE",
"361 631 QCURVE SMOOTH",
"368 631 OFFCURVE",
"368 655 QCURVE SMOOTH",
"368 658 LINE",
"361 658 OFFCURVE",
"286 652 OFFCURVE",
"262 652 QCURVE SMOOTH",
"237 652 OFFCURVE",
"166 657 OFFCURVE",
"154 658 QCURVE",
"146 650 OFFCURVE",
"146 636 QCURVE SMOOTH",
"146 631 OFFCURVE",
"148 631 QCURVE SMOOTH",
"161 631 OFFCURVE",
"204 615 OFFCURVE",
"204 604 QCURVE SMOOTH",
"204 567 OFFCURVE",
"193 512 QCURVE SMOOTH",
"122 142 LINE SMOOTH",
"110 78 OFFCURVE",
"96 49 QCURVE SMOOTH",
"92 41 OFFCURVE",
"44 29 OFFCURVE",
"31 29 QCURVE SMOOTH",
"24 29 OFFCURVE",
"24 5 QCURVE SMOOTH",
"24 -2 OFFCURVE",
"25 -3 QCURVE",
"136 2 LINE",
"176 2 OFFCURVE",
"400 -4 OFFCURVE",
"452 -4 QCURVE",
"464 32 OFFCURVE",
"534 162 QCURVE",
"530 168 OFFCURVE",
"513 168 QCURVE SMOOTH",
"501 168 OFFCURVE",
"498 162 QCURVE SMOOTH",
"479 124 OFFCURVE",
"436 69 OFFCURVE",
"420 61 QCURVE SMOOTH",
"386 44 OFFCURVE",
"299 44 QCURVE SMOOTH",
"254 44 LINE SMOOTH",
"209 44 OFFCURVE",
"192 50 OFFCURVE",
"192 65 QCURVE SMOOTH",
"192 81 OFFCURVE",
"202 139 QCURVE SMOOTH",
"273 515 LINE SMOOTH"
);
}
);
};
layerId = "720C727D-0ED9-429E-914E-55EB9E513E33";
paths = (
{
closed = 1;
nodes = (
"460 20 OFFCURVE",
"487.333 75.333 OFFCURVE",
"534 162 CURVE",
"531.333 166 OFFCURVE",
"524.333 168 OFFCURVE",
"513 168 CURVE SMOOTH",
"505 168 OFFCURVE",
"500 166 OFFCURVE",
"498 162 CURVE SMOOTH",
"472.667 111.333 OFFCURVE",
"441.333 71.667 OFFCURVE",
"420 61 CURVE SMOOTH",
"397.333 49.667 OFFCURVE",
"357 44 OFFCURVE",
"299 44 CURVE SMOOTH",
"254 44 LINE SMOOTH",
"224 44 OFFCURVE",
"206.167 45 OFFCURVE",
"200.5 47 CURVE SMOOTH",
"194.833 49 OFFCURVE",
"192 55 OFFCURVE",
"192 65 CURVE SMOOTH",
"192 75.667 OFFCURVE",
"195.333 100.333 OFFCURVE",
"202 139 CURVE SMOOTH",
"273 515 LINE SMOOTH",
"281.667 558.333 OFFCURVE",
"290.333 589.333 OFFCURVE",
"299 608 CURVE SMOOTH",
"303 617.333 OFFCURVE",
"350.333 631 OFFCURVE",
"361 631 CURVE SMOOTH",
"365.667 631 OFFCURVE",
"368 639 OFFCURVE",
"368 655 CURVE SMOOTH",
"368 658 LINE",
"363.333 658 OFFCURVE",
"348.5 657 OFFCURVE",
"323.5 655 CURVE SMOOTH",
"298.5 653 OFFCURVE",
"278 652 OFFCURVE",
"262 652 CURVE SMOOTH",
"228.667 652 OFFCURVE",
"170 656.667 OFFCURVE",
"154 658 CURVE",
"148.667 652.667 OFFCURVE",
"146 645.333 OFFCURVE",
"146 636 CURVE SMOOTH",
"146 632.667 OFFCURVE",
"146.667 631 OFFCURVE",
"148 631 CURVE SMOOTH",
"165.333 631 OFFCURVE",
"204 618.667 OFFCURVE",
"204 604 CURVE SMOOTH",
"204 579.333 OFFCURVE",
"200.333 548.667 OFFCURVE",
"193 512 CURVE SMOOTH",
"122 142 LINE SMOOTH",
"114 99.333 OFFCURVE",
"105.333 68.333 OFFCURVE",
"96 49 CURVE SMOOTH",
"90.667 38.333 OFFCURVE",
"48.333 29 OFFCURVE",
"31 29 CURVE SMOOTH",
"26.333 29 OFFCURVE",
"24 21 OFFCURVE",
"24 5 CURVE SMOOTH",
"24 0.333 OFFCURVE",
"24.333 -2.333 OFFCURVE",
"25 -3 CURVE",
"136 2 LINE",
"162.667 2 OFFCURVE",
"213.333 1 OFFCURVE",
"288 -1 CURVE SMOOTH",
"362.667 -3 OFFCURVE",
"417.333 -4 OFFCURVE",
"452 -4 CURVE"
);
}
);
width = 498;
},
{
associatedMasterId = "720C727D-0ED9-429E-914E-55EB9E513E33";
background = {
paths = (
{
closed = 1;
nodes = (
"286 580 OFFCURVE",
"299 608 QCURVE SMOOTH",
"302 615 OFFCURVE",
"353 631 OFFCURVE",
"361 631 QCURVE SMOOTH",
"368 631 OFFCURVE",
"368 655 QCURVE SMOOTH",
"368 658 LINE",
"361 658 OFFCURVE",
"286 652 OFFCURVE",
"262 652 QCURVE SMOOTH",
"237 652 OFFCURVE",
"166 657 OFFCURVE",
"154 658 QCURVE",
"146 650 OFFCURVE",
"146 636 QCURVE SMOOTH",
"146 631 OFFCURVE",
"148 631 QCURVE SMOOTH",
"161 631 OFFCURVE",
"204 615 OFFCURVE",
"204 604 QCURVE SMOOTH",
"204 567 OFFCURVE",
"193 512 QCURVE SMOOTH",
"122 142 LINE SMOOTH",
"110 78 OFFCURVE",
"96 49 QCURVE SMOOTH",
"92 41 OFFCURVE",
"44 29 OFFCURVE",
"31 29 QCURVE SMOOTH",
"24 29 OFFCURVE",
"24 5 QCURVE SMOOTH",
"24 -2 OFFCURVE",
"25 -3 QCURVE",
"136 2 LINE",
"176 2 OFFCURVE",
"400 -4 OFFCURVE",
"452 -4 QCURVE",
"464 32 OFFCURVE",
"534 162 QCURVE",
"530 168 OFFCURVE",
"513 168 QCURVE SMOOTH",
"501 168 OFFCURVE",
"498 162 QCURVE SMOOTH",
"479 124 OFFCURVE",
"436 69 OFFCURVE",
"420 61 QCURVE SMOOTH",
"386 44 OFFCURVE",
"299 44 QCURVE SMOOTH",
"254 44 LINE SMOOTH",
"209 44 OFFCURVE",
"192 50 OFFCURVE",
"192 65 QCURVE SMOOTH",
"192 81 OFFCURVE",
"202 139 QCURVE SMOOTH",
"273 515 LINE SMOOTH"
);
}
);
};
layerId = "469A88B7-2DC2-47D1-830F-BEF6C3D1AD6A";
name = "Mar 12 18, 15:56";
paths = (
{
closed = 1;
nodes = (
"281.667 558.333 OFFCURVE",
"290.333 589.333 OFFCURVE",
"299 608 CURVE SMOOTH",
"303 617.333 OFFCURVE",
"350.333 631 OFFCURVE",
"361 631 CURVE SMOOTH",
"365.667 631 OFFCURVE",
"368 639 OFFCURVE",
"368 655 CURVE SMOOTH",
"368 658 LINE",
"363.333 658 OFFCURVE",
"348.5 657 OFFCURVE",
"323.5 655 CURVE SMOOTH",
"298.5 653 OFFCURVE",
"278 652 OFFCURVE",
"262 652 CURVE SMOOTH",
"228.667 652 OFFCURVE",
"170 656.667 OFFCURVE",
"154 658 CURVE",
"148.667 652.667 OFFCURVE",
"146 645.333 OFFCURVE",
"146 636 CURVE SMOOTH",
"146 632.667 OFFCURVE",
"146.667 631 OFFCURVE",
"148 631 CURVE SMOOTH",
"165.333 631 OFFCURVE",
"204 618.667 OFFCURVE",
"204 604 CURVE SMOOTH",
"204 579.333 OFFCURVE",
"200.333 548.667 OFFCURVE",
"193 512 CURVE SMOOTH",
"122 142 LINE SMOOTH",
"114 99.333 OFFCURVE",
"105.333 68.333 OFFCURVE",
"96 49 CURVE SMOOTH",
"90.667 38.333 OFFCURVE",
"48.333 29 OFFCURVE",
"31 29 CURVE SMOOTH",
"26.333 29 OFFCURVE",
"24 21 OFFCURVE",
"24 5 CURVE SMOOTH",
"24 0.333 OFFCURVE",
"24.333 -2.333 OFFCURVE",
"25 -3 CURVE",
"136 2 LINE",
"162.667 2 OFFCURVE",
"213.333 1 OFFCURVE",
"288 -1 CURVE SMOOTH",
"362.667 -3 OFFCURVE",
"417.333 -4 OFFCURVE",
"452 -4 CURVE",
"460 20 OFFCURVE",
"487.333 75.333 OFFCURVE",
"534 162 CURVE",
"531.333 166 OFFCURVE",
"524.333 168 OFFCURVE",
"513 168 CURVE SMOOTH",
"505 168 OFFCURVE",
"500 166 OFFCURVE",
"498 162 CURVE SMOOTH",
"472.667 111.333 OFFCURVE",
"441.333 71.667 OFFCURVE",
"420 61 CURVE SMOOTH",
"397.333 49.667 OFFCURVE",
"357 44 OFFCURVE",
"299 44 CURVE SMOOTH",
"254 44 LINE SMOOTH",
"224 44 OFFCURVE",
"206.167 45 OFFCURVE",
"200.5 47 CURVE SMOOTH",
"194.833 49 OFFCURVE",
"192 55 OFFCURVE",
"192 65 CURVE SMOOTH",
"192 75.667 OFFCURVE",
"195.333 100.333 OFFCURVE",
"202 139 CURVE SMOOTH",
"273 515 LINE SMOOTH"
);
}
);
width = 498;
},
{
associatedMasterId = "720C727D-0ED9-429E-914E-55EB9E513E33";
layerId = "FEE21201-9378-4E10-8271-603353443D1C";
name = "Mar 12 18, 16:00";
paths = (
{
closed = 1;
nodes = (
"262 600 OFFCURVE",
"271 617 QCURVE",
"274 624 OFFCURVE",
"324 633 OFFCURVE",
"338 633 QCURVE",
"342 637 OFFCURVE",
"347 658 OFFCURVE",
"344 662 QCURVE",
"246 657 OFFCURVE",
"234 657 QCURVE SMOOTH",
"220 657 OFFCURVE",
"125 662 QCURVE",
"120 659 OFFCURVE",
"117 637 OFFCURVE",
"120 633 QCURVE",
"134 633 OFFCURVE",
"180 624 OFFCURVE",
"181 617 QCURVE",
"183 602 OFFCURVE",
"171 543 QCURVE SMOOTH",
"88 116 LINE SMOOTH",
"76 56 OFFCURVE",
"69 42 QCURVE",
"66 35 OFFCURVE",
"16 26 OFFCURVE",
"2 26 QCURVE",
"-3 22 OFFCURVE",
"-8 1 OFFCURVE",
"-5 -3 QCURVE",
"13 -3 OFFCURVE",
"84 0 OFFCURVE",
"107 0 QCURVE SMOOTH",
"172 0 OFFCURVE",
"375 -4 OFFCURVE",
"423 -4 QCURVE",
"429 16 OFFCURVE",
"455 69 OFFCURVE",
"499 150 OFFCURVE",
"506 162 QCURVE",
"502 168 OFFCURVE",
"484 168 QCURVE SMOOTH",
"472 168 OFFCURVE",
"469 162 QCURVE SMOOTH",
"432 85 OFFCURVE",
"383 57 QCURVE SMOOTH",
"335 30 OFFCURVE",
"275 30 QCURVE SMOOTH",
"222 30 LINE SMOOTH",
"189 30 OFFCURVE",
"165 33 OFFCURVE",
"158 40 QCURVE SMOOTH",
"153 46 OFFCURVE",
"166 112 QCURVE SMOOTH",
"252 543 LINE SMOOTH"
);
}
);
width = 530;
},
{
layerId = "DEDDD934-E4FE-4A27-B966-8C21F8A9BC34";
paths = (
{
closed = 1;
nodes = (
"217 141 LINE SMOOTH",
"216 135 OFFCURVE",
"205 82 OFFCURVE",
"209 62 CURVE SMOOTH",
"212 48 OFFCURVE",
"241 42 OFFCURVE",
"265 42 CURVE SMOOTH",
"327 42 LINE SMOOTH",
"362 42 OFFCURVE",
"394 52 OFFCURVE",
"420 75 CURVE SMOOTH",
"444 96 OFFCURVE",
"463 125 OFFCURVE",
"488 170 CURVE SMOOTH",
"490 174 OFFCURVE",
"496 176 OFFCURVE",
"503 176 CURVE SMOOTH",
"512 176 OFFCURVE",
"527 173 OFFCURVE",
"529 170 CURVE",
"501 116 OFFCURVE",
"461 42 OFFCURVE",
"446 -2 CURVE",
"420 -2 OFFCURVE",
"249 -2 OFFCURVE",
"124 -2 CURVE SMOOTH",
"58 -2 OFFCURVE",
"5 -3 OFFCURVE",
"-8 -3 CURVE",
"-11 3 OFFCURVE",
"-7 27 OFFCURVE",
"-1 34 CURVE",
"11 35 OFFCURVE",
"55 38 OFFCURVE",
"62 51 CURVE SMOOTH",
"73 71 OFFCURVE",
"79 102 OFFCURVE",
"87 145 CURVE SMOOTH",
"159 513 LINE SMOOTH",
"167 556 OFFCURVE",
"174 587 OFFCURVE",
"170 607 CURVE SMOOTH",
"168 620 OFFCURVE",
"126 624 OFFCURVE",
"114 625 CURVE",
"111 632 OFFCURVE",
"116 656 OFFCURVE",
"121 662 CURVE",
"156 658 OFFCURVE",
"214 655 OFFCURVE",
"253 655 CURVE SMOOTH",
"292 655 OFFCURVE",
"348 658 OFFCURVE",
"385 662 CURVE",
"388 656 OFFCURVE",
"384 632 OFFCURVE",
"378 625 CURVE",
"366 624 OFFCURVE",
"322 620 OFFCURVE",
"315 607 CURVE SMOOTH",
"304 587 OFFCURVE",
"297 556 OFFCURVE",
"289 513 CURVE SMOOTH"
);
}
);
width = 547;
}
);
note = L;
unicode = 004C;
},
{
color = 3;
glyphname = Lslash;
lastChange = "2018-06-05 09:43:46 +0000";
layers = (
{
layerId = "720C727D-0ED9-429E-914E-55EB9E513E33";
paths = (
{
closed = 1;
nodes = (
"491 32 OFFCURVE",
"542 127 OFFCURVE",
"561 162 CURVE",
"558 166 OFFCURVE",
"551 168 OFFCURVE",
"539 168 CURVE SMOOTH",
"532 168 OFFCURVE",
"527 166 OFFCURVE",
"525 162 CURVE SMOOTH",
"501 111 OFFCURVE",
"468 72 OFFCURVE",
"447 61 CURVE",
"424 50 OFFCURVE",
"384 44 OFFCURVE",
"327 44 CURVE SMOOTH",
"282 44 LINE SMOOTH",
"242 44 OFFCURVE",
"222 47 OFFCURVE",
"221 54 CURVE",
"220 80 OFFCURVE",
"223 109 OFFCURVE",
"229 142 CURVE SMOOTH",
"256 280 LINE",
"473 416 LINE",
"477 419 OFFCURVE",
"468 440 OFFCURVE",
"463 447 CURVE",
"264 320 LINE",
"303 519 LINE SMOOTH",
"311 560 OFFCURVE",
"320 591 OFFCURVE",
"329 612 CURVE SMOOTH",
"333 621 OFFCURVE",
"381 633 OFFCURVE",
"393 633 CURVE SMOOTH",
"396 633 OFFCURVE",
"398 638 OFFCURVE",
"399 647 CURVE",
"400 650 OFFCURVE",
"400 655 OFFCURVE",
"400 662 CURVE",
"374 660 OFFCURVE",
"315 656 OFFCURVE",
"291 656 CURVE SMOOTH",
"258 656 OFFCURVE",
"196 661 OFFCURVE",
"181 662 CURVE",
"178 659 OFFCURVE",
"175 653 OFFCURVE",
"174 646 CURVE SMOOTH",
"173 637 OFFCURVE",
"173 633 OFFCURVE",
"175 633 CURVE SMOOTH",
"191 633 OFFCURVE",
"232 623 OFFCURVE",
"233 612 CURVE SMOOTH",
"234 599 OFFCURVE",
"230 568 OFFCURVE",
"222 521 CURVE SMOOTH",
"171 260 LINE",
"90 207 LINE",
"86 204 OFFCURVE",
"89 194 OFFCURVE",
"100 178 CURVE",
"164 220 LINE",
"149 143 LINE SMOOTH",
"139 89 OFFCURVE",
"131 58 OFFCURVE",
"124 49 CURVE SMOOTH",
"115 37 OFFCURVE",
"73 28 OFFCURVE",
"56 28 CURVE SMOOTH",
"53 28 OFFCURVE",
"51 24 OFFCURVE",
"50 15 CURVE",
"48 6 OFFCURVE",
"48 1 OFFCURVE",
"50 -1 CURVE",
"163 2 LINE SMOOTH",
"205 2 OFFCURVE",
"260 1 OFFCURVE",
"329 -1 CURVE SMOOTH",
"397 -3 OFFCURVE",
"447 -4 OFFCURVE",
"479 -4 CURVE"
);
}
);
width = 570;
},
{
components = (
{
name = L;
transform = "{1, 0, 0, 1, 1, 0}";
}
);
layerId = "DEDDD934-E4FE-4A27-B966-8C21F8A9BC34";
paths = (
{
closed = 1;
nodes = (
"2 196 LINE SMOOTH",
"-3 192 OFFCURVE",
"7 245 OFFCURVE",
"12 250 CURVE SMOOTH",
"169 338.659 LINE",
"210 353.812 LINE",
"437 482 LINE SMOOTH",
"443 486 OFFCURVE",
"432 432 OFFCURVE",
"427 428 CURVE SMOOTH",
"199 296.247 LINE",
"165 286.047 LINE"
);
}
);
width = 548;
}
);
note = Lslash;
unicode = 0141;
},
{
color = 3;
glyphname = M;
lastChange = "2018-06-05 09:43:46 +0000";
layers = (
{
background = {
paths = (
{
closed = 1;
nodes = (
"456 162 OFFCURVE",
"453 162 QCURVE SMOOTH",
"452 162 OFFCURVE",
"452 163 QCURVE",
"385 576 OFFCURVE",
"376 658 QCURVE",
"338 656 OFFCURVE",
"281 656 QCURVE SMOOTH",
"261 656 OFFCURVE",
"187 658 QCURVE",
"181 654 OFFCURVE",
"181 638 QCURVE SMOOTH",
"181 631 OFFCURVE",
"183 631 QCURVE SMOOTH",
"194 631 OFFCURVE",
"251 615 OFFCURVE",
"251 604 QCURVE SMOOTH",
"251 591 OFFCURVE",
"247 568 OFFCURVE",
"240 539 OFFCURVE",
"238 528 QCURVE",
"129 137 LINE SMOOTH",
"114 82 OFFCURVE",
"96 48 QCURVE SMOOTH",
"92 40 OFFCURVE",
"31 24 OFFCURVE",
"19 24 QCURVE SMOOTH",
"12 24 OFFCURVE",
"12 7 QCURVE SMOOTH",
"12 -1 OFFCURVE",
"14 -3 QCURVE",
"121 2 OFFCURVE",
"124 2 QCURVE SMOOTH",
"135 2 OFFCURVE",
"228 -3 QCURVE",
"233 7 OFFCURVE",
"233 18 QCURVE SMOOTH",
"233 24 OFFCURVE",
"231 24 QCURVE SMOOTH",
"229 24 OFFCURVE",
"197 31 OFFCURVE",
"163 46 OFFCURVE",
"163 53 QCURVE SMOOTH",
"163 68 OFFCURVE",
"182 136 QCURVE SMOOTH",
"299 567 LINE",
"299 569 OFFCURVE",
"302 569 QCURVE SMOOTH",
"303 569 OFFCURVE",
"304 567 QCURVE",
"389 0 LINE",
"393 -2 OFFCURVE",
"397 -2 QCURVE SMOOTH",
"409 -2 OFFCURVE",
"437 22 OFFCURVE",
"442 31 QCURVE",
"703 563 LINE SMOOTH",
"705 567 OFFCURVE",
"706 567 QCURVE SMOOTH",
"712 567 OFFCURVE",
"712 561 QCURVE SMOOTH",
"712 552 OFFCURVE",
"709 522 QCURVE SMOOTH",
"669 132 LINE",
"668 128 OFFCURVE",
"666 103 OFFCURVE",
"665 94 OFFCURVE",
"661 75 OFFCURVE",
"658 64 OFFCURVE",
"652 49 OFFCURVE",
"649 42 QCURVE",
"645 34 OFFCURVE",
"599 24 OFFCURVE",
"586 24 QCURVE SMOOTH",
"584 24 OFFCURVE",
"579 8 OFFCURVE",
"579 2 QCURVE SMOOTH",
"579 1 OFFCURVE",
"581 -3 QCURVE",
"683 2 OFFCURVE",
"686 2 QCURVE SMOOTH",
"702 2 OFFCURVE",
"795 -3 QCURVE",
"801 3 OFFCURVE",
"801 15 QCURVE SMOOTH",
"801 24 OFFCURVE",
"799 24 QCURVE SMOOTH",
"796 24 OFFCURVE",
"777 25 OFFCURVE",
"764 27 OFFCURVE",
"749 32 OFFCURVE",
"741 46 OFFCURVE",
"741 56 QCURVE SMOOTH",
"741 83 OFFCURVE",
"747 135 QCURVE SMOOTH",
"786 517 LINE SMOOTH",
"791 560 OFFCURVE",
"800 594 OFFCURVE",
"809 606 QCURVE SMOOTH",
"816 616 OFFCURVE",
"845 630 OFFCURVE",
"858 630 QCURVE SMOOTH",
"861 630 OFFCURVE",
"865 654 OFFCURVE",
"863 659 QCURVE",
"811 655 OFFCURVE",
"776 655 QCURVE SMOOTH",
"724 655 OFFCURVE",
"697 658 QCURVE",
"634 523 LINE",
"456 164 LINE"
);
}
);
};
layerId = "720C727D-0ED9-429E-914E-55EB9E513E33";
paths = (
{
closed = 1;
nodes = (
"85.333 0.333 OFFCURVE",
"122 2 OFFCURVE",
"124 2 CURVE SMOOTH",
"131.333 2 OFFCURVE",
"166 0.333 OFFCURVE",
"228 -3 CURVE",
"231.333 3.667 OFFCURVE",
"233 10.667 OFFCURVE",
"233 18 CURVE SMOOTH",
"233 22 OFFCURVE",
"232.333 24 OFFCURVE",
"231 24 CURVE SMOOTH",
"220.061 24 OFFCURVE",
"163 38.815 OFFCURVE",
"163 53 CURVE SMOOTH",
"163 63 OFFCURVE",
"169.333 90.667 OFFCURVE",
"182 136 CURVE SMOOTH",
"299 567 LINE",
"299 568.333 OFFCURVE",
"300 569 OFFCURVE",
"302 569 CURVE SMOOTH",
"302.667 569 OFFCURVE",
"303.333 568.333 OFFCURVE",
"304 567 CURVE",
"389 0 LINE",
"391.667 -1.333 OFFCURVE",
"394.333 -2 OFFCURVE",
"397 -2 CURVE SMOOTH",
"413 -2 OFFCURVE",
"435.333 19 OFFCURVE",
"442 31 CURVE",
"703 563 LINE SMOOTH",
"704.333 565.667 OFFCURVE",
"705.333 567 OFFCURVE",
"706 567 CURVE SMOOTH",
"710 567 OFFCURVE",
"712 565 OFFCURVE",
"712 561 CURVE SMOOTH",
"712 555 OFFCURVE",
"711 542 OFFCURVE",
"709 522 CURVE SMOOTH",
"669 132 LINE",
"666.127 120.509 OFFCURVE",
"665.909 98.318 OFFCURVE",
"663 84.5 CURVE SMOOTH",
"660.583 73.021 OFFCURVE",
"654.258 54.269 OFFCURVE",
"649 42 CURVE",
"643.667 31.333 OFFCURVE",
"603.333 24 OFFCURVE",
"586 24 CURVE SMOOTH",
"583.333 24 OFFCURVE",
"579 10 OFFCURVE",
"579 2 CURVE SMOOTH",
"579 1.333 OFFCURVE",
"579.667 -0.333 OFFCURVE",
"581 -3 CURVE",
"649 0.333 OFFCURVE",
"684 2 OFFCURVE",
"686 2 CURVE SMOOTH",
"696.667 2 OFFCURVE",
"733 0.333 OFFCURVE",
"795 -3 CURVE",
"799 1 OFFCURVE",
"801 7 OFFCURVE",
"801 15 CURVE SMOOTH",
"801 21 OFFCURVE",
"800.333 24 OFFCURVE",
"799 24 CURVE SMOOTH",
"795 24 OFFCURVE",
"779.167 24.667 OFFCURVE",
"770.5 26 CURVE SMOOTH",
"766.167 26.667 OFFCURVE",
"761.5 27.833 OFFCURVE",
"756.5 29.5 CURVE SMOOTH",
"751.5 31.167 OFFCURVE",
"746.333 40 OFFCURVE",
"741 56 CURVE",
"741 74 OFFCURVE",
"743 100.333 OFFCURVE",
"747 135 CURVE SMOOTH",
"786 517 LINE SMOOTH",
"789.333 545.667 OFFCURVE",
"792.5 565.667 OFFCURVE",
"795.5 577 CURVE SMOOTH",
"798.5 588.333 OFFCURVE",
"803 598 OFFCURVE",
"809 606 CURVE SMOOTH",
"818.333 619.333 OFFCURVE",
"840.667 630 OFFCURVE",
"858 630 CURVE SMOOTH",
"862 630 OFFCURVE",
"865.667 652.333 OFFCURVE",
"863 659 CURVE",
"828.333 656.333 OFFCURVE",
"799.333 655 OFFCURVE",
"776 655 CURVE SMOOTH",
"741.333 655 OFFCURVE",
"715 656 OFFCURVE",
"697 658 CURVE",
"634 523 LINE",
"456 164 LINE",
"456 162.667 OFFCURVE",
"455 162 OFFCURVE",
"453 162 CURVE SMOOTH",
"452.333 162 OFFCURVE",
"452 162.333 OFFCURVE",
"452 163 CURVE",
"407.333 438.333 OFFCURVE",
"382 603.333 OFFCURVE",
"376 658 CURVE",
"350.667 656.667 OFFCURVE",
"319 656 OFFCURVE",
"281 656 CURVE SMOOTH",
"267.667 656 OFFCURVE",
"236.333 656.667 OFFCURVE",
"187 658 CURVE",
"183 655.333 OFFCURVE",
"181 648.667 OFFCURVE",
"181 638 CURVE SMOOTH",
"181 633.333 OFFCURVE",
"181.667 631 OFFCURVE",
"183 631 CURVE SMOOTH",
"197.667 631 OFFCURVE",
"251 618.667 OFFCURVE",
"251 604 CURVE SMOOTH",
"251 583.66 OFFCURVE",
"242.077 550.425 OFFCURVE",
"238 528 CURVE",
"129 137 LINE SMOOTH",
"119 100.333 OFFCURVE",
"108 70.667 OFFCURVE",
"96 48 CURVE SMOOTH",
"90.667 37.333 OFFCURVE",
"35 24 OFFCURVE",
"19 24 CURVE SMOOTH",
"14.333 24 OFFCURVE",
"12 18.333 OFFCURVE",
"12 7 CURVE SMOOTH",
"12 1.667 OFFCURVE",
"12.667 -1.667 OFFCURVE",
"14 -3 CURVE"
);
}
);
width = 814;
},
{
associatedMasterId = "720C727D-0ED9-429E-914E-55EB9E513E33";
background = {
paths = (
{
closed = 1;
nodes = (
"456 162 OFFCURVE",
"453 162 QCURVE SMOOTH",
"452 162 OFFCURVE",
"452 163 QCURVE",
"385 576 OFFCURVE",
"376 658 QCURVE",
"338 656 OFFCURVE",
"281 656 QCURVE SMOOTH",
"261 656 OFFCURVE",
"187 658 QCURVE",
"181 654 OFFCURVE",
"181 638 QCURVE SMOOTH",
"181 631 OFFCURVE",
"183 631 QCURVE SMOOTH",
"194 631 OFFCURVE",
"251 615 OFFCURVE",
"251 604 QCURVE SMOOTH",
"251 591 OFFCURVE",
"247 568 OFFCURVE",
"240 539 OFFCURVE",
"238 528 QCURVE",
"129 137 LINE SMOOTH",
"114 82 OFFCURVE",
"96 48 QCURVE SMOOTH",
"92 40 OFFCURVE",
"31 24 OFFCURVE",
"19 24 QCURVE SMOOTH",
"12 24 OFFCURVE",
"12 7 QCURVE SMOOTH",
"12 -1 OFFCURVE",
"14 -3 QCURVE",
"121 2 OFFCURVE",
"124 2 QCURVE SMOOTH",
"135 2 OFFCURVE",
"228 -3 QCURVE",
"233 7 OFFCURVE",
"233 18 QCURVE SMOOTH",
"233 24 OFFCURVE",
"231 24 QCURVE SMOOTH",
"229 24 OFFCURVE",
"197 31 OFFCURVE",
"163 46 OFFCURVE",
"163 53 QCURVE SMOOTH",
"163 68 OFFCURVE",
"182 136 QCURVE SMOOTH",
"299 567 LINE",
"299 569 OFFCURVE",
"302 569 QCURVE SMOOTH",
"303 569 OFFCURVE",
"304 567 QCURVE",
"389 0 LINE",
"393 -2 OFFCURVE",
"397 -2 QCURVE SMOOTH",
"409 -2 OFFCURVE",
"437 22 OFFCURVE",
"442 31 QCURVE",
"703 563 LINE SMOOTH",
"705 567 OFFCURVE",
"706 567 QCURVE SMOOTH",
"712 567 OFFCURVE",
"712 561 QCURVE SMOOTH",
"712 552 OFFCURVE",
"709 522 QCURVE SMOOTH",
"669 132 LINE",
"668 128 OFFCURVE",
"666 103 OFFCURVE",
"665 94 OFFCURVE",
"661 75 OFFCURVE",
"658 64 OFFCURVE",
"652 49 OFFCURVE",
"649 42 QCURVE",
"645 34 OFFCURVE",
"599 24 OFFCURVE",
"586 24 QCURVE SMOOTH",
"584 24 OFFCURVE",
"579 8 OFFCURVE",
"579 2 QCURVE SMOOTH",
"579 1 OFFCURVE",
"581 -3 QCURVE",
"683 2 OFFCURVE",
"686 2 QCURVE SMOOTH",
"702 2 OFFCURVE",
"795 -3 QCURVE",
"801 3 OFFCURVE",
"801 15 QCURVE SMOOTH",
"801 24 OFFCURVE",
"799 24 QCURVE SMOOTH",
"796 24 OFFCURVE",
"777 25 OFFCURVE",
"764 27 OFFCURVE",
"749 32 OFFCURVE",
"741 46 OFFCURVE",
"741 56 QCURVE SMOOTH",
"741 83 OFFCURVE",
"747 135 QCURVE SMOOTH",
"786 517 LINE SMOOTH",
"791 560 OFFCURVE",
"800 594 OFFCURVE",
"809 606 QCURVE SMOOTH",
"816 616 OFFCURVE",
"845 630 OFFCURVE",
"858 630 QCURVE SMOOTH",
"861 630 OFFCURVE",
"865 654 OFFCURVE",
"863 659 QCURVE",
"811 655 OFFCURVE",
"776 655 QCURVE SMOOTH",
"724 655 OFFCURVE",
"697 658 QCURVE",
"634 523 LINE",
"456 164 LINE"
);
}
);
};
layerId = "46AF25A6-81FB-44AF-A579-8E1A95F88D5D";
name = "Mar 12 18, 15:56";
paths = (
{
closed = 1;
nodes = (
"456 162.667 OFFCURVE",
"455 162 OFFCURVE",
"453 162 CURVE SMOOTH",
"452.333 162 OFFCURVE",
"452 162.333 OFFCURVE",
"452 163 CURVE",
"407.333 438.333 OFFCURVE",
"382 603.333 OFFCURVE",
"376 658 CURVE",
"350.667 656.667 OFFCURVE",
"319 656 OFFCURVE",
"281 656 CURVE SMOOTH",
"267.667 656 OFFCURVE",
"236.333 656.667 OFFCURVE",
"187 658 CURVE",
"183 655.333 OFFCURVE",
"181 648.667 OFFCURVE",
"181 638 CURVE SMOOTH",
"181 633.333 OFFCURVE",
"181.667 631 OFFCURVE",
"183 631 CURVE SMOOTH",
"197.667 631 OFFCURVE",
"251 618.667 OFFCURVE",
"251 604 CURVE SMOOTH",
"251 583.66 OFFCURVE",
"242.077 550.425 OFFCURVE",
"238 528 CURVE",
"129 137 LINE SMOOTH",
"119 100.333 OFFCURVE",
"108 70.667 OFFCURVE",
"96 48 CURVE SMOOTH",
"90.667 37.333 OFFCURVE",
"35 24 OFFCURVE",
"19 24 CURVE SMOOTH",
"14.333 24 OFFCURVE",
"12 18.333 OFFCURVE",
"12 7 CURVE SMOOTH",
"12 1.667 OFFCURVE",
"12.667 -1.667 OFFCURVE",
"14 -3 CURVE",
"85.333 0.333 OFFCURVE",
"122 2 OFFCURVE",
"124 2 CURVE SMOOTH",
"131.333 2 OFFCURVE",
"166 0.333 OFFCURVE",
"228 -3 CURVE",
"231.333 3.667 OFFCURVE",
"233 10.667 OFFCURVE",
"233 18 CURVE SMOOTH",
"233 22 OFFCURVE",
"232.333 24 OFFCURVE",
"231 24 CURVE SMOOTH",
"220.061 24 OFFCURVE",
"163 38.815 OFFCURVE",
"163 53 CURVE SMOOTH",
"163 63 OFFCURVE",
"169.333 90.667 OFFCURVE",
"182 136 CURVE SMOOTH",
"299 567 LINE",
"299 568.333 OFFCURVE",
"300 569 OFFCURVE",
"302 569 CURVE SMOOTH",
"302.667 569 OFFCURVE",
"303.333 568.333 OFFCURVE",
"304 567 CURVE",
"389 0 LINE",
"391.667 -1.333 OFFCURVE",
"394.333 -2 OFFCURVE",
"397 -2 CURVE SMOOTH",
"413 -2 OFFCURVE",
"435.333 19 OFFCURVE",
"442 31 CURVE",
"703 563 LINE SMOOTH",
"704.333 565.667 OFFCURVE",
"705.333 567 OFFCURVE",
"706 567 CURVE SMOOTH",
"710 567 OFFCURVE",
"712 565 OFFCURVE",
"712 561 CURVE SMOOTH",
"712 555 OFFCURVE",
"711 542 OFFCURVE",
"709 522 CURVE SMOOTH",
"669 132 LINE",
"666.127 120.509 OFFCURVE",
"665.909 98.318 OFFCURVE",
"663 84.5 CURVE SMOOTH",
"660.583 73.021 OFFCURVE",
"654.258 54.269 OFFCURVE",
"649 42 CURVE",
"643.667 31.333 OFFCURVE",
"603.333 24 OFFCURVE",
"586 24 CURVE SMOOTH",
"583.333 24 OFFCURVE",
"579 10 OFFCURVE",
"579 2 CURVE SMOOTH",
"579 1.333 OFFCURVE",
"579.667 -0.333 OFFCURVE",
"581 -3 CURVE",
"649 0.333 OFFCURVE",
"684 2 OFFCURVE",
"686 2 CURVE SMOOTH",
"696.667 2 OFFCURVE",
"733 0.333 OFFCURVE",
"795 -3 CURVE",
"799 1 OFFCURVE",
"801 7 OFFCURVE",
"801 15 CURVE SMOOTH",
"801 21 OFFCURVE",
"800.333 24 OFFCURVE",
"799 24 CURVE SMOOTH",
"795 24 OFFCURVE",
"779.167 24.667 OFFCURVE",
"770.5 26 CURVE SMOOTH",
"766.167 26.667 OFFCURVE",
"761.5 27.833 OFFCURVE",
"756.5 29.5 CURVE SMOOTH",
"751.5 31.167 OFFCURVE",
"746.333 40 OFFCURVE",
"741 56 CURVE",
"741 74 OFFCURVE",
"743 100.333 OFFCURVE",
"747 135 CURVE SMOOTH",
"786 517 LINE SMOOTH",
"789.333 545.667 OFFCURVE",
"792.5 565.667 OFFCURVE",
"795.5 577 CURVE SMOOTH",
"798.5 588.333 OFFCURVE",
"803 598 OFFCURVE",
"809 606 CURVE SMOOTH",
"818.333 619.333 OFFCURVE",
"840.667 630 OFFCURVE",
"858 630 CURVE SMOOTH",
"862 630 OFFCURVE",
"865.667 652.333 OFFCURVE",
"863 659 CURVE",
"828.333 656.333 OFFCURVE",
"799.333 655 OFFCURVE",
"776 655 CURVE SMOOTH",
"741.333 655 OFFCURVE",
"715 656 OFFCURVE",
"697 658 CURVE",
"634 523 LINE",
"456 164 LINE"
);
}
);
width = 814;
},
{
associatedMasterId = "720C727D-0ED9-429E-914E-55EB9E513E33";
layerId = "FC965D8D-110E-4621-A6B2-22CB31788A0B";
name = "Mar 12 18, 16:00";
paths = (
{
closed = 1;
nodes = (
"678 492 OFFCURVE",
"638 240 OFFCURVE",
"613 85 OFFCURVE",
"611 79 QCURVE SMOOTH",
"603 42 OFFCURVE",
"595 37 QCURVE SMOOTH",
"587 33 OFFCURVE",
"543 26 OFFCURVE",
"532 26 QCURVE",
"529 21 OFFCURVE",
"525 -1 OFFCURVE",
"526 -3 QCURVE",
"634 2 OFFCURVE",
"639 2 QCURVE SMOOTH",
"657 2 OFFCURVE",
"749 -3 QCURVE",
"751 0 OFFCURVE",
"754 19 OFFCURVE",
"752 26 QCURVE",
"738 26 OFFCURVE",
"693 34 OFFCURVE",
"691 43 QCURVE SMOOTH",
"686 73 OFFCURVE",
"698 140 QCURVE SMOOTH",
"774 577 LINE SMOOTH",
"778 601 OFFCURVE",
"786 615 QCURVE",
"791 622 OFFCURVE",
"843 633 OFFCURVE",
"856 633 QCURVE",
"858 662 LINE",
"810 658 OFFCURVE",
"766 658 QCURVE SMOOTH",
"754 658 OFFCURVE",
"696 662 QCURVE",
"632 542 LINE",
"576 441 LINE SMOOTH",
"519 340 OFFCURVE",
"463 240 QCURVE SMOOTH",
"407 139 OFFCURVE",
"407 139 QCURVE",
"408 139 OFFCURVE",
"360 373 OFFCURVE",
"310 635 OFFCURVE",
"307 662 QCURVE",
"265 658 OFFCURVE",
"226 658 QCURVE SMOOTH",
"194 658 OFFCURVE",
"136 662 QCURVE",
"133 660 OFFCURVE",
"129 638 OFFCURVE",
"130 633 QCURVE",
"142 633 OFFCURVE",
"191 620 OFFCURVE",
"191 612 QCURVE",
"193 601 OFFCURVE",
"187 572 QCURVE",
"178 516 OFFCURVE",
"81 94 QCURVE SMOOTH",
"73 59 OFFCURVE",
"60 44 QCURVE SMOOTH",
"53 36 OFFCURVE",
"-3 26 OFFCURVE",
"-18 26 QCURVE",
"-22 21 OFFCURVE",
"-25 -1 OFFCURVE",
"-24 -3 QCURVE",
"-9 -3 OFFCURVE",
"33 1 OFFCURVE",
"67 2 OFFCURVE",
"86 2 QCURVE SMOOTH",
"105 2 OFFCURVE",
"134 1 OFFCURVE",
"171 -3 OFFCURVE",
"183 -3 QCURVE",
"185 0 OFFCURVE",
"189 22 OFFCURVE",
"187 26 QCURVE",
"172 26 OFFCURVE",
"119 35 OFFCURVE",
"117 44 QCURVE",
"115 58 OFFCURVE",
"119 75 QCURVE",
"120 77 OFFCURVE",
"155 238 OFFCURVE",
"210 488 OFFCURVE",
"230 584 QCURVE",
"344 0 LINE",
"351 -3 OFFCURVE",
"352 -2 QCURVE",
"359 -1 OFFCURVE",
"392 39 OFFCURVE",
"397 49 QCURVE SMOOTH",
"690 566 LINE"
);
}
);
width = 838;
},
{
layerId = "DEDDD934-E4FE-4A27-B966-8C21F8A9BC34";
paths = (
{
closed = 1;
nodes = (
"242 656 CURVE SMOOTH",
"274 656 OFFCURVE",
"302 660 OFFCURVE",
"340 662 CURVE",
"355 598 OFFCURVE",
"397 408 OFFCURVE",
"434 238 CURVE",
"434 238 OFFCURVE",
"436 236 OFFCURVE",
"437 236 CURVE SMOOTH",
"438 236 OFFCURVE",
"442 241 OFFCURVE",
"442 242 CURVE SMOOTH",
"442 242 OFFCURVE",
"548 426 OFFCURVE",
"611 546 CURVE SMOOTH",
"634 589 OFFCURVE",
"663 658 OFFCURVE",
"663 658 CURVE",
"671 657 OFFCURVE",
"745 655 OFFCURVE",
"763 655 CURVE SMOOTH",
"795 655 OFFCURVE",
"835 660 OFFCURVE",
"873 662 CURVE",
"876 658 OFFCURVE",
"876 632 OFFCURVE",
"870 624 CURVE",
"863 624 OFFCURVE",
"830 620 OFFCURVE",
"819 613 CURVE SMOOTH",
"808 606 OFFCURVE",
"802 599 OFFCURVE",
"798 572 CURVE SMOOTH",
"787 502 OFFCURVE",
"749 280 OFFCURVE",
"730 152 CURVE SMOOTH",
"724 113 OFFCURVE",
"719 77 OFFCURVE",
"723 51 CURVE SMOOTH",
"726 37 OFFCURVE",
"771 33 OFFCURVE",
"778 33 CURVE",
"780 24 OFFCURVE",
"778 6 OFFCURVE",
"773 -4 CURVE",
"736 -2 OFFCURVE",
"689 4 OFFCURVE",
"648 4 CURVE SMOOTH",
"605 4 OFFCURVE",
"543 -2 OFFCURVE",
"500 -4 CURVE",
"497 0 OFFCURVE",
"502 25 OFFCURVE",
"506 33 CURVE",
"517 33 OFFCURVE",
"563 38 OFFCURVE",
"574 52 CURVE SMOOTH",
"580 60 OFFCURVE",
"587 77 OFFCURVE",
"589 87 CURVE SMOOTH",
"591 97 OFFCURVE",
"596 130 OFFCURVE",
"599 148 CURVE SMOOTH",
"658 497 LINE SMOOTH",
"659 500 OFFCURVE",
"664 523 OFFCURVE",
"657 523 CURVE SMOOTH",
"655 523 OFFCURVE",
"654 521 OFFCURVE",
"651 516 CURVE SMOOTH",
"394 40 LINE SMOOTH",
"389 31 OFFCURVE",
"363 -2 OFFCURVE",
"346 -2 CURVE SMOOTH",
"343 -2 OFFCURVE",
"341 -1 OFFCURVE",
"338 0 CURVE",
"232 523 LINE",
"185 315 OFFCURVE",
"181 291 OFFCURVE",
"145 134 CURVE SMOOTH",
"140 112 OFFCURVE",
"135 72 OFFCURVE",
"135 65 CURVE SMOOTH",
"136 44 OFFCURVE",
"203 33 OFFCURVE",
"210 33 CURVE",
"211 26 OFFCURVE",
"209 6 OFFCURVE",
"204 -4 CURVE",
"167 -2 OFFCURVE",
"132 4 OFFCURVE",
"91 4 CURVE SMOOTH",
"48 4 OFFCURVE",
"16 -2 OFFCURVE",
"-27 -4 CURVE",
"-29 3 OFFCURVE",
"-26 22 OFFCURVE",
"-21 32 CURVE",
"-10 32 OFFCURVE",
"50 42 OFFCURVE",
"65 68 CURVE SMOOTH",
"71 78 OFFCURVE",
"89 140 OFFCURVE",
"93 156 CURVE SMOOTH",
"121 273 OFFCURVE",
"181 534 OFFCURVE",
"192 581 CURVE SMOOTH",
"193 588 OFFCURVE",
"194 596 OFFCURVE",
"191 603 CURVE SMOOTH",
"186 614 OFFCURVE",
"151 625 OFFCURVE",
"135 625 CURVE",
"131 633 OFFCURVE",
"140 660 OFFCURVE",
"142 662 CURVE",
"184 660 OFFCURVE",
"199 656 OFFCURVE"
);
}
);
width = 859;
}
);
note = M;
unicode = 004D;
},
{
color = 3;
glyphname = N;
lastChange = "2018-06-05 09:43:46 +0000";
layers = (
{
background = {
paths = (
{
closed = 1;
nodes = (
"151 653 OFFCURVE",
"151 638 QCURVE SMOOTH",
"151 631 OFFCURVE",
"153 631 QCURVE SMOOTH",
"169 631 OFFCURVE",
"221 618 OFFCURVE",
"221 606 QCURVE SMOOTH",
"221 560 OFFCURVE",
"212 516 QCURVE SMOOTH",
"135 144 LINE SMOOTH",
"119 70 OFFCURVE",
"108 48 QCURVE SMOOTH",
"104 40 OFFCURVE",
"43 24 OFFCURVE",
"31 24 QCURVE SMOOTH",
"24 24 OFFCURVE",
"24 5 QCURVE SMOOTH",
"24 -1 OFFCURVE",
"26 -3 QCURVE",
"134 2 OFFCURVE",
"136 2 QCURVE SMOOTH",
"148 2 OFFCURVE",
"240 -3 QCURVE",
"245 7 OFFCURVE",
"245 19 QCURVE SMOOTH",
"245 24 OFFCURVE",
"243 24 QCURVE",
"226 27 LINE SMOOTH",
"210 30 OFFCURVE",
"178 44 OFFCURVE",
"178 52 QCURVE SMOOTH",
"178 92 OFFCURVE",
"188 141 QCURVE SMOOTH",
"277 581 LINE",
"522 17 OFFCURVE",
"523 15 QCURVE SMOOTH",
"535 -8 OFFCURVE",
"549 -8 QCURVE SMOOTH",
"555 -8 OFFCURVE",
"559 -4 QCURVE",
"561 7 OFFCURVE",
"577 105 OFFCURVE",
"583 136 QCURVE SMOOTH",
"658 516 LINE SMOOTH",
"670 577 OFFCURVE",
"683 609 QCURVE SMOOTH",
"686 616 OFFCURVE",
"751 631 OFFCURVE",
"761 631 QCURVE SMOOTH",
"767 631 OFFCURVE",
"767 658 QCURVE",
"672 653 OFFCURVE",
"658 653 QCURVE SMOOTH",
"656 653 OFFCURVE",
"553 658 QCURVE",
"546 653 OFFCURVE",
"546 638 QCURVE SMOOTH",
"546 631 OFFCURVE",
"548 631 QCURVE SMOOTH",
"563 631 OFFCURVE",
"618 617 OFFCURVE",
"618 605 QCURVE SMOOTH",
"618 578 OFFCURVE",
"605 513 QCURVE SMOOTH",
"554 244 LINE SMOOTH",
"550 223 OFFCURVE",
"543 203 QCURVE",
"482 324 OFFCURVE",
"366 599 OFFCURVE",
"351 658 QCURVE",
"275 654 OFFCURVE",
"257 654 QCURVE SMOOTH",
"236 654 OFFCURVE",
"158 658 QCURVE"
);
}
);
};
layerId = "720C727D-0ED9-429E-914E-55EB9E513E33";
paths = (
{
closed = 1;
nodes = (
"553 -8 OFFCURVE",
"556.333 -6.667 OFFCURVE",
"559 -4 CURVE",
"560.333 3.333 OFFCURVE",
"563.667 23.333 OFFCURVE",
"569 56 CURVE SMOOTH",
"574.333 88.667 OFFCURVE",
"579 115.333 OFFCURVE",
"583 136 CURVE SMOOTH",
"658 516 LINE SMOOTH",
"666 556.667 OFFCURVE",
"674.333 587.667 OFFCURVE",
"683 609 CURVE SMOOTH",
"687 618.333 OFFCURVE",
"747.667 631 OFFCURVE",
"761 631 CURVE SMOOTH",
"765 631 OFFCURVE",
"767 640 OFFCURVE",
"767 658 CURVE",
"703.667 654.667 OFFCURVE",
"667.333 653 OFFCURVE",
"658 653 CURVE SMOOTH",
"656.667 653 OFFCURVE",
"621.667 654.667 OFFCURVE",
"553 658 CURVE",
"548.333 654.667 OFFCURVE",
"546 648 OFFCURVE",
"546 638 CURVE SMOOTH",
"546 633.333 OFFCURVE",
"546.667 631 OFFCURVE",
"548 631 CURVE SMOOTH",
"568 631 OFFCURVE",
"618 621 OFFCURVE",
"618 605 CURVE SMOOTH",
"618 587 OFFCURVE",
"613.667 556.333 OFFCURVE",
"605 513 CURVE SMOOTH",
"554 244 LINE SMOOTH",
"551.333 230 OFFCURVE",
"547.667 216.333 OFFCURVE",
"543 203 CURVE",
"461.667 364.333 OFFCURVE",
"371 579.333 OFFCURVE",
"351 658 CURVE",
"300.333 655.333 OFFCURVE",
"269 654 OFFCURVE",
"257 654 CURVE SMOOTH",
"243 654 OFFCURVE",
"210 655.333 OFFCURVE",
"158 658 CURVE",
"153.333 654.667 OFFCURVE",
"151 648 OFFCURVE",
"151 638 CURVE SMOOTH",
"151 633.333 OFFCURVE",
"151.667 631 OFFCURVE",
"153 631 CURVE SMOOTH",
"174.333 631 OFFCURVE",
"221 622 OFFCURVE",
"221 606 CURVE SMOOTH",
"221 575.333 OFFCURVE",
"218 545.333 OFFCURVE",
"212 516 CURVE SMOOTH",
"135 144 LINE SMOOTH",
"124.333 94.667 OFFCURVE",
"115.333 62.667 OFFCURVE",
"108 48 CURVE SMOOTH",
"102.667 37.333 OFFCURVE",
"47 24 OFFCURVE",
"31 24 CURVE SMOOTH",
"26.333 24 OFFCURVE",
"24 17.667 OFFCURVE",
"24 5 CURVE SMOOTH",
"24 1 OFFCURVE",
"24.667 -1.667 OFFCURVE",
"26 -3 CURVE",
"98 0.333 OFFCURVE",
"134.667 2 OFFCURVE",
"136 2 CURVE SMOOTH",
"144 2 OFFCURVE",
"178.667 0.333 OFFCURVE",
"240 -3 CURVE",
"243.333 3.667 OFFCURVE",
"245 11 OFFCURVE",
"245 19 CURVE SMOOTH",
"245 22.333 OFFCURVE",
"244.333 24 OFFCURVE",
"243 24 CURVE",
"226 27 LINE SMOOTH",
"204.667 31 OFFCURVE",
"178 41.333 OFFCURVE",
"178 52 CURVE SMOOTH",
"178 78.667 OFFCURVE",
"181.333 108.333 OFFCURVE",
"188 141 CURVE SMOOTH",
"277 581 LINE",
"440.333 205 OFFCURVE",
"522.333 16.333 OFFCURVE",
"523 15 CURVE SMOOTH",
"531 -0.333 OFFCURVE",
"539.667 -8 OFFCURVE",
"549 -8 CURVE SMOOTH"
);
}
);
width = 663;
},
{
associatedMasterId = "720C727D-0ED9-429E-914E-55EB9E513E33";
background = {
paths = (
{
closed = 1;
nodes = (
"151 653 OFFCURVE",
"151 638 QCURVE SMOOTH",
"151 631 OFFCURVE",
"153 631 QCURVE SMOOTH",
"169 631 OFFCURVE",
"221 618 OFFCURVE",
"221 606 QCURVE SMOOTH",
"221 560 OFFCURVE",
"212 516 QCURVE SMOOTH",
"135 144 LINE SMOOTH",
"119 70 OFFCURVE",
"108 48 QCURVE SMOOTH",
"104 40 OFFCURVE",
"43 24 OFFCURVE",
"31 24 QCURVE SMOOTH",
"24 24 OFFCURVE",
"24 5 QCURVE SMOOTH",
"24 -1 OFFCURVE",
"26 -3 QCURVE",
"134 2 OFFCURVE",
"136 2 QCURVE SMOOTH",
"148 2 OFFCURVE",
"240 -3 QCURVE",
"245 7 OFFCURVE",
"245 19 QCURVE SMOOTH",
"245 24 OFFCURVE",
"243 24 QCURVE",
"226 27 LINE SMOOTH",
"210 30 OFFCURVE",
"178 44 OFFCURVE",
"178 52 QCURVE SMOOTH",
"178 92 OFFCURVE",
"188 141 QCURVE SMOOTH",
"277 581 LINE",
"522 17 OFFCURVE",
"523 15 QCURVE SMOOTH",
"535 -8 OFFCURVE",
"549 -8 QCURVE SMOOTH",
"555 -8 OFFCURVE",
"559 -4 QCURVE",
"561 7 OFFCURVE",
"577 105 OFFCURVE",
"583 136 QCURVE SMOOTH",
"658 516 LINE SMOOTH",
"670 577 OFFCURVE",
"683 609 QCURVE SMOOTH",
"686 616 OFFCURVE",
"751 631 OFFCURVE",
"761 631 QCURVE SMOOTH",
"767 631 OFFCURVE",
"767 658 QCURVE",
"672 653 OFFCURVE",
"658 653 QCURVE SMOOTH",
"656 653 OFFCURVE",
"553 658 QCURVE",
"546 653 OFFCURVE",
"546 638 QCURVE SMOOTH",
"546 631 OFFCURVE",
"548 631 QCURVE SMOOTH",
"563 631 OFFCURVE",
"618 617 OFFCURVE",
"618 605 QCURVE SMOOTH",
"618 578 OFFCURVE",
"605 513 QCURVE SMOOTH",
"554 244 LINE SMOOTH",
"550 223 OFFCURVE",
"543 203 QCURVE",
"482 324 OFFCURVE",
"366 599 OFFCURVE",
"351 658 QCURVE",
"275 654 OFFCURVE",
"257 654 QCURVE SMOOTH",
"236 654 OFFCURVE",
"158 658 QCURVE"
);
}
);
};
layerId = "6490630F-D441-4D5F-AA5B-96BAA2F08A07";
name = "Mar 12 18, 15:56";
paths = (
{
closed = 1;
nodes = (
"153.333 654.667 OFFCURVE",
"151 648 OFFCURVE",
"151 638 CURVE SMOOTH",
"151 633.333 OFFCURVE",
"151.667 631 OFFCURVE",
"153 631 CURVE SMOOTH",
"174.333 631 OFFCURVE",
"221 622 OFFCURVE",
"221 606 CURVE SMOOTH",
"221 575.333 OFFCURVE",
"218 545.333 OFFCURVE",
"212 516 CURVE SMOOTH",
"135 144 LINE SMOOTH",
"124.333 94.667 OFFCURVE",
"115.333 62.667 OFFCURVE",
"108 48 CURVE SMOOTH",
"102.667 37.333 OFFCURVE",
"47 24 OFFCURVE",
"31 24 CURVE SMOOTH",
"26.333 24 OFFCURVE",
"24 17.667 OFFCURVE",
"24 5 CURVE SMOOTH",
"24 1 OFFCURVE",
"24.667 -1.667 OFFCURVE",
"26 -3 CURVE",
"98 0.333 OFFCURVE",
"134.667 2 OFFCURVE",
"136 2 CURVE SMOOTH",
"144 2 OFFCURVE",
"178.667 0.333 OFFCURVE",
"240 -3 CURVE",
"243.333 3.667 OFFCURVE",
"245 11 OFFCURVE",
"245 19 CURVE SMOOTH",
"245 22.333 OFFCURVE",
"244.333 24 OFFCURVE",
"243 24 CURVE",
"226 27 LINE SMOOTH",
"204.667 31 OFFCURVE",
"178 41.333 OFFCURVE",
"178 52 CURVE SMOOTH",
"178 78.667 OFFCURVE",
"181.333 108.333 OFFCURVE",
"188 141 CURVE SMOOTH",
"277 581 LINE",
"440.333 205 OFFCURVE",
"522.333 16.333 OFFCURVE",
"523 15 CURVE SMOOTH",
"531 -0.333 OFFCURVE",
"539.667 -8 OFFCURVE",
"549 -8 CURVE SMOOTH",
"553 -8 OFFCURVE",
"556.333 -6.667 OFFCURVE",
"559 -4 CURVE",
"560.333 3.333 OFFCURVE",
"563.667 23.333 OFFCURVE",
"569 56 CURVE SMOOTH",
"574.333 88.667 OFFCURVE",
"579 115.333 OFFCURVE",
"583 136 CURVE SMOOTH",
"658 516 LINE SMOOTH",
"666 556.667 OFFCURVE",
"674.333 587.667 OFFCURVE",
"683 609 CURVE SMOOTH",
"687 618.333 OFFCURVE",
"747.667 631 OFFCURVE",
"761 631 CURVE SMOOTH",
"765 631 OFFCURVE",
"767 640 OFFCURVE",
"767 658 CURVE",
"703.667 654.667 OFFCURVE",
"667.333 653 OFFCURVE",
"658 653 CURVE SMOOTH",
"656.667 653 OFFCURVE",
"621.667 654.667 OFFCURVE",
"553 658 CURVE",
"548.333 654.667 OFFCURVE",
"546 648 OFFCURVE",
"546 638 CURVE SMOOTH",
"546 633.333 OFFCURVE",
"546.667 631 OFFCURVE",
"548 631 CURVE SMOOTH",
"568 631 OFFCURVE",
"618 621 OFFCURVE",
"618 605 CURVE SMOOTH",
"618 587 OFFCURVE",
"613.667 556.333 OFFCURVE",
"605 513 CURVE SMOOTH",
"554 244 LINE SMOOTH",
"551.333 230 OFFCURVE",
"547.667 216.333 OFFCURVE",
"543 203 CURVE",
"461.667 364.333 OFFCURVE",
"371 579.333 OFFCURVE",
"351 658 CURVE",
"300.333 655.333 OFFCURVE",
"269 654 OFFCURVE",
"257 654 CURVE SMOOTH",
"243 654 OFFCURVE",
"210 655.333 OFFCURVE",
"158 658 CURVE"
);
}
);
width = 663;
},
{
associatedMasterId = "720C727D-0ED9-429E-914E-55EB9E513E33";
layerId = "6BD167D9-424A-4140-ADF5-35972C1198A6";
name = "Mar 12 18, 16:00";
paths = (
{
closed = 1;
nodes = (
"517 242 OFFCURVE",
"301 623 OFFCURVE",
"285 662 QCURVE",
"233 658 OFFCURVE",
"203 658 QCURVE SMOOTH",
"202 658 OFFCURVE",
"118 662 QCURVE",
"109 650 OFFCURVE",
"113 633 QCURVE",
"128 633 OFFCURVE",
"179 624 OFFCURVE",
"181 616 QCURVE",
"185 603 OFFCURVE",
"183 579 OFFCURVE",
"177 548 QCURVE SMOOTH",
"93 114 LINE SMOOTH",
"84 65 OFFCURVE",
"70 46 QCURVE SMOOTH",
"64 38 OFFCURVE",
"7 26 OFFCURVE",
"-6 26 QCURVE",
"-11 19 OFFCURVE",
"-14 0 OFFCURVE",
"-12 -3 QCURVE",
"4 -3 OFFCURVE",
"41 1 OFFCURVE",
"72 2 OFFCURVE",
"91 2 QCURVE SMOOTH",
"103 2 OFFCURVE",
"195 -3 QCURVE",
"198 3 OFFCURVE",
"201 20 OFFCURVE",
"199 26 QCURVE",
"186 26 OFFCURVE",
"135 39 OFFCURVE",
"132 46 QCURVE",
"128 62 OFFCURVE",
"130 85 OFFCURVE",
"136 115 QCURVE SMOOTH",
"224 569 LINE",
"524 18 LINE",
"529 8 OFFCURVE",
"545 -5 OFFCURVE",
"551 -5 QCURVE SMOOTH",
"564 -5 OFFCURVE",
"568 -1 QCURVE",
"575 43 OFFCURVE",
"593 139 QCURVE SMOOTH",
"672 546 LINE SMOOTH",
"678 576 OFFCURVE",
"686 603 OFFCURVE",
"694 614 QCURVE SMOOTH",
"700 622 OFFCURVE",
"756 633 OFFCURVE",
"769 633 QCURVE",
"779 648 OFFCURVE",
"773 662 QCURVE",
"687 658 OFFCURVE",
"669 658 QCURVE SMOOTH",
"641 658 OFFCURVE",
"567 662 QCURVE",
"565 658 OFFCURVE",
"562 639 OFFCURVE",
"564 633 QCURVE",
"581 633 OFFCURVE",
"628 622 OFFCURVE",
"631 613 QCURVE SMOOTH",
"638 594 OFFCURVE",
"628 541 QCURVE SMOOTH",
"554 162 LINE"
);
}
);
width = 732;
},
{
layerId = "DEDDD934-E4FE-4A27-B966-8C21F8A9BC34";
paths = (
{
closed = 1;
nodes = (
"221 655 CURVE SMOOTH",
"254 655 OFFCURVE",
"293 658 OFFCURVE",
"324 662 CURVE",
"344 584 OFFCURVE",
"457 401 OFFCURVE",
"542 248 CURVE",
"545 255 OFFCURVE",
"549 275 OFFCURVE",
"552 289 CURVE SMOOTH",
"588 476 LINE SMOOTH",
"595 514 OFFCURVE",
"607 589 OFFCURVE",
"603 604 CURVE SMOOTH",
"599 622 OFFCURVE",
"543 626 OFFCURVE",
"532 626 CURVE",
"530 626 OFFCURVE",
"533 654 OFFCURVE",
"539 663 CURVE",
"581 661 OFFCURVE",
"608 655 OFFCURVE",
"651 655 CURVE SMOOTH",
"692 655 OFFCURVE",
"732 661 OFFCURVE",
"770 663 CURVE",
"771 657 OFFCURVE",
"768 635 OFFCURVE",
"760 625 CURVE",
"753 625 OFFCURVE",
"691 623 OFFCURVE",
"679 602 CURVE SMOOTH",
"672 588 OFFCURVE",
"652 515 OFFCURVE",
"645 479 CURVE SMOOTH",
"579 139 LINE SMOOTH",
"568 81 OFFCURVE",
"564 51 OFFCURVE",
"556 -1 CURVE",
"553 -4 OFFCURVE",
"535 -5 OFFCURVE",
"532 -5 CURVE SMOOTH",
"524 -5 OFFCURVE",
"515 5 OFFCURVE",
"508 18 CURVE SMOOTH",
"226 519 LINE",
"156 157 LINE SMOOTH",
"149 121 OFFCURVE",
"145 74 OFFCURVE",
"147 60 CURVE SMOOTH",
"150 41 OFFCURVE",
"212 34 OFFCURVE",
"219 34 CURVE",
"223 24 OFFCURVE",
"216 2 OFFCURVE",
"213 -4 CURVE",
"176 -2 OFFCURVE",
"138 4 OFFCURVE",
"97 4 CURVE SMOOTH",
"54 4 OFFCURVE",
"25 -2 OFFCURVE",
"-18 -4 CURVE",
"-21 5 OFFCURVE",
"-12 33 OFFCURVE",
"-10 33 CURVE",
"1 33 OFFCURVE",
"58 41 OFFCURVE",
"69 59 CURVE SMOOTH",
"78 74 OFFCURVE",
"93 122 OFFCURVE",
"100 160 CURVE SMOOTH",
"125 291 OFFCURVE",
"144 383 OFFCURVE",
"169 514 CURVE SMOOTH",
"179 568 OFFCURVE",
"177 585 OFFCURVE",
"169 604 CURVE SMOOTH",
"163 617 OFFCURVE",
"123 625 OFFCURVE",
"112 625 CURVE SMOOTH",
"107 625 OFFCURVE",
"111 657 OFFCURVE",
"117 662 CURVE",
"145 660 OFFCURVE",
"178 655 OFFCURVE"
);
}
);
width = 715;
}
);
note = N;
unicode = 004E;
},
{
color = 3;
glyphname = Eng;
lastChange = "2018-06-05 09:43:46 +0000";
layers = (
{
layerId = "720C727D-0ED9-429E-914E-55EB9E513E33";
paths = (
{
closed = 1;
nodes = (
"318 -223 LINE SMOOTH",
"347 -210 OFFCURVE",
"395 -174 OFFCURVE",
"443 -129 CURVE SMOOTH",
"490 -84 OFFCURVE",
"537 -5 OFFCURVE",
"553 80 CURVE SMOOTH",
"638 516 LINE SMOOTH",
"646 557 OFFCURVE",
"654 588 OFFCURVE",
"663 609 CURVE SMOOTH",
"667 618 OFFCURVE",
"728 631 OFFCURVE",
"741 631 CURVE SMOOTH",
"745 631 OFFCURVE",
"747 640 OFFCURVE",
"747 658 CURVE",
"684 655 OFFCURVE",
"647 653 OFFCURVE",
"638 653 CURVE",
"533 658 LINE",
"528 655 OFFCURVE",
"526 648 OFFCURVE",
"526 638 CURVE SMOOTH",
"526 633 OFFCURVE",
"527 631 OFFCURVE",
"528 631 CURVE SMOOTH",
"548 631 OFFCURVE",
"598 621 OFFCURVE",
"598 605 CURVE SMOOTH",
"598 587 OFFCURVE",
"594 556 OFFCURVE",
"585 513 CURVE SMOOTH",
"534 244 LINE SMOOTH",
"531 230 OFFCURVE",
"528 216 OFFCURVE",
"523 203 CURVE",
"442 364 OFFCURVE",
"351 579 OFFCURVE",
"331 658 CURVE",
"280 655 OFFCURVE",
"249 654 OFFCURVE",
"237 654 CURVE SMOOTH",
"223 654 OFFCURVE",
"190 655 OFFCURVE",
"138 658 CURVE",
"133 655 OFFCURVE",
"128 633 OFFCURVE",
"133 631 CURVE",
"154 631 OFFCURVE",
"201 622 OFFCURVE",
"201 606 CURVE SMOOTH",
"201 575 OFFCURVE",
"198 545 OFFCURVE",
"192 516 CURVE SMOOTH",
"115 144 LINE SMOOTH",
"104 95 OFFCURVE",
"95 63 OFFCURVE",
"88 48 CURVE SMOOTH",
"83 37 OFFCURVE",
"27 24 OFFCURVE",
"11 24 CURVE SMOOTH",
"6 24 OFFCURVE",
"4 18 OFFCURVE",
"4 5 CURVE SMOOTH",
"4 1 OFFCURVE",
"5 -2 OFFCURVE",
"6 -3 CURVE",
"116 2 LINE",
"124 2 OFFCURVE",
"159 0 OFFCURVE",
"220 -3 CURVE",
"223 4 OFFCURVE",
"225 11 OFFCURVE",
"225 19 CURVE SMOOTH",
"225 22 OFFCURVE",
"224 24 OFFCURVE",
"223 24 CURVE",
"206 27 LINE SMOOTH",
"185 31 OFFCURVE",
"158 41 OFFCURVE",
"158 52 CURVE SMOOTH",
"158 79 OFFCURVE",
"161 108 OFFCURVE",
"168 141 CURVE SMOOTH",
"257 581 LINE",
"488 49 LINE",
"449 -85 OFFCURVE",
"329 -176 OFFCURVE",
"284 -204 CURVE",
"282 -217 LINE",
"282 -224 OFFCURVE",
"291 -233 OFFCURVE",
"295 -233 CURVE"
);
}
);
width = 682;
},
{
layerId = "DEDDD934-E4FE-4A27-B966-8C21F8A9BC34";
paths = (
{
closed = 1;
nodes = (
"479 69 CURVE",
"226 519 LINE",
"156 157 LINE SMOOTH",
"149 121 OFFCURVE",
"145 74 OFFCURVE",
"147 60 CURVE SMOOTH",
"150 41 OFFCURVE",
"212 34 OFFCURVE",
"219 34 CURVE",
"223 24 OFFCURVE",
"216 2 OFFCURVE",
"213 -4 CURVE",
"176 -2 OFFCURVE",
"138 4 OFFCURVE",
"97 4 CURVE SMOOTH",
"54 4 OFFCURVE",
"25 -2 OFFCURVE",
"-18 -4 CURVE",
"-21 5 OFFCURVE",
"-12 33 OFFCURVE",
"-10 33 CURVE SMOOTH",
"1 33 OFFCURVE",
"58 41 OFFCURVE",
"69 59 CURVE SMOOTH",
"78 74 OFFCURVE",
"93 122 OFFCURVE",
"100 160 CURVE SMOOTH",
"125 291 OFFCURVE",
"144 383 OFFCURVE",
"169 514 CURVE SMOOTH",
"174 542 OFFCURVE",
"177 585 OFFCURVE",
"169 604 CURVE SMOOTH",
"163 617 OFFCURVE",
"123 625 OFFCURVE",
"112 625 CURVE SMOOTH",
"107 625 OFFCURVE",
"111 657 OFFCURVE",
"117 662 CURVE",
"145 660 OFFCURVE",
"178 655 OFFCURVE",
"221 655 CURVE SMOOTH",
"254 655 OFFCURVE",
"293 658 OFFCURVE",
"324 662 CURVE",
"344 584 OFFCURVE",
"457 401 OFFCURVE",
"542 248 CURVE",
"545 255 OFFCURVE",
"549 275 OFFCURVE",
"552 289 CURVE SMOOTH",
"588 476 LINE SMOOTH",
"595 514 OFFCURVE",
"607 589 OFFCURVE",
"603 604 CURVE SMOOTH",
"599 622 OFFCURVE",
"543 626 OFFCURVE",
"532 626 CURVE SMOOTH",
"530 626 OFFCURVE",
"533 654 OFFCURVE",
"539 663 CURVE",
"581 661 OFFCURVE",
"608 655 OFFCURVE",
"651 655 CURVE SMOOTH",
"692 655 OFFCURVE",
"732 661 OFFCURVE",
"770 663 CURVE",
"771 657 OFFCURVE",
"768 635 OFFCURVE",
"760 625 CURVE",
"753 625 OFFCURVE",
"691 623 OFFCURVE",
"679 602 CURVE SMOOTH",
"672 588 OFFCURVE",
"652 515 OFFCURVE",
"645 479 CURVE SMOOTH",
"579 139 LINE SMOOTH",
"534 -89 OFFCURVE",
"329 -200 OFFCURVE",
"270 -218 CURVE",
"265 -215 OFFCURVE",
"259 -205 OFFCURVE",
"259 -200 CURVE SMOOTH",
"259 -197 OFFCURVE",
"260 -195 OFFCURVE",
"261 -194 CURVE SMOOTH",
"352 -145 OFFCURVE",
"438 -63 OFFCURVE"
);
}
);
width = 714;
}
);
note = Eng;
unicode = 014A;
},
{
color = 3;
glyphname = O;
lastChange = "2018-06-05 09:43:46 +0000";
layers = (
{
background = {
paths = (
{
closed = 1;
nodes = (
"578 260 OFFCURVE",
"426 33 OFFCURVE",
"322 33 QCURVE SMOOTH",
"240 33 OFFCURVE",
"151 165 OFFCURVE",
"151 267 QCURVE SMOOTH",
"151 402 OFFCURVE",
"301 625 OFFCURVE",
"409 625 QCURVE SMOOTH",
"490 625 OFFCURVE",
"578 495 OFFCURVE",
"578 395 QCURVE SMOOTH"
);
},
{
closed = 1;
nodes = (
"60 143 OFFCURVE",
"189 -10 OFFCURVE",
"296 -10 QCURVE SMOOTH",
"393 -10 OFFCURVE",
"567 107 OFFCURVE",
"670 301 OFFCURVE",
"670 409 QCURVE SMOOTH",
"670 516 OFFCURVE",
"533 667 OFFCURVE",
"432 667 QCURVE SMOOTH",
"342 667 OFFCURVE",
"170 554 OFFCURVE",
"60 363 OFFCURVE",
"60 259 QCURVE SMOOTH"
);
}
);
};
layerId = "720C727D-0ED9-429E-914E-55EB9E513E33";
paths = (
{
closed = 1;
nodes = (
"425.333 -10 OFFCURVE",
"549.833 74.667 OFFCURVE",
"618.5 204 CURVE SMOOTH",
"652.833 268.667 OFFCURVE",
"670 337 OFFCURVE",
"670 409 CURVE SMOOTH",
"670 551.667 OFFCURVE",
"566.667 667 OFFCURVE",
"432 667 CURVE SMOOTH",
"312 667 OFFCURVE",
"188.333 585.833 OFFCURVE",
"115 458.5 CURVE SMOOTH",
"78.333 394.833 OFFCURVE",
"60 328.333 OFFCURVE",
"60 259 CURVE SMOOTH",
"60 104.333 OFFCURVE",
"153.333 -10 OFFCURVE",
"296 -10 CURVE SMOOTH"
);
},
{
closed = 1;
nodes = (
"212.667 33 OFFCURVE",
"151 131 OFFCURVE",
"151 267 CURVE SMOOTH",
"151 447 OFFCURVE",
"265 625 OFFCURVE",
"409 625 CURVE SMOOTH",
"517 625 OFFCURVE",
"578 528.333 OFFCURVE",
"578 395 CURVE SMOOTH",
"578 215 OFFCURVE",
"460.667 33 OFFCURVE",
"322 33 CURVE SMOOTH"
);
}
);
width = 624;
},
{
associatedMasterId = "720C727D-0ED9-429E-914E-55EB9E513E33";
background = {
paths = (
{
closed = 1;
nodes = (
"578 260 OFFCURVE",
"426 33 OFFCURVE",
"322 33 QCURVE SMOOTH",
"240 33 OFFCURVE",
"151 165 OFFCURVE",
"151 267 QCURVE SMOOTH",
"151 402 OFFCURVE",
"301 625 OFFCURVE",
"409 625 QCURVE SMOOTH",
"490 625 OFFCURVE",
"578 495 OFFCURVE",
"578 395 QCURVE SMOOTH"
);
},
{
closed = 1;
nodes = (
"60 143 OFFCURVE",
"189 -10 OFFCURVE",
"296 -10 QCURVE SMOOTH",
"393 -10 OFFCURVE",
"567 107 OFFCURVE",
"670 301 OFFCURVE",
"670 409 QCURVE SMOOTH",
"670 516 OFFCURVE",
"533 667 OFFCURVE",
"432 667 QCURVE SMOOTH",
"342 667 OFFCURVE",
"170 554 OFFCURVE",
"60 363 OFFCURVE",
"60 259 QCURVE SMOOTH"
);
}
);
};
layerId = "6E00ACD2-B39F-4613-9DCB-A0D8E148EABE";
name = "Mar 12 18, 15:56";
paths = (
{
closed = 1;
nodes = (
"578 215 OFFCURVE",
"460.667 33 OFFCURVE",
"322 33 CURVE SMOOTH",
"212.667 33 OFFCURVE",
"151 131 OFFCURVE",
"151 267 CURVE SMOOTH",
"151 447 OFFCURVE",
"265 625 OFFCURVE",
"409 625 CURVE SMOOTH",
"517 625 OFFCURVE",
"578 528.333 OFFCURVE",
"578 395 CURVE SMOOTH"
);
},
{
closed = 1;
nodes = (
"60 104.333 OFFCURVE",
"153.333 -10 OFFCURVE",
"296 -10 CURVE SMOOTH",
"425.333 -10 OFFCURVE",
"549.833 74.667 OFFCURVE",
"618.5 204 CURVE SMOOTH",
"652.833 268.667 OFFCURVE",
"670 337 OFFCURVE",
"670 409 CURVE SMOOTH",
"670 551.667 OFFCURVE",
"566.667 667 OFFCURVE",
"432 667 CURVE SMOOTH",
"312 667 OFFCURVE",
"188.333 585.833 OFFCURVE",
"115 458.5 CURVE SMOOTH",
"78.333 394.833 OFFCURVE",
"60 328.333 OFFCURVE",
"60 259 CURVE SMOOTH"
);
}
);
width = 624;
},
{
associatedMasterId = "720C727D-0ED9-429E-914E-55EB9E513E33";
layerId = "4C23AEC2-057E-47DA-A42E-B61BFDE561D5";
name = "Mar 12 18, 16:00";
paths = (
{
closed = 1;
nodes = (
"578 326 OFFCURVE",
"542 192 OFFCURVE",
"479 85 OFFCURVE",
"384 18 OFFCURVE",
"328 18 QCURVE SMOOTH",
"289 18 OFFCURVE",
"227 49 OFFCURVE",
"189 97 OFFCURVE",
"165 164 OFFCURVE",
"155 231 OFFCURVE",
"155 268 QCURVE SMOOTH",
"155 345 OFFCURVE",
"198 483 OFFCURVE",
"269 579 OFFCURVE",
"359 635 OFFCURVE",
"406 635 QCURVE SMOOTH",
"447 635 OFFCURVE",
"509 603 OFFCURVE",
"546 553 OFFCURVE",
"570 486 OFFCURVE",
"578 425 OFFCURVE",
"578 393 QCURVE SMOOTH"
);
},
{
closed = 1;
nodes = (
"61 194 OFFCURVE",
"122 66 OFFCURVE",
"240 -11 OFFCURVE",
"319 -11 QCURVE SMOOTH",
"391 -11 OFFCURVE",
"520 47 OFFCURVE",
"616 148 OFFCURVE",
"672 297 OFFCURVE",
"672 382 QCURVE SMOOTH",
"672 462 OFFCURVE",
"610 590 OFFCURVE",
"492 665 OFFCURVE",
"415 665 QCURVE SMOOTH",
"347 665 OFFCURVE",
"219 607 OFFCURVE",
"121 505 OFFCURVE",
"61 357 OFFCURVE",
"61 273 QCURVE SMOOTH"
);
}
);
width = 710;
},
{
layerId = "DEDDD934-E4FE-4A27-B966-8C21F8A9BC34";
paths = (
{
closed = 1;
nodes = (
"402 624 CURVE SMOOTH",
"264 624 OFFCURVE",
"193 409 OFFCURVE",
"193 244 CURVE SMOOTH",
"193 129 OFFCURVE",
"231 33 OFFCURVE",
"326 33 CURVE SMOOTH",
"461 33 OFFCURVE",
"535 245 OFFCURVE",
"535 410 CURVE SMOOTH",
"535 525 OFFCURVE",
"492 624 OFFCURVE"
);
},
{
closed = 1;
nodes = (
"424 667 CURVE SMOOTH",
"588 667 OFFCURVE",
"679 522 OFFCURVE",
"679 393 CURVE SMOOTH",
"679 137 OFFCURVE",
"461 -10 OFFCURVE",
"295 -10 CURVE SMOOTH",
"155 -10 OFFCURVE",
"49 115 OFFCURVE",
"49 261 CURVE SMOOTH",
"49 510 OFFCURVE",
"259 667 OFFCURVE"
);
}
);
width = 705;
}
);
note = O;
unicode = 004F;
},
{
color = 3;
glyphname = Oslash;
lastChange = "2018-06-05 09:43:46 +0000";
layers = (
{
layerId = "720C727D-0ED9-429E-914E-55EB9E513E33";
paths = (
{
closed = 1;
nodes = (
"221 94 LINE",
"250 56 OFFCURVE",
"290 33 OFFCURVE",
"343 33 CURVE SMOOTH",
"462 33 OFFCURVE",
"560 162 OFFCURVE",
"588 309 CURVE SMOOTH",
"607 393 OFFCURVE",
"600 476 OFFCURVE",
"569 536 CURVE",
"654 645 LINE SMOOTH",
"658 650 OFFCURVE",
"640 664 OFFCURVE",
"631 667 CURVE",
"551 565 LINE",
"523 602 OFFCURVE",
"482 625 OFFCURVE",
"430 625 CURVE SMOOTH",
"313 625 OFFCURVE",
"214 495 OFFCURVE",
"186 350 CURVE SMOOTH",
"167 266 OFFCURVE",
"174 183 OFFCURVE",
"204 123 CURVE",
"115 10 LINE SMOOTH",
"111 5 OFFCURVE",
"128 -9 OFFCURVE",
"137 -13 CURVE"
);
}
);
width = 646;
},
{
components = (
{
name = O;
}
);
layerId = "DEDDD934-E4FE-4A27-B966-8C21F8A9BC34";
paths = (
{
closed = 1;
nodes = (
"104 -13 LINE",
"96 -10 OFFCURVE",
"75 6 OFFCURVE",
"80 12 CURVE",
"596 669 LINE",
"604 667 OFFCURVE",
"626 651 OFFCURVE",
"621 645 CURVE"
);
}
);
width = 705;
}
);
note = Oslash;
unicode = 00D8;
},
